<svg width="774" height="173" viewBox="0 0 774 173" fill="none" xmlns="http://www.w3.org/2000/svg">
<mask id="path-1-outside-1_380_55" maskUnits="userSpaceOnUse" x="-0.492188" y="-0.330566" width="775" height="173" fill="black">
<rect fill="white" x="-0.492188" y="-0.330566" width="775" height="173"/>
<path d="M3.53738 137.349C4.55738 132.249 8.80738 122.389 15.6074 117.119C14.9274 113.719 14.4174 109.639 14.2474 105.899C13.5674 83.7994 22.9174 58.9794 45.8674 39.2594C68.4774 19.5394 104.687 6.44943 144.127 6.44943C156.027 6.44943 163.507 7.46943 171.327 9.50943C172.857 4.91943 173.707 3.21942 174.387 3.04943C176.937 3.38943 180.847 8.14943 181.357 11.8894C184.757 13.2494 187.647 14.0994 189.177 15.2894C191.047 16.4794 192.237 18.1794 191.387 18.8594C190.707 19.1994 189.857 18.3494 188.667 17.6694C187.137 16.6494 184.587 15.4594 181.187 14.4394C181.017 17.4994 178.977 22.7694 177.277 25.3194C169.457 37.5594 156.367 53.3694 137.667 71.8994C138.177 74.4494 138.517 78.1894 138.347 79.8894C138.007 86.5194 137.327 90.5994 135.457 96.3794C142.597 90.9394 146.507 88.0494 157.727 78.6994C171.157 67.8194 193.257 48.7794 222.667 27.8694C238.817 16.3094 262.107 3.72943 280.297 3.72943C290.497 3.72943 302.567 7.63943 307.837 18.6894C308.177 19.3694 308.517 20.0494 307.837 20.3894C307.327 20.5594 306.987 20.2194 306.647 19.8794C300.357 12.5694 287.777 11.2094 279.617 11.2094C260.577 11.2094 236.947 19.0294 212.637 42.4894C203.627 51.1594 186.287 79.0394 180.847 86.0094C165.547 105.559 149.227 122.729 134.097 134.969C103.667 159.619 74.9374 169.649 43.9974 169.649C15.7774 169.649 -0.202617 157.239 3.53738 137.349ZM208.047 43.1694C192.577 54.2194 174.047 70.1994 165.547 76.8294C155.857 84.4794 147.697 91.2794 134.437 100.629C122.707 127.659 90.7474 147.889 57.9374 147.039C37.0274 146.529 20.1974 135.649 16.1174 119.159C10.8474 124.259 7.61738 132.249 6.59738 137.179C3.02738 155.199 17.4774 166.249 42.4674 166.249C71.7074 166.249 99.9274 149.249 124.747 128.339C140.217 115.249 153.647 100.289 164.187 89.0694C178.127 74.1094 198.357 52.3494 208.047 43.1694ZM170.307 11.8894C163.167 10.3594 156.027 10.1894 143.447 10.3594C108.767 10.6994 74.4274 27.3594 52.4974 46.2294C30.3974 65.6094 18.3274 89.2394 18.3274 106.239C18.3274 131.909 35.6674 143.809 57.9374 144.489C87.3474 145.339 116.417 127.999 128.827 104.199C116.417 112.699 102.307 121.029 90.0674 125.449C85.4774 127.149 78.5074 129.699 74.7674 125.279C72.2174 122.219 73.4074 114.739 79.1874 109.299C96.6974 93.1494 104.687 85.4994 120.837 70.5394C122.537 68.8394 127.127 64.2494 128.997 62.3794C123.047 49.6294 109.617 44.3594 97.8874 44.3594C87.1774 44.3594 76.1274 47.9294 67.9674 56.4294C65.0774 59.4894 62.6974 62.7194 61.1674 67.3094C60.8274 67.9894 60.8274 69.3494 59.9774 69.1794C59.2974 69.0094 59.2974 67.6494 59.4674 67.3094C60.6574 62.2094 63.3774 58.1294 66.4374 54.7294C74.4274 46.0594 85.4774 41.8094 97.5474 41.8094C111.827 41.8094 124.577 47.4194 131.207 59.9994C141.407 49.1194 152.117 37.2194 159.937 27.3594C164.017 22.0894 167.757 16.6494 170.307 11.8894ZM135.117 80.0594C135.287 78.5294 135.117 76.1494 134.777 74.4494C132.567 76.6594 129.677 79.2094 127.127 81.7594C111.997 95.5294 101.967 104.029 90.5774 113.889C87.3474 116.609 83.7774 120.689 83.7774 122.219C84.1174 124.599 88.0274 124.259 93.1274 121.879C107.747 115.249 118.797 108.449 130.357 99.9494C133.077 93.3194 134.607 87.5394 135.117 80.0594ZM237.172 70.7094C242.612 73.4294 239.552 86.3494 225.272 100.799C209.122 117.289 195.862 123.069 189.062 121.369C178.862 118.819 178.012 102.839 192.802 87.8794C210.142 70.3694 230.032 66.9694 237.172 70.7094ZM236.152 72.7494C232.582 69.8594 218.472 79.8894 202.832 96.0394C192.972 106.409 184.982 116.269 189.572 118.989C193.652 121.369 206.572 110.659 222.042 95.0194C228.842 88.2194 239.212 75.2994 236.152 72.7494ZM313.065 70.0294C298.445 83.4594 284.675 98.0794 278.725 105.389C273.285 111.849 269.545 116.779 272.095 117.969C274.645 119.159 283.655 112.699 287.735 109.469C293.175 105.219 299.465 99.9494 304.225 95.6994C304.565 95.3594 305.585 94.3394 306.435 95.1894C307.115 95.6994 306.605 96.5494 305.925 97.2294C300.655 101.989 293.175 108.279 289.605 111.169C281.785 117.289 275.325 121.539 269.205 121.539C260.535 121.539 258.835 114.739 263.935 105.899C261.725 108.109 259.345 110.149 257.985 111.169C251.525 116.439 244.045 121.879 236.905 121.709C229.935 121.369 227.895 115.929 229.595 111.169C231.125 106.239 235.035 100.459 241.325 94.1694C247.955 87.1994 259.685 77.8494 266.485 73.7694C269.205 72.2394 277.195 71.0494 282.975 71.0494C267.845 83.4594 252.885 98.0794 246.935 105.389C241.665 111.849 238.945 116.099 241.325 117.459C244.045 118.819 251.185 113.719 256.795 109.299C263.255 104.029 270.225 97.0594 272.945 94.1694C279.745 87.1994 291.645 75.8094 298.445 71.8994C300.995 70.5394 308.985 69.6894 313.065 70.0294ZM413.548 71.3894C401.988 81.7594 389.918 93.4894 383.628 100.629C378.018 107.259 358.468 130.379 340.448 143.979C319.368 160.129 291.828 169.309 273.468 168.459C258.338 167.779 249.158 159.959 252.388 146.359C253.748 140.409 259.018 134.459 261.738 132.079C263.438 130.719 265.988 129.019 266.838 130.209C267.348 131.059 265.648 131.909 263.948 133.439C260.038 137.009 256.808 142.109 255.618 146.359C252.898 156.729 258.678 165.059 272.618 165.739C293.018 166.759 313.418 153.329 328.888 141.429C337.728 134.629 355.238 117.969 365.778 106.409L365.098 106.069C353.538 116.439 344.868 121.709 340.278 121.199C328.718 120.179 332.118 101.479 344.188 89.4094C359.828 73.4294 383.968 66.2894 391.278 70.5394C393.658 71.7294 394.678 75.8094 388.048 82.0994L388.558 82.4394C393.828 78.0194 398.758 73.9394 401.138 72.9194C404.708 71.5594 409.638 71.0494 413.548 71.3894ZM389.918 72.7494C386.688 70.1994 373.598 78.6994 355.578 95.8694C345.038 105.899 337.048 116.949 340.958 118.649C344.188 120.179 358.978 109.639 373.428 94.8494C380.058 88.2194 393.488 75.4694 389.918 72.7494ZM452.992 70.7094C458.432 73.4294 455.372 86.3494 441.092 100.799C424.942 117.289 411.682 123.069 404.882 121.369C394.682 118.819 393.832 102.839 408.622 87.8794C425.962 70.3694 445.852 66.9694 452.992 70.7094ZM451.972 72.7494C448.402 69.8594 434.292 79.8894 418.652 96.0394C408.792 106.409 400.802 116.269 405.392 118.989C409.472 121.369 422.392 110.659 437.862 95.0194C444.662 88.2194 455.032 75.2994 451.972 72.7494ZM566.117 71.3894C554.557 81.7594 542.487 93.4894 536.197 100.629C530.587 107.259 511.037 130.379 493.017 143.979C471.937 160.129 444.397 169.309 426.037 168.459C410.907 167.779 401.727 159.959 404.957 146.359C406.317 140.409 411.587 134.459 414.307 132.079C416.007 130.719 418.557 129.019 419.407 130.209C419.917 131.059 418.217 131.909 416.517 133.439C412.607 137.009 409.377 142.109 408.187 146.359C405.467 156.729 411.247 165.059 425.187 165.739C445.587 166.759 465.987 153.329 481.457 141.429C490.297 134.629 507.807 117.969 518.347 106.409L517.667 106.069C506.107 116.439 497.437 121.709 492.847 121.199C481.287 120.179 484.687 101.479 496.757 89.4094C512.397 73.4294 536.537 66.2894 543.847 70.5394C546.227 71.7294 547.247 75.8094 540.617 82.0994L541.127 82.4394C546.397 78.0194 551.327 73.9394 553.707 72.9194C557.277 71.5594 562.207 71.0494 566.117 71.3894ZM542.487 72.7494C539.257 70.1994 526.167 78.6994 508.147 95.8694C497.607 105.899 489.617 116.949 493.527 118.649C496.757 120.179 511.547 109.639 525.997 94.8494C532.627 88.2194 546.057 75.4694 542.487 72.7494ZM597.571 70.3694C582.951 83.4594 567.651 99.2694 561.701 106.239C556.431 112.359 553.201 117.629 555.751 118.989C558.471 120.179 567.821 114.059 572.581 110.489C578.361 106.239 586.861 98.9294 590.431 95.6994C591.281 95.0194 592.131 94.3394 592.811 95.3594C593.151 96.0394 592.981 96.7194 592.131 97.3994C587.541 101.479 577.681 109.639 574.111 112.359C568.501 116.439 560.341 121.709 555.411 121.709C544.021 121.709 543.001 108.619 555.751 95.1894C562.381 88.2194 575.471 75.8094 582.271 72.0694C584.821 70.7094 595.361 70.1994 597.571 70.3694ZM608.451 56.2594C608.451 59.9994 605.391 63.0594 601.651 63.0594C597.911 63.0594 594.851 59.9994 594.851 56.2594C594.851 52.5194 597.911 49.4594 601.651 49.4594C605.391 49.4594 608.451 52.5194 608.451 56.2594ZM650.624 76.6594C650.284 79.0394 647.734 81.2494 646.884 81.0794C646.204 80.9094 645.354 80.0594 644.334 79.3794C642.634 78.3594 641.784 77.8494 639.064 77.6794C630.734 77.3394 616.454 86.8594 604.894 97.7394C594.014 108.109 589.254 113.889 583.304 121.879C580.244 121.879 577.524 115.419 579.564 111.509C583.134 104.879 589.594 96.2094 598.604 86.8594C604.044 80.9094 608.294 77.5094 612.374 74.9594C617.814 71.3894 625.634 70.3694 631.244 70.3694C624.104 75.1294 614.414 83.6294 607.104 92.1294L607.614 92.6394C616.964 84.4794 635.834 68.6694 645.864 70.5394C649.434 71.2194 650.794 73.5994 650.624 76.6594ZM748.728 22.2594C756.038 22.0894 768.448 23.9594 770.658 31.4394C770.998 32.4594 770.318 33.9894 769.128 34.1594C768.618 34.1594 767.768 33.1394 766.918 32.4594C761.818 27.0194 755.188 24.9794 748.048 24.9794C736.488 24.9794 723.908 31.2694 713.708 38.9194C698.238 50.4794 681.578 66.4594 662.538 86.0094C648.768 100.119 634.148 116.439 637.548 118.819C639.418 120.179 645.708 116.949 654.208 110.999C659.138 107.599 668.488 99.6094 672.568 96.0394C673.248 95.5294 674.268 94.5094 675.118 95.3594C675.968 96.0394 675.118 96.7194 674.268 97.3994C670.358 101.139 661.178 108.959 654.888 113.379C646.218 119.499 639.758 122.729 634.998 121.539C629.558 120.179 627.008 113.719 631.428 105.729C634.658 99.7794 642.648 90.7694 653.358 79.8894C671.718 61.1894 689.908 45.5494 701.638 38.2394C713.878 30.5894 732.918 22.4294 748.728 22.2594ZM752.224 32.4594C754.944 34.1594 756.644 39.2594 752.904 42.9994C736.584 59.8294 710.234 81.0794 690.854 99.6094C689.324 100.969 686.604 104.199 685.584 103.519C684.224 102.499 686.264 100.799 688.134 98.2494C705.134 77.3394 717.884 61.3594 734.374 42.9994C741.684 34.8394 747.634 29.3994 752.224 32.4594ZM683.034 115.249C683.034 118.819 680.144 121.709 676.574 121.709C673.004 121.709 670.114 118.819 670.114 115.249C670.114 111.679 673.004 108.789 676.574 108.789C680.144 108.789 683.034 111.679 683.034 115.249Z"/>
</mask>
<path d="M3.53738 137.349C4.55738 132.249 8.80738 122.389 15.6074 117.119C14.9274 113.719 14.4174 109.639 14.2474 105.899C13.5674 83.7994 22.9174 58.9794 45.8674 39.2594C68.4774 19.5394 104.687 6.44943 144.127 6.44943C156.027 6.44943 163.507 7.46943 171.327 9.50943C172.857 4.91943 173.707 3.21942 174.387 3.04943C176.937 3.38943 180.847 8.14943 181.357 11.8894C184.757 13.2494 187.647 14.0994 189.177 15.2894C191.047 16.4794 192.237 18.1794 191.387 18.8594C190.707 19.1994 189.857 18.3494 188.667 17.6694C187.137 16.6494 184.587 15.4594 181.187 14.4394C181.017 17.4994 178.977 22.7694 177.277 25.3194C169.457 37.5594 156.367 53.3694 137.667 71.8994C138.177 74.4494 138.517 78.1894 138.347 79.8894C138.007 86.5194 137.327 90.5994 135.457 96.3794C142.597 90.9394 146.507 88.0494 157.727 78.6994C171.157 67.8194 193.257 48.7794 222.667 27.8694C238.817 16.3094 262.107 3.72943 280.297 3.72943C290.497 3.72943 302.567 7.63943 307.837 18.6894C308.177 19.3694 308.517 20.0494 307.837 20.3894C307.327 20.5594 306.987 20.2194 306.647 19.8794C300.357 12.5694 287.777 11.2094 279.617 11.2094C260.577 11.2094 236.947 19.0294 212.637 42.4894C203.627 51.1594 186.287 79.0394 180.847 86.0094C165.547 105.559 149.227 122.729 134.097 134.969C103.667 159.619 74.9374 169.649 43.9974 169.649C15.7774 169.649 -0.202617 157.239 3.53738 137.349ZM208.047 43.1694C192.577 54.2194 174.047 70.1994 165.547 76.8294C155.857 84.4794 147.697 91.2794 134.437 100.629C122.707 127.659 90.7474 147.889 57.9374 147.039C37.0274 146.529 20.1974 135.649 16.1174 119.159C10.8474 124.259 7.61738 132.249 6.59738 137.179C3.02738 155.199 17.4774 166.249 42.4674 166.249C71.7074 166.249 99.9274 149.249 124.747 128.339C140.217 115.249 153.647 100.289 164.187 89.0694C178.127 74.1094 198.357 52.3494 208.047 43.1694ZM170.307 11.8894C163.167 10.3594 156.027 10.1894 143.447 10.3594C108.767 10.6994 74.4274 27.3594 52.4974 46.2294C30.3974 65.6094 18.3274 89.2394 18.3274 106.239C18.3274 131.909 35.6674 143.809 57.9374 144.489C87.3474 145.339 116.417 127.999 128.827 104.199C116.417 112.699 102.307 121.029 90.0674 125.449C85.4774 127.149 78.5074 129.699 74.7674 125.279C72.2174 122.219 73.4074 114.739 79.1874 109.299C96.6974 93.1494 104.687 85.4994 120.837 70.5394C122.537 68.8394 127.127 64.2494 128.997 62.3794C123.047 49.6294 109.617 44.3594 97.8874 44.3594C87.1774 44.3594 76.1274 47.9294 67.9674 56.4294C65.0774 59.4894 62.6974 62.7194 61.1674 67.3094C60.8274 67.9894 60.8274 69.3494 59.9774 69.1794C59.2974 69.0094 59.2974 67.6494 59.4674 67.3094C60.6574 62.2094 63.3774 58.1294 66.4374 54.7294C74.4274 46.0594 85.4774 41.8094 97.5474 41.8094C111.827 41.8094 124.577 47.4194 131.207 59.9994C141.407 49.1194 152.117 37.2194 159.937 27.3594C164.017 22.0894 167.757 16.6494 170.307 11.8894ZM135.117 80.0594C135.287 78.5294 135.117 76.1494 134.777 74.4494C132.567 76.6594 129.677 79.2094 127.127 81.7594C111.997 95.5294 101.967 104.029 90.5774 113.889C87.3474 116.609 83.7774 120.689 83.7774 122.219C84.1174 124.599 88.0274 124.259 93.1274 121.879C107.747 115.249 118.797 108.449 130.357 99.9494C133.077 93.3194 134.607 87.5394 135.117 80.0594ZM237.172 70.7094C242.612 73.4294 239.552 86.3494 225.272 100.799C209.122 117.289 195.862 123.069 189.062 121.369C178.862 118.819 178.012 102.839 192.802 87.8794C210.142 70.3694 230.032 66.9694 237.172 70.7094ZM236.152 72.7494C232.582 69.8594 218.472 79.8894 202.832 96.0394C192.972 106.409 184.982 116.269 189.572 118.989C193.652 121.369 206.572 110.659 222.042 95.0194C228.842 88.2194 239.212 75.2994 236.152 72.7494ZM313.065 70.0294C298.445 83.4594 284.675 98.0794 278.725 105.389C273.285 111.849 269.545 116.779 272.095 117.969C274.645 119.159 283.655 112.699 287.735 109.469C293.175 105.219 299.465 99.9494 304.225 95.6994C304.565 95.3594 305.585 94.3394 306.435 95.1894C307.115 95.6994 306.605 96.5494 305.925 97.2294C300.655 101.989 293.175 108.279 289.605 111.169C281.785 117.289 275.325 121.539 269.205 121.539C260.535 121.539 258.835 114.739 263.935 105.899C261.725 108.109 259.345 110.149 257.985 111.169C251.525 116.439 244.045 121.879 236.905 121.709C229.935 121.369 227.895 115.929 229.595 111.169C231.125 106.239 235.035 100.459 241.325 94.1694C247.955 87.1994 259.685 77.8494 266.485 73.7694C269.205 72.2394 277.195 71.0494 282.975 71.0494C267.845 83.4594 252.885 98.0794 246.935 105.389C241.665 111.849 238.945 116.099 241.325 117.459C244.045 118.819 251.185 113.719 256.795 109.299C263.255 104.029 270.225 97.0594 272.945 94.1694C279.745 87.1994 291.645 75.8094 298.445 71.8994C300.995 70.5394 308.985 69.6894 313.065 70.0294ZM413.548 71.3894C401.988 81.7594 389.918 93.4894 383.628 100.629C378.018 107.259 358.468 130.379 340.448 143.979C319.368 160.129 291.828 169.309 273.468 168.459C258.338 167.779 249.158 159.959 252.388 146.359C253.748 140.409 259.018 134.459 261.738 132.079C263.438 130.719 265.988 129.019 266.838 130.209C267.348 131.059 265.648 131.909 263.948 133.439C260.038 137.009 256.808 142.109 255.618 146.359C252.898 156.729 258.678 165.059 272.618 165.739C293.018 166.759 313.418 153.329 328.888 141.429C337.728 134.629 355.238 117.969 365.778 106.409L365.098 106.069C353.538 116.439 344.868 121.709 340.278 121.199C328.718 120.179 332.118 101.479 344.188 89.4094C359.828 73.4294 383.968 66.2894 391.278 70.5394C393.658 71.7294 394.678 75.8094 388.048 82.0994L388.558 82.4394C393.828 78.0194 398.758 73.9394 401.138 72.9194C404.708 71.5594 409.638 71.0494 413.548 71.3894ZM389.918 72.7494C386.688 70.1994 373.598 78.6994 355.578 95.8694C345.038 105.899 337.048 116.949 340.958 118.649C344.188 120.179 358.978 109.639 373.428 94.8494C380.058 88.2194 393.488 75.4694 389.918 72.7494ZM452.992 70.7094C458.432 73.4294 455.372 86.3494 441.092 100.799C424.942 117.289 411.682 123.069 404.882 121.369C394.682 118.819 393.832 102.839 408.622 87.8794C425.962 70.3694 445.852 66.9694 452.992 70.7094ZM451.972 72.7494C448.402 69.8594 434.292 79.8894 418.652 96.0394C408.792 106.409 400.802 116.269 405.392 118.989C409.472 121.369 422.392 110.659 437.862 95.0194C444.662 88.2194 455.032 75.2994 451.972 72.7494ZM566.117 71.3894C554.557 81.7594 542.487 93.4894 536.197 100.629C530.587 107.259 511.037 130.379 493.017 143.979C471.937 160.129 444.397 169.309 426.037 168.459C410.907 167.779 401.727 159.959 404.957 146.359C406.317 140.409 411.587 134.459 414.307 132.079C416.007 130.719 418.557 129.019 419.407 130.209C419.917 131.059 418.217 131.909 416.517 133.439C412.607 137.009 409.377 142.109 408.187 146.359C405.467 156.729 411.247 165.059 425.187 165.739C445.587 166.759 465.987 153.329 481.457 141.429C490.297 134.629 507.807 117.969 518.347 106.409L517.667 106.069C506.107 116.439 497.437 121.709 492.847 121.199C481.287 120.179 484.687 101.479 496.757 89.4094C512.397 73.4294 536.537 66.2894 543.847 70.5394C546.227 71.7294 547.247 75.8094 540.617 82.0994L541.127 82.4394C546.397 78.0194 551.327 73.9394 553.707 72.9194C557.277 71.5594 562.207 71.0494 566.117 71.3894ZM542.487 72.7494C539.257 70.1994 526.167 78.6994 508.147 95.8694C497.607 105.899 489.617 116.949 493.527 118.649C496.757 120.179 511.547 109.639 525.997 94.8494C532.627 88.2194 546.057 75.4694 542.487 72.7494ZM597.571 70.3694C582.951 83.4594 567.651 99.2694 561.701 106.239C556.431 112.359 553.201 117.629 555.751 118.989C558.471 120.179 567.821 114.059 572.581 110.489C578.361 106.239 586.861 98.9294 590.431 95.6994C591.281 95.0194 592.131 94.3394 592.811 95.3594C593.151 96.0394 592.981 96.7194 592.131 97.3994C587.541 101.479 577.681 109.639 574.111 112.359C568.501 116.439 560.341 121.709 555.411 121.709C544.021 121.709 543.001 108.619 555.751 95.1894C562.381 88.2194 575.471 75.8094 582.271 72.0694C584.821 70.7094 595.361 70.1994 597.571 70.3694ZM608.451 56.2594C608.451 59.9994 605.391 63.0594 601.651 63.0594C597.911 63.0594 594.851 59.9994 594.851 56.2594C594.851 52.5194 597.911 49.4594 601.651 49.4594C605.391 49.4594 608.451 52.5194 608.451 56.2594ZM650.624 76.6594C650.284 79.0394 647.734 81.2494 646.884 81.0794C646.204 80.9094 645.354 80.0594 644.334 79.3794C642.634 78.3594 641.784 77.8494 639.064 77.6794C630.734 77.3394 616.454 86.8594 604.894 97.7394C594.014 108.109 589.254 113.889 583.304 121.879C580.244 121.879 577.524 115.419 579.564 111.509C583.134 104.879 589.594 96.2094 598.604 86.8594C604.044 80.9094 608.294 77.5094 612.374 74.9594C617.814 71.3894 625.634 70.3694 631.244 70.3694C624.104 75.1294 614.414 83.6294 607.104 92.1294L607.614 92.6394C616.964 84.4794 635.834 68.6694 645.864 70.5394C649.434 71.2194 650.794 73.5994 650.624 76.6594ZM748.728 22.2594C756.038 22.0894 768.448 23.9594 770.658 31.4394C770.998 32.4594 770.318 33.9894 769.128 34.1594C768.618 34.1594 767.768 33.1394 766.918 32.4594C761.818 27.0194 755.188 24.9794 748.048 24.9794C736.488 24.9794 723.908 31.2694 713.708 38.9194C698.238 50.4794 681.578 66.4594 662.538 86.0094C648.768 100.119 634.148 116.439 637.548 118.819C639.418 120.179 645.708 116.949 654.208 110.999C659.138 107.599 668.488 99.6094 672.568 96.0394C673.248 95.5294 674.268 94.5094 675.118 95.3594C675.968 96.0394 675.118 96.7194 674.268 97.3994C670.358 101.139 661.178 108.959 654.888 113.379C646.218 119.499 639.758 122.729 634.998 121.539C629.558 120.179 627.008 113.719 631.428 105.729C634.658 99.7794 642.648 90.7694 653.358 79.8894C671.718 61.1894 689.908 45.5494 701.638 38.2394C713.878 30.5894 732.918 22.4294 748.728 22.2594ZM752.224 32.4594C754.944 34.1594 756.644 39.2594 752.904 42.9994C736.584 59.8294 710.234 81.0794 690.854 99.6094C689.324 100.969 686.604 104.199 685.584 103.519C684.224 102.499 686.264 100.799 688.134 98.2494C705.134 77.3394 717.884 61.3594 734.374 42.9994C741.684 34.8394 747.634 29.3994 752.224 32.4594ZM683.034 115.249C683.034 118.819 680.144 121.709 676.574 121.709C673.004 121.709 670.114 118.819 670.114 115.249C670.114 111.679 673.004 108.789 676.574 108.789C680.144 108.789 683.034 111.679 683.034 115.249Z" fill="#F2E772"/>
<path d="M3.53738 137.349L0.595642 136.761L0.592255 136.778L0.58905 136.795L3.53738 137.349ZM15.6074 117.119L17.4451 119.491L18.9135 118.353L18.5491 116.531L15.6074 117.119ZM14.2474 105.899L11.2488 105.992L11.2495 106.014L11.2505 106.036L14.2474 105.899ZM45.8674 39.2594L47.8225 41.5348L47.8309 41.5276L47.8393 41.5203L45.8674 39.2594ZM171.327 9.50943L170.57 12.4123L173.286 13.1208L174.173 10.4581L171.327 9.50943ZM174.387 3.04942L174.784 0.0757446L174.216 -7.62939e-06L173.66 0.138992L174.387 3.04942ZM181.357 11.8894L178.385 12.2948L178.621 14.026L180.243 14.6749L181.357 11.8894ZM189.177 15.2894L187.336 17.6575L187.447 17.7444L187.567 17.8204L189.177 15.2894ZM191.387 18.8594L192.729 21.5427L193.013 21.4006L193.261 21.202L191.387 18.8594ZM188.667 17.6694L187.003 20.1656L187.089 20.2229L187.179 20.2742L188.667 17.6694ZM181.187 14.4394L182.049 11.5659L178.403 10.4721L178.192 14.273L181.187 14.4394ZM177.277 25.3194L174.781 23.6553L174.765 23.6796L174.749 23.7043L177.277 25.3194ZM137.667 71.8994L135.556 69.7684L134.409 70.9048L134.726 72.4878L137.667 71.8994ZM138.347 79.8894L135.362 79.5909L135.355 79.6632L135.351 79.7358L138.347 79.8894ZM135.457 96.3794L132.603 95.456L129.653 104.573L137.276 98.7657L135.457 96.3794ZM157.727 78.6994L155.839 76.3684L155.823 76.3815L155.807 76.3948L157.727 78.6994ZM222.667 27.8694L224.406 30.3145L224.414 30.3089L222.667 27.8694ZM307.837 18.6894L305.13 19.9808L305.142 20.0061L305.154 20.0311L307.837 18.6894ZM307.837 20.3894L308.786 23.2355L308.988 23.168L309.179 23.0727L307.837 20.3894ZM306.647 19.8794L304.373 21.8362L304.447 21.9213L304.526 22.0008L306.647 19.8794ZM212.637 42.4894L214.718 44.6511L214.721 44.6482L212.637 42.4894ZM180.847 86.0094L183.21 87.8584L183.212 87.8552L180.847 86.0094ZM134.097 134.969L132.211 132.637L132.209 132.638L134.097 134.969ZM208.047 43.1694L210.111 45.3473L206.304 40.7282L208.047 43.1694ZM165.547 76.8294L163.702 74.4639L163.695 74.4693L163.688 74.4748L165.547 76.8294ZM134.437 100.629L132.709 98.1777L132.021 98.6628L131.685 99.4352L134.437 100.629ZM57.9374 147.039L58.0151 144.04L58.0105 144.04L57.9374 147.039ZM16.1174 119.159L19.0296 118.439L17.7774 113.378L14.0311 117.004L16.1174 119.159ZM6.59738 137.179L3.65961 136.572L3.65704 136.584L3.65457 136.596L6.59738 137.179ZM124.747 128.339L126.68 130.634L126.685 130.63L124.747 128.339ZM164.187 89.0694L166.374 91.1235L166.382 91.1146L164.187 89.0694ZM170.307 11.8894L172.952 13.3061L174.835 9.79146L170.936 8.95602L170.307 11.8894ZM143.447 10.3594L143.477 13.3593L143.488 13.3592L143.447 10.3594ZM52.4974 46.2294L50.5406 43.9554L50.53 43.9646L50.5194 43.9739L52.4974 46.2294ZM57.9374 144.489L57.8458 147.488L57.8507 147.488L57.9374 144.489ZM128.827 104.199L131.487 105.586L127.132 101.724L128.827 104.199ZM90.0674 125.449L89.0485 122.628L89.0369 122.632L89.0255 122.636L90.0674 125.449ZM74.7674 125.279L72.4627 127.2L72.47 127.209L72.4772 127.217L74.7674 125.279ZM79.1874 109.299L77.1534 107.094L77.1423 107.104L77.1313 107.115L79.1874 109.299ZM120.837 70.5394L122.876 72.7403L122.918 72.7013L122.959 72.6608L120.837 70.5394ZM128.997 62.3794L131.119 64.5008L132.605 63.0149L131.716 61.1108L128.997 62.3794ZM67.9674 56.4294L65.8032 54.3518L65.7947 54.3607L65.7864 54.3696L67.9674 56.4294ZM61.1674 67.3094L63.8506 68.6511L63.946 68.4604L64.0134 68.2581L61.1674 67.3094ZM59.9774 69.1794L59.2498 72.0899L59.319 72.1072L59.389 72.1212L59.9774 69.1794ZM59.4674 67.3094L62.1507 68.6511L62.3087 68.3351L62.3889 67.9911L59.4674 67.3094ZM66.4374 54.7294L64.2313 52.6964L64.2194 52.7094L64.2075 52.7225L66.4374 54.7294ZM131.207 59.9994L128.553 61.3981L130.516 65.1228L133.396 62.0513L131.207 59.9994ZM159.937 27.3594L162.288 29.2236L162.299 29.2098L162.31 29.1959L159.937 27.3594ZM135.117 80.0594L132.136 79.7281L132.129 79.7916L132.124 79.8554L135.117 80.0594ZM134.777 74.4494L137.719 73.8611L136.62 68.3644L132.656 72.3281L134.777 74.4494ZM127.127 81.7594L129.147 83.9781L129.199 83.9306L129.249 83.8808L127.127 81.7594ZM90.5774 113.889L92.5098 116.184L92.5255 116.171L92.5409 116.158L90.5774 113.889ZM83.7774 122.219H80.7774V122.433L80.8076 122.644L83.7774 122.219ZM93.1274 121.879L91.8884 119.147L91.8735 119.154L91.8588 119.161L93.1274 121.879ZM130.357 99.9494L132.135 102.366L132.813 101.867L133.133 101.088L130.357 99.9494ZM3.53738 137.349L6.47913 137.938C6.92081 135.729 8.12012 132.272 10.042 128.728C11.9654 125.182 14.4868 121.783 17.4451 119.491L15.6074 117.119L13.7697 114.748C9.92798 117.725 6.92435 121.892 4.76779 125.868C2.60965 129.847 1.17395 133.869 0.595642 136.761L3.53738 137.349ZM15.6074 117.119L18.5491 116.531C17.8988 113.279 17.4073 109.35 17.2443 105.763L14.2474 105.899L11.2505 106.036C11.4274 109.928 11.956 114.16 12.6656 117.708L15.6074 117.119ZM14.2474 105.899L17.246 105.807C16.5947 84.6402 25.5398 60.6815 47.8225 41.5348L45.8674 39.2594L43.9122 36.984C20.295 57.2774 10.5401 82.9587 11.2488 105.992L14.2474 105.899ZM45.8674 39.2594L47.8393 41.5203C69.8112 22.3569 105.281 9.44943 144.127 9.44943V6.44943V3.44943C104.094 3.44943 67.1436 16.722 43.8955 36.9985L45.8674 39.2594ZM144.127 6.44943V9.44943C155.816 9.44943 163.037 10.447 170.57 12.4123L171.327 9.50943L172.085 6.60658C163.978 4.49184 156.239 3.44943 144.127 3.44943V6.44943ZM171.327 9.50943L174.173 10.4581C174.933 8.18017 175.479 6.7584 175.882 5.91829C175.978 5.71759 176.056 5.57134 176.116 5.46834C176.177 5.36272 176.207 5.32539 176.202 5.33198C176.2 5.3341 176.128 5.42765 175.977 5.54681C175.821 5.66884 175.534 5.85522 175.115 5.95985L174.387 3.04942L173.66 0.138992C172.522 0.423462 171.821 1.19296 171.474 1.63812C171.082 2.13966 170.755 2.73215 170.471 3.32557C169.896 4.52546 169.252 6.2487 168.481 8.56075L171.327 9.50943ZM174.387 3.04942L173.991 6.02311C173.897 6.01054 174.13 6.0334 174.675 6.444C175.169 6.8166 175.738 7.37243 176.295 8.06851C177.457 9.52067 178.229 11.1485 178.385 12.2948L181.357 11.8894L184.33 11.4841C183.976 8.89039 182.538 6.2682 180.98 4.32034C180.177 3.31644 179.258 2.38476 178.286 1.65235C177.365 0.957954 176.153 0.258308 174.784 0.0757446L174.387 3.04942ZM181.357 11.8894L180.243 14.6749C181.127 15.0283 181.972 15.3465 182.746 15.6365C183.532 15.9307 184.226 16.1894 184.862 16.4417C186.198 16.9716 186.941 17.3508 187.336 17.6575L189.177 15.2894L191.019 12.9214C189.883 12.038 188.417 11.3972 187.075 10.8647C186.372 10.5857 185.611 10.3025 184.851 10.0177C184.079 9.72861 183.288 9.4306 182.472 9.104L181.357 11.8894ZM189.177 15.2894L187.567 17.8204C188.252 18.2562 188.655 18.6963 188.781 18.8921C188.855 19.006 188.705 18.8325 188.673 18.4144C188.654 18.1769 188.673 17.8346 188.824 17.4538C188.981 17.0599 189.232 16.7417 189.513 16.5168L191.387 18.8594L193.261 21.202C194.359 20.3244 194.741 19.0659 194.655 17.9498C194.58 16.9845 194.175 16.1841 193.823 15.6393C193.1 14.5175 191.973 13.5126 190.788 12.7584L189.177 15.2894ZM191.387 18.8594L190.046 16.1761C190.307 16.0453 190.587 15.9694 190.861 15.9453C191.126 15.922 191.342 15.9507 191.485 15.9821C191.624 16.0126 191.713 16.0494 191.737 16.0601C191.763 16.0712 191.756 16.0703 191.707 16.0422C191.587 15.9738 191.443 15.8786 191.151 15.686C190.893 15.5158 190.545 15.2873 190.156 15.0647L188.667 17.6694L187.179 20.2742C187.384 20.3915 187.589 20.5243 187.847 20.6941C188.07 20.8416 188.404 21.065 188.73 21.2517C189.181 21.5095 190.867 22.4737 192.729 21.5427L191.387 18.8594ZM188.667 17.6694L190.331 15.1733C188.478 13.9377 185.631 12.6403 182.049 11.5659L181.187 14.4394L180.325 17.3129C183.544 18.2785 185.797 19.3611 187.003 20.1656L188.667 17.6694ZM181.187 14.4394L178.192 14.273C178.132 15.3614 177.698 17.1158 176.991 19.0336C176.295 20.9238 175.456 22.6438 174.781 23.6553L177.277 25.3194L179.774 26.9835C180.799 25.4451 181.83 23.2551 182.621 21.1078C183.402 18.9881 184.073 16.5774 184.183 14.6059L181.187 14.4394ZM177.277 25.3194L174.749 23.7043C167.092 35.6898 154.168 51.3255 135.556 69.7684L137.667 71.8994L139.779 74.0304C158.567 55.4134 171.823 39.429 179.805 26.9346L177.277 25.3194ZM137.667 71.8994L134.726 72.4878C135.211 74.9151 135.489 78.3202 135.362 79.5909L138.347 79.8894L141.333 80.1879C141.545 78.0587 141.144 73.9837 140.609 71.3111L137.667 71.8994ZM138.347 79.8894L135.351 79.7358C135.023 86.1469 134.38 89.963 132.603 95.456L135.457 96.3794L138.312 97.3029C140.275 91.2358 140.992 86.892 141.343 80.0431L138.347 79.8894ZM135.457 96.3794L137.276 98.7657C144.425 93.3188 148.376 90.397 159.648 81.0041L157.727 78.6994L155.807 76.3948C144.638 85.7019 140.77 88.5601 133.639 93.9931L135.457 96.3794ZM157.727 78.6994L159.616 81.0305C173.117 70.0931 195.097 51.1524 224.406 30.3144L222.667 27.8694L220.929 25.4244C191.418 46.4065 169.198 65.5458 155.839 76.3684L157.727 78.6994ZM222.667 27.8694L224.414 30.3089C232.367 24.6159 242.057 18.6886 251.957 14.1963C261.904 9.68266 271.82 6.72942 280.297 6.72942V3.72942V0.729424C270.585 0.729424 259.761 4.06618 249.478 8.73254C239.147 13.4203 229.118 19.563 220.921 25.43L222.667 27.8694ZM280.297 3.72942V6.72942C289.952 6.72942 300.575 10.4313 305.13 19.9808L307.837 18.6894L310.545 17.398C304.56 4.84759 291.043 0.729424 280.297 0.729424V3.72942ZM307.837 18.6894L305.154 20.0311C305.249 20.2202 305.286 20.2985 305.31 20.3543C305.336 20.417 305.281 20.3071 305.25 20.0912C305.217 19.8569 305.192 19.353 305.466 18.7816C305.753 18.1805 306.202 17.8531 306.496 17.7061L307.837 20.3894L309.179 23.0727C309.813 22.7557 310.474 22.2158 310.878 21.3704C311.269 20.5546 311.266 19.7744 311.19 19.2427C311.063 18.358 310.615 17.5356 310.521 17.3477L307.837 18.6894ZM307.837 20.3894L306.889 17.5434C307.157 17.454 307.487 17.4075 307.847 17.4513C308.196 17.4939 308.465 17.6084 308.636 17.7032C308.794 17.7914 308.883 17.8707 308.885 17.873C308.89 17.877 308.884 17.8722 308.863 17.8515C308.84 17.8292 308.814 17.8035 308.769 17.7581L306.647 19.8794L304.526 22.0008C304.623 22.0978 305.094 22.5992 305.722 22.9482C306.535 23.3999 307.618 23.6247 308.786 23.2355L307.837 20.3894ZM306.647 19.8794L308.921 17.9227C305.206 13.6049 299.809 11.2216 294.57 9.89497C289.291 8.55828 283.836 8.20943 279.617 8.20943V11.2094V14.2094C283.558 14.2094 288.474 14.5406 293.097 15.7114C297.761 16.8923 301.799 18.844 304.373 21.8362L306.647 19.8794ZM279.617 11.2094V8.20943C259.701 8.20943 235.348 16.4037 210.554 40.3307L212.637 42.4894L214.721 44.6482C238.547 21.6552 261.453 14.2094 279.617 14.2094V11.2094ZM212.637 42.4894L210.557 40.3277C205.788 44.9166 199.023 54.3352 192.932 63.1863C186.693 72.2544 181.13 80.7712 178.482 84.1636L180.847 86.0094L183.212 87.8552C186.005 84.2777 191.832 75.3695 197.875 66.5875C204.067 57.5887 210.476 48.7322 214.718 44.6511L212.637 42.4894ZM180.847 86.0094L178.485 84.1605C163.283 103.585 147.119 120.577 132.211 132.637L134.097 134.969L135.984 137.302C151.336 124.882 167.812 107.534 183.21 87.8584L180.847 86.0094ZM134.097 134.969L132.209 132.638C102.247 156.909 74.1696 166.649 43.9974 166.649V169.649V172.649C75.7051 172.649 105.087 162.33 135.986 137.301L134.097 134.969ZM43.9974 169.649V166.649C30.2435 166.649 19.9643 163.612 13.6452 158.607C7.51706 153.752 4.80872 146.822 6.48572 137.904L3.53738 137.349L0.58905 136.795C-1.47394 147.766 1.93771 156.987 9.91956 163.31C17.7104 169.481 29.5313 172.649 43.9974 172.649V169.649ZM208.047 43.1694L206.304 40.7282C190.797 51.8043 171.976 68.0105 163.702 74.4639L165.547 76.8294L167.392 79.1949C176.119 72.3883 194.358 56.6346 209.791 45.6106L208.047 43.1694ZM165.547 76.8294L163.688 74.4748C153.951 82.1623 145.883 88.8883 132.709 98.1777L134.437 100.629L136.166 103.081C149.512 93.6705 157.764 86.7966 167.406 79.1841L165.547 76.8294ZM134.437 100.629L131.685 99.4352C120.474 125.27 89.684 144.861 58.0151 144.04L57.9374 147.039L57.8597 150.038C91.8108 150.918 124.941 130.049 137.189 101.824L134.437 100.629ZM57.9374 147.039L58.0105 144.04C37.9603 143.551 22.6801 133.193 19.0296 118.439L16.1174 119.159L13.2052 119.88C17.7146 138.106 36.0945 149.508 57.8642 150.039L57.9374 147.039ZM16.1174 119.159L14.0311 117.004C8.19748 122.649 4.75861 131.26 3.65961 136.572L6.59738 137.179L9.53516 137.787C10.4762 133.239 13.4973 125.87 18.2036 121.315L16.1174 119.159ZM6.59738 137.179L3.65457 136.596C1.66638 146.632 4.72766 155.058 11.9522 160.818C18.9803 166.421 29.6157 169.249 42.4674 169.249V166.249V163.249C30.3291 163.249 21.2444 160.553 15.6926 156.126C10.3371 151.856 7.95837 145.747 9.54019 137.762L6.59738 137.179ZM42.4674 166.249V169.249C72.815 169.249 101.736 151.649 126.68 130.634L124.747 128.339L122.815 126.045C98.1193 146.85 70.5997 163.249 42.4674 163.249V166.249ZM124.747 128.339L126.685 130.63C142.321 117.399 155.897 102.276 166.374 91.1235L164.187 89.0694L162.001 87.0154C151.397 98.3029 138.114 113.099 122.81 126.049L124.747 128.339ZM164.187 89.0694L166.382 91.1146C180.365 76.1082 200.508 54.4445 210.111 45.3473L208.047 43.1694L205.984 40.9916C196.207 50.2543 175.889 72.1107 161.993 87.0243L164.187 89.0694ZM170.307 11.8894L170.936 8.95602C163.426 7.34666 155.973 7.18989 143.407 7.3597L143.447 10.3594L143.488 13.3592C156.082 13.189 162.909 13.3722 169.679 14.8228L170.307 11.8894ZM143.447 10.3594L143.418 7.35957C107.881 7.70797 72.8824 24.7311 50.5406 43.9554L52.4974 46.2294L54.4541 48.5035C75.9723 29.9878 109.654 13.6909 143.477 13.3593L143.447 10.3594ZM52.4974 46.2294L50.5194 43.9739C28.0554 63.6731 15.3274 88.057 15.3274 106.239H18.3274H21.3274C21.3274 90.4218 32.7393 67.5458 54.4753 48.485L52.4974 46.2294ZM18.3274 106.239H15.3274C15.3274 119.802 19.9388 130.066 27.7985 136.987C35.5884 143.847 46.2374 147.134 57.8458 147.488L57.9374 144.489L58.0289 141.491C47.3674 141.165 38.2114 138.162 31.7638 132.484C25.386 126.868 21.3274 118.347 21.3274 106.239H18.3274ZM57.9374 144.489L57.8507 147.488C88.3731 148.37 118.53 130.437 131.487 105.586L128.827 104.199L126.167 102.812C114.305 125.562 86.3217 142.309 58.024 141.491L57.9374 144.489ZM128.827 104.199L127.132 101.724C114.793 110.176 100.93 118.337 89.0485 122.628L90.0674 125.449L91.0863 128.271C103.684 123.722 118.042 115.223 130.523 106.675L128.827 104.199ZM90.0674 125.449L89.0255 122.636C86.6704 123.508 84.1296 124.425 81.7798 124.676C79.4728 124.923 78.0115 124.469 77.0576 123.342L74.7674 125.279L72.4772 127.217C75.2632 130.51 79.157 130.991 82.4174 130.642C85.6352 130.299 88.8744 129.09 91.1093 128.263L90.0674 125.449ZM74.7674 125.279L77.072 123.359C76.6647 122.87 76.1736 121.379 76.7714 118.88C77.3331 116.53 78.7688 113.813 81.2435 111.484L79.1874 109.299L77.1313 107.115C73.826 110.226 71.7766 113.968 70.9359 117.484C70.1311 120.85 70.32 124.629 72.4627 127.2L74.7674 125.279ZM79.1874 109.299L81.2213 111.505C98.7053 95.3786 106.785 87.6453 122.876 72.7403L120.837 70.5394L118.799 68.3386C102.589 83.3536 94.6895 90.9202 77.1534 107.094L79.1874 109.299ZM120.837 70.5394L122.959 72.6608C124.659 70.9608 129.249 66.3708 131.119 64.5008L128.997 62.3794L126.876 60.2581C125.006 62.1281 120.416 66.7181 118.716 68.4181L120.837 70.5394ZM128.997 62.3794L131.716 61.1108C125.114 46.963 110.352 41.3594 97.8874 41.3594V44.3594V47.3594C108.883 47.3594 120.981 52.2958 126.279 63.6481L128.997 62.3794ZM97.8874 44.3594V41.3594C86.5342 41.3594 74.6389 45.148 65.8032 54.3518L67.9674 56.4294L70.1315 58.507C77.6159 50.7108 87.8206 47.3594 97.8874 47.3594V44.3594ZM67.9674 56.4294L65.7864 54.3696C62.7108 57.626 60.0339 61.223 58.3214 66.3607L61.1674 67.3094L64.0134 68.2581C65.3608 64.2159 67.4439 61.3529 70.1484 58.4893L67.9674 56.4294ZM61.1674 67.3094L58.4841 65.9678C58.2522 66.4316 58.1224 66.9093 58.0665 67.1113C58.0241 67.2642 58.0094 67.3216 57.982 67.4171C57.9714 67.4541 57.9633 67.4807 57.9572 67.5002C57.951 67.5198 57.9481 67.5274 57.9486 67.5261C57.949 67.5249 57.9548 67.5092 57.9667 67.4827C57.9784 67.4565 57.9993 67.4126 58.0312 67.3567C58.0904 67.2527 58.2188 67.0519 58.4491 66.8412C58.6947 66.6164 59.0383 66.3984 59.4732 66.2804C59.9039 66.1636 60.2871 66.182 60.5657 66.2377L59.9774 69.1794L59.389 72.1212C60.5083 72.345 61.6462 72.0483 62.4991 71.268C63.1669 70.6571 63.459 69.9249 63.5787 69.6003C63.7088 69.247 63.8132 68.8414 63.8486 68.7135C63.9148 68.4745 63.9126 68.5272 63.8506 68.6511L61.1674 67.3094ZM59.9774 69.1794L60.705 66.269C61.5317 66.4757 61.9837 67.0236 62.1671 67.3327C62.3339 67.6139 62.3637 67.82 62.3669 67.8403C62.3738 67.8837 62.374 67.9092 62.3714 67.9444C62.3699 67.9649 62.3649 68.0204 62.3466 68.1062C62.334 68.165 62.287 68.3785 62.1507 68.6511L59.4674 67.3094L56.7841 65.9678C56.4757 66.5846 56.4099 67.2059 56.3881 67.4979C56.3589 67.889 56.3698 68.3289 56.4403 68.7761C56.5073 69.2001 56.654 69.7994 57.0067 70.3939C57.3761 71.0165 58.083 71.7982 59.2498 72.0899L59.9774 69.1794ZM59.4674 67.3094L62.3889 67.9911C63.4247 63.5518 65.8082 59.913 68.6673 56.7363L66.4374 54.7294L64.2075 52.7225C60.9465 56.3458 57.89 60.867 56.5459 66.6277L59.4674 67.3094ZM66.4374 54.7294L68.6434 56.7625C75.9898 48.7909 86.197 44.8094 97.5474 44.8094V41.8094V38.8094C84.7578 38.8094 72.8649 43.328 64.2313 52.6964L66.4374 54.7294ZM97.5474 41.8094V44.8094C111.055 44.8094 122.584 50.0717 128.553 61.3981L131.207 59.9994L133.861 58.6007C126.571 44.7671 112.6 38.8094 97.5474 38.8094V41.8094ZM131.207 59.9994L133.396 62.0513C143.612 51.1545 154.389 39.1825 162.288 29.2236L159.937 27.3594L157.587 25.4952C149.845 35.2563 139.203 47.0843 129.019 57.9476L131.207 59.9994ZM159.937 27.3594L162.31 29.1959C166.442 23.8583 170.292 18.2711 172.952 13.3061L170.307 11.8894L167.663 10.4728C165.223 15.0278 161.593 20.3206 157.565 25.5229L159.937 27.3594ZM135.117 80.0594L138.099 80.3907C138.312 78.4774 138.102 75.7776 137.719 73.8611L134.777 74.4494L131.836 75.0378C132.132 76.5213 132.263 78.5815 132.136 79.7281L135.117 80.0594ZM134.777 74.4494L132.656 72.3281C131.594 73.3902 130.36 74.5424 129.03 75.7861C127.717 77.0146 126.322 78.3225 125.006 79.6381L127.127 81.7594L129.249 83.8808C130.483 82.6464 131.808 81.4043 133.129 80.1677C134.435 78.9465 135.751 77.7187 136.899 76.5708L134.777 74.4494ZM127.127 81.7594L125.108 79.5407C110.013 93.2788 100.02 101.747 88.6139 111.621L90.5774 113.889L92.5409 116.158C103.914 106.312 113.982 97.7801 129.147 83.9781L127.127 81.7594ZM90.5774 113.889L88.645 111.595C86.9021 113.062 85.0773 114.886 83.6641 116.577C82.9601 117.419 82.3085 118.288 81.8151 119.108C81.5684 119.518 81.3303 119.967 81.1466 120.432C80.9756 120.866 80.7774 121.496 80.7774 122.219H83.7774H86.7774C86.7774 122.56 86.6907 122.729 86.7276 122.635C86.7518 122.574 86.8178 122.432 86.9562 122.202C87.2332 121.741 87.6758 121.133 88.2682 120.424C89.4474 119.013 91.0227 117.436 92.5098 116.184L90.5774 113.889ZM83.7774 122.219L80.8076 122.644C81.0275 124.183 81.9113 125.431 83.244 126.147C84.4166 126.778 85.7208 126.887 86.821 126.83C89.0413 126.717 91.7029 125.855 94.3961 124.598L93.1274 121.879L91.8588 119.161C89.4519 120.284 87.6085 120.782 86.5137 120.838C85.9565 120.867 85.9007 120.764 86.0852 120.863C86.4297 121.048 86.6973 121.446 86.7473 121.795L83.7774 122.219ZM93.1274 121.879L94.3664 124.612C109.201 117.884 120.43 110.973 132.135 102.366L130.357 99.9494L128.58 97.5325C117.165 105.926 106.294 112.614 91.8884 119.147L93.1274 121.879ZM130.357 99.9494L133.133 101.088C135.957 94.2053 137.575 88.1099 138.11 80.2635L135.117 80.0594L132.124 79.8554C131.639 86.969 130.198 92.4336 127.582 98.8108L130.357 99.9494ZM237.172 70.7094L235.78 73.3669L235.805 73.3801L235.83 73.3927L237.172 70.7094ZM225.272 100.799L223.138 98.6907L223.129 98.7003L225.272 100.799ZM189.062 121.369L188.334 124.28L189.062 121.369ZM192.802 87.8794L190.67 85.7685L190.668 85.7703L192.802 87.8794ZM236.152 72.7494L238.072 70.4448L238.056 70.4311L238.039 70.4177L236.152 72.7494ZM202.832 96.0394L200.677 93.9524L200.667 93.9623L200.658 93.9722L202.832 96.0394ZM189.572 118.989L188.042 121.57L188.051 121.576L188.06 121.581L189.572 118.989ZM222.042 95.0194L219.921 92.8981L219.915 92.9039L219.909 92.9097L222.042 95.0194ZM237.172 70.7094L235.83 73.3927C236.094 73.5245 236.49 73.8383 236.645 74.9428C236.81 76.1237 236.629 77.9395 235.783 80.3701C234.104 85.1996 230.073 91.6734 223.138 98.6907L225.272 100.799L227.406 102.908C234.751 95.4754 239.39 88.2643 241.45 82.3412C242.475 79.3956 242.931 76.5683 242.587 74.1101C242.231 71.5755 240.97 69.2543 238.513 68.0261L237.172 70.7094ZM225.272 100.799L223.129 98.7003C215.203 106.793 208.091 112.147 202.25 115.258C196.283 118.436 192.1 119.037 189.789 118.459L189.062 121.369L188.334 124.28C192.824 125.402 198.67 123.963 205.071 120.553C211.597 117.077 219.191 111.296 227.415 102.899L225.272 100.799ZM189.062 121.369L189.789 118.459C186.487 117.633 184.252 114.65 184.555 109.453C184.863 104.193 187.896 97.1086 194.935 89.9886L192.802 87.8794L190.668 85.7703C182.917 93.6103 178.981 101.996 178.566 109.103C178.147 116.274 181.437 122.556 188.334 124.28L189.062 121.369ZM192.802 87.8794L194.933 89.9904C203.271 81.5708 212.164 76.6037 219.726 74.1829C223.511 72.9713 226.921 72.4108 229.729 72.3514C232.587 72.291 234.608 72.7529 235.78 73.3669L237.172 70.7094L238.564 68.0519C236.166 66.796 233.023 66.2804 229.602 66.3528C226.13 66.4262 222.145 67.1088 217.897 68.4685C209.395 71.1902 199.672 76.6781 190.67 85.7685L192.802 87.8794ZM236.152 72.7494L238.039 70.4177C236.848 69.4531 235.434 69.2135 234.221 69.2603C233.018 69.3066 231.775 69.6373 230.573 70.0938C228.165 71.0089 225.342 72.6577 222.294 74.7996C216.158 79.1101 208.575 85.7967 200.677 93.9524L202.832 96.0394L204.987 98.1264C212.729 90.1322 220.021 83.7288 225.743 79.7092C228.622 77.6861 230.974 76.36 232.704 75.7026C233.572 75.3728 234.139 75.2679 234.452 75.2558C234.755 75.2441 234.563 75.3232 234.264 75.0812L236.152 72.7494ZM202.832 96.0394L200.658 93.9722C195.725 99.16 191.088 104.394 188.265 108.752C186.88 110.891 185.731 113.117 185.366 115.196C185.177 116.272 185.166 117.488 185.602 118.68C186.06 119.929 186.921 120.906 188.042 121.57L189.572 118.989L191.101 116.409C191.075 116.393 191.182 116.467 191.236 116.616C191.27 116.707 191.207 116.625 191.276 116.233C191.426 115.374 192.03 113.976 193.301 112.014C195.791 108.17 200.079 103.289 205.006 98.1066L202.832 96.0394ZM189.572 118.989L188.06 121.581C189.317 122.314 190.687 122.408 191.872 122.262C193.052 122.116 194.256 121.709 195.424 121.182C197.759 120.13 200.452 118.365 203.357 116.146C209.197 111.684 216.41 104.979 224.175 97.1291L222.042 95.0194L219.909 92.9097C212.204 100.7 205.222 107.17 199.714 111.378C196.945 113.494 194.676 114.938 192.958 115.713C192.099 116.1 191.504 116.261 191.136 116.307C190.773 116.352 190.847 116.26 191.083 116.398L189.572 118.989ZM222.042 95.0194L224.163 97.1408C227.662 93.6421 232.076 88.5768 235.257 84.0039C236.831 81.741 238.215 79.4421 238.992 77.4306C239.377 76.4374 239.696 75.3085 239.703 74.1791C239.711 72.9996 239.362 71.5193 238.072 70.4448L236.152 72.7494L234.231 75.0541C233.707 74.617 233.703 74.0984 233.703 74.14C233.702 74.2318 233.66 74.5838 233.396 75.2667C232.878 76.6073 231.817 78.4417 230.332 80.5775C227.393 84.802 223.222 89.5968 219.921 92.8981L222.042 95.0194ZM313.065 70.0294L315.094 72.2388L320.135 67.6082L313.314 67.0398L313.065 70.0294ZM278.725 105.389L281.02 107.322L281.036 107.303L281.052 107.283L278.725 105.389ZM272.095 117.969L273.364 115.251V115.251L272.095 117.969ZM287.735 109.469L285.888 107.105L285.88 107.111L285.873 107.117L287.735 109.469ZM304.225 95.6994L306.223 97.9372L306.286 97.8807L306.346 97.8207L304.225 95.6994ZM306.435 95.1894L304.314 97.3108L304.464 97.4615L304.635 97.5894L306.435 95.1894ZM305.925 97.2294L307.936 99.4557L307.992 99.4047L308.046 99.3508L305.925 97.2294ZM289.605 111.169L291.454 113.532L291.473 113.517L291.492 113.501L289.605 111.169ZM263.935 105.899L266.533 107.399L261.814 103.778L263.935 105.899ZM257.985 111.169L256.185 108.769L256.136 108.806L256.089 108.845L257.985 111.169ZM236.905 121.709L236.759 124.706L236.796 124.708L236.833 124.709L236.905 121.709ZM229.595 111.169L232.42 112.178L232.441 112.119L232.46 112.059L229.595 111.169ZM241.325 94.1694L243.446 96.2908L243.473 96.2642L243.499 96.2371L241.325 94.1694ZM266.485 73.7694L265.014 71.1547L264.977 71.1753L264.941 71.197L266.485 73.7694ZM282.975 71.0494L284.877 73.369L291.363 68.0494H282.975V71.0494ZM246.935 105.389L249.259 107.286L249.262 107.283L246.935 105.389ZM241.325 117.459L239.836 120.064L239.909 120.105L239.983 120.143L241.325 117.459ZM256.795 109.299L258.651 111.656L258.672 111.64L258.691 111.624L256.795 109.299ZM272.945 94.1694L270.798 92.0745L270.779 92.0937L270.76 92.1133L272.945 94.1694ZM298.445 71.8994L297.033 69.2524L296.991 69.2749L296.949 69.2987L298.445 71.8994ZM313.065 70.0294L311.035 67.8201C296.343 81.3164 282.465 96.0422 276.398 103.496L278.725 105.389L281.052 107.283C286.885 100.117 300.547 85.6025 315.094 72.2388L313.065 70.0294ZM278.725 105.389L276.43 103.457C273.738 106.654 271.277 109.688 269.832 112.127C269.139 113.298 268.455 114.692 268.307 116.096C268.227 116.851 268.284 117.782 268.743 118.698C269.222 119.652 269.993 120.299 270.826 120.688L272.095 117.969L273.364 115.251C273.56 115.342 273.889 115.575 274.106 116.006C274.303 116.399 274.276 116.7 274.273 116.725C274.272 116.741 274.286 116.617 274.41 116.315C274.53 116.025 274.719 115.651 274.995 115.184C276.143 113.245 278.271 110.585 281.02 107.322L278.725 105.389ZM272.095 117.969L270.826 120.688C271.891 121.185 272.977 121.156 273.743 121.05C274.554 120.938 275.368 120.687 276.12 120.397C277.629 119.815 279.296 118.914 280.898 117.942C284.124 115.984 287.503 113.479 289.597 111.822L287.735 109.469L285.873 107.117C283.887 108.689 280.721 111.03 277.785 112.812C276.305 113.71 274.986 114.403 273.961 114.799C273.446 114.997 273.106 115.081 272.92 115.107C272.69 115.139 272.936 115.051 273.364 115.251L272.095 117.969ZM287.735 109.469L289.582 111.834C295.074 107.543 301.414 102.231 306.223 97.9372L304.225 95.6994L302.227 93.4616C297.515 97.6684 291.276 102.896 285.888 107.105L287.735 109.469ZM304.225 95.6994L306.346 97.8207C306.43 97.7374 306.471 97.6976 306.511 97.6646C306.558 97.6257 306.528 97.6594 306.423 97.7094C306.321 97.7578 305.998 97.8918 305.527 97.8521C304.987 97.8066 304.562 97.5593 304.314 97.3108L306.435 95.1894L308.556 93.0681C307.883 92.3946 307.012 91.9561 306.031 91.8733C305.119 91.7964 304.36 92.0473 303.854 92.287C302.916 92.7315 302.238 93.4439 302.104 93.5781L304.225 95.6994ZM306.435 95.1894L304.635 97.5894C304.307 97.3437 303.954 96.908 303.814 96.2988C303.687 95.7469 303.799 95.324 303.861 95.1472C303.923 94.9714 303.984 94.8995 303.958 94.9352C303.939 94.9606 303.891 95.0209 303.804 95.1081L305.925 97.2294L308.046 99.3508C308.489 98.9084 309.167 98.1423 309.519 97.1441C309.709 96.6061 309.863 95.8326 309.662 94.9566C309.448 94.0234 308.903 93.2902 308.235 92.7894L306.435 95.1894ZM305.925 97.2294L303.914 95.0031C298.693 99.7191 291.255 105.974 287.717 108.838L289.605 111.169L291.492 113.501C295.094 110.585 302.617 104.26 307.936 99.4557L305.925 97.2294ZM289.605 111.169L287.756 108.807C283.869 111.849 280.461 114.312 277.333 116.014C274.207 117.716 271.57 118.539 269.205 118.539V121.539V124.539C272.96 124.539 276.613 123.238 280.202 121.284C283.789 119.332 287.521 116.61 291.454 113.532L289.605 111.169ZM269.205 121.539V118.539C267.407 118.539 266.25 118.184 265.545 117.763C264.891 117.373 264.491 116.853 264.271 116.145C263.772 114.538 264.132 111.561 266.533 107.399L263.935 105.899L261.336 104.4C258.638 109.078 257.298 113.921 258.541 117.924C259.192 120.021 260.524 121.753 262.469 122.915C264.361 124.044 266.668 124.539 269.205 124.539V121.539ZM263.935 105.899L261.814 103.778C259.687 105.905 257.413 107.848 256.185 108.769L257.985 111.169L259.785 113.569C261.276 112.451 263.763 110.314 266.056 108.021L263.935 105.899ZM257.985 111.169L256.089 108.845C252.883 111.46 249.565 113.998 246.235 115.861C242.885 117.736 239.782 118.777 236.976 118.71L236.905 121.709L236.833 124.709C241.167 124.812 245.374 123.218 249.165 121.097C252.975 118.966 256.627 116.149 259.881 113.494L257.985 111.169ZM236.905 121.709L237.051 118.713C234.387 118.583 233.155 117.551 232.588 116.582C231.956 115.501 231.804 113.904 232.42 112.178L229.595 111.169L226.77 110.16C225.686 113.194 225.704 116.698 227.409 119.612C229.18 122.637 232.452 124.496 236.759 124.706L236.905 121.709ZM229.595 111.169L232.46 112.059C233.783 107.796 237.31 102.427 243.446 96.2908L241.325 94.1694L239.204 92.0481C232.76 98.4919 228.467 104.682 226.73 110.28L229.595 111.169ZM241.325 94.1694L243.499 96.2371C249.951 89.4533 261.471 80.2761 268.028 76.3419L266.485 73.7694L264.941 71.197C257.898 75.4227 245.958 84.9455 239.151 92.1018L241.325 94.1694ZM266.485 73.7694L267.956 76.3842C268.798 75.9101 270.987 75.2882 274.056 74.7981C276.98 74.3311 280.263 74.0494 282.975 74.0494V71.0494V68.0494C279.907 68.0494 276.305 68.3628 273.109 68.8732C270.057 69.3607 266.891 70.0988 265.014 71.1547L266.485 73.7694ZM282.975 71.0494L281.072 68.7299C265.864 81.2041 250.735 95.9681 244.608 103.496L246.935 105.389L249.262 107.283C255.034 100.191 269.826 85.7147 284.877 73.369L282.975 71.0494ZM246.935 105.389L244.61 103.493C241.988 106.708 239.794 109.612 238.589 111.973C238.001 113.124 237.462 114.494 237.456 115.897C237.453 116.649 237.604 117.476 238.041 118.266C238.483 119.067 239.124 119.657 239.836 120.064L241.325 117.459L242.813 114.855C242.931 114.922 243.136 115.082 243.292 115.364C243.443 115.636 243.456 115.858 243.456 115.92C243.456 115.941 243.48 115.59 243.933 114.701C244.811 112.982 246.612 110.531 249.259 107.286L246.935 105.389ZM241.325 117.459L239.983 120.143C241.747 121.025 243.675 120.656 244.995 120.243C246.449 119.789 247.996 119.013 249.494 118.135C252.507 116.367 255.829 113.88 258.651 111.656L256.795 109.299L254.938 106.943C252.151 109.139 249.098 111.411 246.458 112.959C245.13 113.738 244.032 114.258 243.206 114.516C242.247 114.816 242.263 114.574 242.667 114.776L241.325 117.459ZM256.795 109.299L258.691 111.624C265.289 106.242 272.358 99.1701 275.13 96.2255L272.945 94.1694L270.76 92.1133C268.092 94.9488 261.221 101.817 254.898 106.975L256.795 109.299ZM272.945 94.1694L275.092 96.2644C278.459 92.8137 283.086 88.2708 287.702 84.1168C292.374 79.9117 296.843 76.2813 299.94 74.5001L298.445 71.8994L296.949 69.2987C293.247 71.4276 288.366 75.4472 283.688 79.657C278.954 83.9181 274.231 88.5552 270.798 92.0745L272.945 94.1694ZM298.445 71.8994L299.857 74.5465C300.131 74.4003 300.79 74.1619 301.895 73.9114C302.94 73.6744 304.199 73.4667 305.539 73.3055C308.255 72.9788 311.052 72.8721 312.816 73.0191L313.065 70.0294L313.314 67.0398C310.997 66.8467 307.76 66.9951 304.823 67.3484C303.337 67.5272 301.865 67.7658 300.568 68.06C299.33 68.3407 298.034 68.7185 297.033 69.2524L298.445 71.8994ZM413.548 71.3894L415.551 73.6226L420.704 69.0004L413.808 68.4007L413.548 71.3894ZM383.628 100.629L381.377 98.6463L381.357 98.6688L381.338 98.6916L383.628 100.629ZM340.448 143.979L338.641 141.585L338.632 141.591L338.624 141.598L340.448 143.979ZM273.468 168.459L273.607 165.463L273.603 165.462L273.468 168.459ZM252.388 146.359L255.307 147.053L255.31 147.04L255.313 147.028L252.388 146.359ZM261.738 132.079L259.864 129.737L259.812 129.778L259.763 129.822L261.738 132.079ZM266.838 130.209L269.411 128.666L269.349 128.563L269.279 128.466L266.838 130.209ZM263.948 133.439L261.941 131.21L261.933 131.217L261.925 131.224L263.948 133.439ZM255.618 146.359L252.729 145.551L252.723 145.574L252.716 145.598L255.618 146.359ZM272.618 165.739L272.768 162.743L272.764 162.743L272.618 165.739ZM328.888 141.429L327.059 139.052V139.052L328.888 141.429ZM365.778 106.409L367.995 108.431L370.667 105.5L367.12 103.726L365.778 106.409ZM365.098 106.069L366.44 103.386L364.614 102.473L363.095 103.836L365.098 106.069ZM340.278 121.199L340.609 118.218L340.576 118.214L340.542 118.211L340.278 121.199ZM344.188 89.4094L346.31 91.5308L346.321 91.5193L346.332 91.5078L344.188 89.4094ZM391.278 70.5394L389.77 73.133L389.852 73.1805L389.937 73.2227L391.278 70.5394ZM388.048 82.0994L385.983 79.923L383.256 82.5103L386.384 84.5956L388.048 82.0994ZM388.558 82.4394L386.894 84.9356L388.764 86.1822L390.486 84.738L388.558 82.4394ZM401.138 72.9194L400.07 70.116L400.013 70.1378L399.956 70.162L401.138 72.9194ZM389.918 72.7494L388.059 75.1041L388.08 75.1201L388.1 75.1357L389.918 72.7494ZM355.578 95.8694L357.646 98.0427L357.648 98.0414L355.578 95.8694ZM340.958 118.649L342.242 115.938L342.199 115.918L342.154 115.898L340.958 118.649ZM373.428 94.8494L371.307 92.7281L371.294 92.7404L371.282 92.7529L373.428 94.8494ZM413.548 71.3894L411.545 69.1563C399.955 79.5534 387.783 91.3749 381.377 98.6463L383.628 100.629L385.879 102.613C392.053 95.6039 404.022 83.9655 415.551 73.6226L413.548 71.3894ZM383.628 100.629L381.338 98.6916C375.686 105.371 356.348 128.221 338.641 141.585L340.448 143.979L342.255 146.374C360.589 132.538 380.35 109.148 385.918 102.567L383.628 100.629ZM340.448 143.979L338.624 141.598C317.969 157.422 291.106 166.273 273.607 165.463L273.468 168.459L273.329 171.456C292.551 172.346 320.768 162.836 342.273 146.361L340.448 143.979ZM273.468 168.459L273.603 165.462C266.445 165.141 261.208 163.143 258.152 160.121C255.245 157.246 253.888 153.026 255.307 147.053L252.388 146.359L249.469 145.666C247.658 153.293 249.276 159.783 253.934 164.388C258.443 168.846 265.361 171.098 273.333 171.456L273.468 168.459ZM252.388 146.359L255.313 147.028C255.867 144.605 257.273 142.006 258.985 139.638C260.68 137.293 262.524 135.378 263.714 134.337L261.738 132.079L259.763 129.822C258.232 131.161 256.082 133.411 254.122 136.123C252.178 138.813 250.27 142.164 249.464 145.691L252.388 146.359ZM261.738 132.079L263.612 134.422C264.417 133.778 265.253 133.197 265.876 132.907C266.207 132.752 266.23 132.8 266.025 132.807C265.894 132.811 265.62 132.8 265.285 132.659C264.923 132.507 264.613 132.256 264.397 131.953L266.838 130.209L269.279 128.466C268.331 127.138 266.916 126.772 265.818 126.81C264.844 126.844 263.963 127.178 263.338 127.47C262.048 128.072 260.76 129.02 259.864 129.737L261.738 132.079ZM266.838 130.209L264.266 131.753C264.07 131.426 263.926 130.994 263.93 130.502C263.935 130.035 264.071 129.685 264.17 129.491C264.22 129.393 264.267 129.323 264.296 129.282C264.326 129.24 264.346 129.217 264.349 129.214C264.352 129.211 264.321 129.246 264.229 129.327C264.026 129.508 263.763 129.712 263.33 130.054C262.933 130.367 262.443 130.758 261.941 131.21L263.948 133.439L265.955 135.669C266.303 135.356 266.663 135.067 267.047 134.764C267.395 134.489 267.844 134.141 268.215 133.812C268.545 133.518 269.127 132.975 269.511 132.225C270.005 131.261 270.168 129.928 269.411 128.666L266.838 130.209ZM263.948 133.439L261.925 131.224C257.659 135.119 254.091 140.688 252.729 145.551L255.618 146.359L258.507 147.168C259.526 143.531 262.417 138.9 265.971 135.655L263.948 133.439ZM255.618 146.359L252.716 145.598C251.171 151.488 251.96 157.217 255.553 161.588C259.108 165.913 264.967 168.37 272.472 168.736L272.618 165.739L272.764 162.743C266.329 162.429 262.328 160.381 260.188 157.778C258.087 155.222 257.345 151.601 258.52 147.121L255.618 146.359ZM272.618 165.739L272.468 168.736C283.364 169.28 294.088 165.964 303.927 161.121C313.776 156.273 322.927 149.8 330.717 143.807L328.888 141.429L327.059 139.052C319.379 144.959 310.596 151.151 301.277 155.738C291.949 160.33 282.273 163.218 272.768 162.743L272.618 165.739ZM328.888 141.429L330.717 143.807C339.743 136.864 357.384 120.068 367.995 108.431L365.778 106.409L363.561 104.388C353.092 115.87 335.713 132.395 327.059 139.052L328.888 141.429ZM365.778 106.409L367.12 103.726L366.44 103.386L365.098 106.069L363.757 108.753L364.437 109.093L365.778 106.409ZM365.098 106.069L363.095 103.836C357.386 108.957 352.482 112.735 348.514 115.152C346.53 116.361 344.845 117.189 343.46 117.683C342.045 118.187 341.13 118.276 340.609 118.218L340.278 121.199L339.947 124.181C341.722 124.378 343.611 123.999 345.475 123.335C347.367 122.66 349.432 121.618 351.635 120.277C356.04 117.594 361.25 113.551 367.101 108.303L365.098 106.069ZM340.278 121.199L340.542 118.211C338.592 118.039 337.568 117.218 336.959 116.081C336.255 114.77 335.935 112.681 336.341 109.878C337.149 104.298 340.663 97.1771 346.31 91.5308L344.188 89.4094L342.067 87.2881C335.643 93.7118 331.422 101.976 330.403 109.018C329.895 112.526 330.138 116.058 331.671 118.917C333.298 121.951 336.184 123.85 340.014 124.188L340.278 121.199ZM344.188 89.4094L346.332 91.5078C353.794 83.8836 363.338 78.3273 371.886 75.2062C376.156 73.647 380.089 72.728 383.307 72.4354C386.647 72.1318 388.758 72.5446 389.77 73.133L391.278 70.5394L392.786 67.9459C390.143 66.4093 386.496 66.1208 382.764 66.46C378.912 66.8103 374.462 67.8781 369.828 69.5702C360.568 72.9515 350.222 78.9553 342.044 87.311L344.188 89.4094ZM391.278 70.5394L389.937 73.2227C389.987 73.2481 390.011 73.2745 390.031 73.3136C390.048 73.3479 390.135 73.5365 390.071 73.9872C389.932 74.9733 389.082 76.9836 385.983 79.923L388.048 82.0994L390.113 84.2758C393.645 80.9253 395.599 77.7505 396.012 74.8267C396.458 71.676 395.035 69.0638 392.62 67.8562L391.278 70.5394ZM388.048 82.0994L386.384 84.5956L386.894 84.9356L388.558 82.4394L390.222 79.9433L389.712 79.6033L388.048 82.0994ZM388.558 82.4394L390.486 84.738C393.127 82.5233 395.635 80.4339 397.772 78.7737C400.005 77.0392 401.54 76.0112 402.32 75.6769L401.138 72.9194L399.956 70.162C398.356 70.8477 396.236 72.3696 394.092 74.0351C391.852 75.775 389.26 77.9356 386.63 80.1409L388.558 82.4394ZM401.138 72.9194L402.206 75.7229C405.275 74.554 409.737 74.0694 413.288 74.3782L413.548 71.3894L413.808 68.4007C409.539 68.0295 404.142 68.5649 400.07 70.116L401.138 72.9194ZM389.918 72.7494L391.777 70.3948C390.636 69.4943 389.296 69.2725 388.161 69.308C387.029 69.3433 385.853 69.6366 384.708 70.0489C382.413 70.8751 379.678 72.3868 376.63 74.4183C370.5 78.5052 362.582 85.0525 353.509 93.6975L355.578 95.8694L357.648 98.0414C366.595 89.5164 374.231 83.2286 379.958 79.4106C382.84 77.4896 385.109 76.2813 386.74 75.6943C387.558 75.4 388.076 75.3135 388.348 75.305C388.617 75.2966 388.392 75.3671 388.059 75.1041L389.918 72.7494ZM355.578 95.8694L353.51 93.6962C348.145 98.8013 343.346 104.241 340.355 108.716C338.889 110.909 337.696 113.107 337.203 115.044C336.958 116.011 336.809 117.206 337.142 118.4C337.519 119.752 338.442 120.827 339.762 121.401L340.958 118.649L342.154 115.898C342.497 116.047 342.814 116.405 342.921 116.788C342.984 117.013 342.9 116.987 343.018 116.522C343.254 115.596 343.983 114.086 345.344 112.05C348.005 108.068 352.471 102.968 357.646 98.0427L355.578 95.8694ZM340.958 118.649L339.674 121.361C341.006 121.992 342.416 121.814 343.361 121.596C344.409 121.355 345.535 120.907 346.673 120.354C348.964 119.242 351.727 117.492 354.749 115.296C360.817 110.888 368.253 104.439 375.574 96.9459L373.428 94.8494L371.282 92.7529C364.153 100.05 356.97 106.266 351.222 110.442C348.337 112.539 345.894 114.062 344.051 114.958C343.123 115.409 342.45 115.649 342.015 115.749C341.476 115.873 341.718 115.69 342.242 115.938L340.958 118.649ZM373.428 94.8494L375.549 96.9708C378.8 93.7203 383.938 88.7564 387.774 84.2874C389.674 82.0744 391.421 79.797 392.451 77.7846C392.956 76.7976 393.425 75.6184 393.501 74.3935C393.585 73.0296 393.165 71.4517 391.736 70.3631L389.918 72.7494L388.1 75.1357C387.564 74.7272 387.505 74.1427 387.512 74.0226C387.513 74.0067 387.509 74.0866 387.444 74.2834C387.38 74.475 387.274 74.7296 387.11 75.0508C386.418 76.4013 385.062 78.2357 383.222 80.379C379.579 84.6225 374.686 89.3486 371.307 92.7281L373.428 94.8494ZM452.992 70.7094L451.6 73.3669L451.625 73.3801L451.651 73.3927L452.992 70.7094ZM441.092 100.799L438.958 98.6907L438.949 98.7003L441.092 100.799ZM404.882 121.369L404.155 124.28L404.882 121.369ZM408.622 87.8794L406.49 85.7685L406.489 85.7703L408.622 87.8794ZM451.972 72.7494L453.893 70.4448L453.876 70.4311L453.86 70.4177L451.972 72.7494ZM418.652 96.0394L416.497 93.9524L416.487 93.9623L416.478 93.9722L418.652 96.0394ZM405.392 118.989L403.863 121.57L403.872 121.576L403.881 121.581L405.392 118.989ZM437.862 95.0194L435.741 92.8981L435.735 92.9039L435.729 92.9097L437.862 95.0194ZM452.992 70.7094L451.651 73.3927C451.914 73.5245 452.31 73.8383 452.465 74.9428C452.63 76.1237 452.449 77.9395 451.604 80.3701C449.924 85.1996 445.893 91.6734 438.958 98.6907L441.092 100.799L443.226 102.908C450.571 95.4754 455.21 88.2643 457.271 82.3412C458.295 79.3956 458.751 76.5683 458.407 74.1101C458.052 71.5755 456.79 69.2543 454.334 68.0261L452.992 70.7094ZM441.092 100.799L438.949 98.7003C431.023 106.793 423.912 112.147 418.071 115.258C412.104 118.436 407.92 119.037 405.61 118.459L404.882 121.369L404.155 124.28C408.644 125.402 414.491 123.963 420.891 120.553C427.418 117.077 435.011 111.296 443.235 102.899L441.092 100.799ZM404.882 121.369L405.61 118.459C402.307 117.633 400.072 114.65 400.376 109.453C400.683 104.193 403.716 97.1086 410.756 89.9886L408.622 87.8794L406.489 85.7703C398.738 93.6103 394.801 101.996 394.386 109.103C393.967 116.274 397.257 122.556 404.155 124.28L404.882 121.369ZM408.622 87.8794L410.754 89.9904C419.092 81.5708 427.984 76.6037 435.547 74.1829C439.332 72.9713 442.741 72.4108 445.549 72.3514C448.407 72.291 450.428 72.7529 451.6 73.3669L452.992 70.7094L454.384 68.0519C451.986 66.796 448.843 66.2804 445.422 66.3528C441.951 66.4262 437.965 67.1088 433.718 68.4685C425.215 71.1902 415.493 76.6781 406.49 85.7685L408.622 87.8794ZM451.972 72.7494L453.86 70.4177C452.668 69.4531 451.255 69.2135 450.041 69.2603C448.838 69.3066 447.595 69.6373 446.394 70.0938C443.985 71.0089 441.163 72.6577 438.114 74.7996C431.978 79.1101 424.395 85.7967 416.497 93.9524L418.652 96.0394L420.807 98.1264C428.549 90.1322 435.841 83.7288 441.563 79.7092C444.443 77.6861 446.794 76.36 448.525 75.7026C449.393 75.3728 449.96 75.2679 450.272 75.2558C450.575 75.2441 450.384 75.3232 450.085 75.0812L451.972 72.7494ZM418.652 96.0394L416.478 93.9722C411.545 99.16 406.908 104.394 404.085 108.752C402.7 110.891 401.551 113.117 401.186 115.196C400.997 116.272 400.986 117.488 401.423 118.68C401.88 119.929 402.741 120.906 403.863 121.57L405.392 118.989L406.922 116.409C406.895 116.393 407.002 116.467 407.057 116.616C407.09 116.707 407.027 116.625 407.096 116.233C407.247 115.374 407.85 113.976 409.121 112.014C411.611 108.17 415.899 103.289 420.826 98.1066L418.652 96.0394ZM405.392 118.989L403.881 121.581C405.137 122.314 406.508 122.408 407.692 122.262C408.872 122.116 410.076 121.709 411.244 121.182C413.58 120.13 416.273 118.365 419.177 116.146C425.017 111.684 432.23 104.979 439.995 97.1291L437.862 95.0194L435.729 92.9097C428.024 100.7 421.042 107.17 415.535 111.378C412.765 113.494 410.497 114.938 408.778 115.713C407.92 116.1 407.324 116.261 406.956 116.307C406.593 116.352 406.667 116.26 406.904 116.398L405.392 118.989ZM437.862 95.0194L439.983 97.1408C443.482 93.6421 447.896 88.5768 451.077 84.0039C452.652 81.741 454.035 79.4421 454.813 77.4306C455.197 76.4374 455.516 75.3085 455.523 74.1791C455.531 72.9996 455.182 71.5193 453.893 70.4448L451.972 72.7494L450.052 75.0541C449.527 74.617 449.524 74.0984 449.523 74.14C449.523 74.2318 449.481 74.5838 449.217 75.2667C448.698 76.6073 447.638 78.4417 446.152 80.5775C443.213 84.802 439.042 89.5968 435.741 92.8981L437.862 95.0194ZM566.117 71.3894L568.12 73.6226L573.272 69.0004L566.376 68.4007L566.117 71.3894ZM536.197 100.629L533.945 98.6463L533.926 98.6688L533.906 98.6916L536.197 100.629ZM493.017 143.979L491.209 141.585L491.201 141.591L491.192 141.598L493.017 143.979ZM426.036 168.459L426.175 165.463L426.171 165.462L426.036 168.459ZM404.957 146.359L407.875 147.053L407.878 147.04L407.881 147.028L404.957 146.359ZM414.307 132.079L412.432 129.737L412.381 129.778L412.331 129.822L414.307 132.079ZM419.406 130.209L421.979 128.666L421.917 128.563L421.848 128.466L419.406 130.209ZM416.517 133.439L414.51 131.21L414.502 131.217L414.494 131.224L416.517 133.439ZM408.187 146.359L405.298 145.551L405.291 145.574L405.285 145.598L408.187 146.359ZM425.187 165.739L425.336 162.743L425.333 162.743L425.187 165.739ZM481.457 141.429L479.627 139.052V139.052L481.457 141.429ZM518.346 106.409L520.563 108.431L523.236 105.5L519.688 103.726L518.346 106.409ZM517.667 106.069L519.008 103.386L517.183 102.473L515.663 103.836L517.667 106.069ZM492.846 121.199L493.178 118.218L493.144 118.214L493.11 118.211L492.846 121.199ZM496.757 89.4094L498.878 91.5308L498.889 91.5193L498.901 91.5078L496.757 89.4094ZM543.847 70.5394L542.339 73.133L542.42 73.1805L542.505 73.2227L543.847 70.5394ZM540.617 82.0994L538.552 79.923L535.825 82.5103L538.952 84.5956L540.617 82.0994ZM541.127 82.4394L539.462 84.9356L541.332 86.1822L543.054 84.738L541.127 82.4394ZM553.707 72.9194L552.639 70.116L552.581 70.1378L552.525 70.162L553.707 72.9194ZM542.487 72.7494L540.628 75.1041L540.648 75.1201L540.668 75.1357L542.487 72.7494ZM508.147 95.8694L510.215 98.0427L510.216 98.0414L508.147 95.8694ZM493.527 118.649L494.811 115.938L494.767 115.918L494.723 115.898L493.527 118.649ZM525.997 94.8494L523.875 92.7281L523.863 92.7404L523.851 92.7529L525.997 94.8494ZM566.117 71.3894L564.113 69.1563C552.523 79.5534 540.351 91.3749 533.945 98.6463L536.197 100.629L538.448 102.613C544.622 95.6039 556.59 83.9655 568.12 73.6226L566.117 71.3894ZM536.197 100.629L533.906 98.6916C528.255 105.371 508.916 128.221 491.209 141.585L493.017 143.979L494.824 146.374C513.157 132.538 532.918 109.148 538.487 102.567L536.197 100.629ZM493.017 143.979L491.192 141.598C470.537 157.422 443.674 166.273 426.175 165.463L426.036 168.459L425.898 171.456C445.119 172.346 473.336 162.836 494.841 146.361L493.017 143.979ZM426.036 168.459L426.171 165.462C419.013 165.141 413.777 163.143 410.721 160.121C407.813 157.246 406.457 153.026 407.875 147.053L404.957 146.359L402.038 145.666C400.226 153.293 401.845 159.783 406.502 164.388C411.011 168.846 417.93 171.098 425.902 171.456L426.036 168.459ZM404.957 146.359L407.881 147.028C408.435 144.605 409.842 142.006 411.553 139.638C413.248 137.293 415.092 135.378 416.282 134.337L414.307 132.079L412.331 129.822C410.801 131.161 408.65 133.411 406.69 136.123C404.746 138.813 402.838 142.164 402.032 145.691L404.957 146.359ZM414.307 132.079L416.181 134.422C416.985 133.778 417.822 133.197 418.444 132.907C418.775 132.752 418.798 132.8 418.594 132.807C418.463 132.811 418.188 132.8 417.853 132.659C417.492 132.507 417.182 132.256 416.965 131.953L419.406 130.209L421.848 128.466C420.899 127.138 419.485 126.772 418.387 126.81C417.412 126.844 416.531 127.178 415.907 127.47C414.616 128.072 413.328 129.02 412.432 129.737L414.307 132.079ZM419.406 130.209L416.834 131.753C416.638 131.426 416.494 130.994 416.499 130.502C416.503 130.035 416.639 129.685 416.739 129.491C416.789 129.393 416.835 129.323 416.865 129.282C416.894 129.24 416.914 129.217 416.918 129.214C416.92 129.211 416.889 129.246 416.797 129.327C416.594 129.508 416.331 129.712 415.899 130.054C415.501 130.367 415.012 130.758 414.51 131.21L416.517 133.439L418.523 135.669C418.871 135.356 419.232 135.067 419.615 134.764C419.964 134.489 420.413 134.141 420.783 133.812C421.114 133.518 421.695 132.975 422.08 132.225C422.573 131.261 422.736 129.928 421.979 128.666L419.406 130.209ZM416.517 133.439L414.494 131.224C410.228 135.119 406.659 140.688 405.298 145.551L408.187 146.359L411.075 147.168C412.094 143.531 414.985 138.9 418.539 135.655L416.517 133.439ZM408.187 146.359L405.285 145.598C403.74 151.488 404.528 157.217 408.122 161.588C411.677 165.913 417.536 168.37 425.04 168.736L425.187 165.739L425.333 162.743C418.897 162.429 414.896 160.381 412.756 157.778C410.655 155.222 409.913 151.601 411.088 147.121L408.187 146.359ZM425.187 165.739L425.037 168.736C435.932 169.28 446.656 165.964 456.495 161.121C466.344 156.273 475.496 149.8 483.286 143.807L481.457 141.429L479.627 139.052C471.948 144.959 463.164 151.151 453.845 155.738C444.517 160.33 434.841 163.218 425.336 162.743L425.187 165.739ZM481.457 141.429L483.286 143.807C492.312 136.864 509.953 120.068 520.563 108.431L518.346 106.409L516.13 104.388C505.66 115.87 488.281 132.395 479.627 139.052L481.457 141.429ZM518.346 106.409L519.688 103.726L519.008 103.386L517.667 106.069L516.325 108.753L517.005 109.093L518.346 106.409ZM517.667 106.069L515.663 103.836C509.954 108.957 505.05 112.735 501.082 115.152C499.098 116.361 497.413 117.189 496.028 117.683C494.613 118.187 493.698 118.276 493.178 118.218L492.846 121.199L492.515 124.181C494.29 124.378 496.18 123.999 498.043 123.335C499.936 122.66 502.001 121.618 504.203 120.277C508.608 117.594 513.819 113.551 519.67 108.303L517.667 106.069ZM492.846 121.199L493.11 118.211C491.16 118.039 490.136 117.218 489.527 116.081C488.824 114.77 488.503 112.681 488.909 109.878C489.717 104.298 493.232 97.1771 498.878 91.5308L496.757 89.4094L494.635 87.2881C488.212 93.7118 483.991 101.976 482.971 109.018C482.463 112.526 482.706 116.058 484.239 118.917C485.867 121.951 488.753 123.85 492.583 124.188L492.846 121.199ZM496.757 89.4094L498.901 91.5078C506.363 83.8836 515.907 78.3273 524.454 75.2062C528.724 73.647 532.657 72.728 535.876 72.4354C539.215 72.1318 541.327 72.5446 542.339 73.133L543.847 70.5394L545.354 67.9459C542.711 66.4093 539.064 66.1208 535.333 66.46C531.48 66.8103 527.03 67.8781 522.396 69.5702C513.136 72.9515 502.79 78.9553 494.612 87.311L496.757 89.4094ZM543.847 70.5394L542.505 73.2227C542.556 73.2481 542.58 73.2745 542.599 73.3136C542.617 73.3479 542.703 73.5365 542.64 73.9872C542.5 74.9733 541.65 76.9836 538.552 79.923L540.617 82.0994L542.681 84.2758C546.213 80.9253 548.168 77.7505 548.581 74.8267C549.026 71.676 547.603 69.0638 545.188 67.8562L543.847 70.5394ZM540.617 82.0994L538.952 84.5956L539.462 84.9356L541.127 82.4394L542.791 79.9433L542.281 79.6033L540.617 82.0994ZM541.127 82.4394L543.054 84.738C545.695 82.5233 548.203 80.4339 550.341 78.7737C552.574 77.0392 554.108 76.0112 554.888 75.6769L553.707 72.9194L552.525 70.162C550.925 70.8477 548.804 72.3696 546.66 74.0351C544.42 75.775 541.828 77.9356 539.199 80.1409L541.127 82.4394ZM553.707 72.9194L554.775 75.7229C557.843 74.554 562.305 74.0694 565.857 74.3782L566.117 71.3894L566.376 68.4007C562.108 68.0295 556.71 68.5649 552.639 70.116L553.707 72.9194ZM542.487 72.7494L544.345 70.3948C543.205 69.4943 541.865 69.2725 540.729 69.308C539.597 69.3433 538.422 69.6366 537.276 70.0489C534.981 70.8751 532.246 72.3868 529.199 74.4183C523.068 78.5052 515.15 85.0525 506.077 93.6975L508.147 95.8694L510.216 98.0414C519.163 89.5164 526.8 83.2286 532.527 79.4106C535.408 77.4896 537.678 76.2813 539.308 75.6943C540.126 75.4 540.644 75.3135 540.916 75.305C541.185 75.2966 540.961 75.3671 540.628 75.1041L542.487 72.7494ZM508.147 95.8694L506.078 93.6962C500.714 98.8013 495.915 104.241 492.924 108.716C491.458 110.909 490.264 113.107 489.772 115.044C489.526 116.011 489.377 117.206 489.71 118.4C490.087 119.752 491.01 120.827 492.33 121.401L493.527 118.649L494.723 115.898C495.065 116.047 495.383 116.405 495.49 116.788C495.552 117.013 495.469 116.987 495.587 116.522C495.822 115.596 496.552 114.086 497.912 112.05C500.573 108.068 505.039 102.968 510.215 98.0427L508.147 95.8694ZM493.527 118.649L492.242 121.361C493.574 121.992 494.985 121.814 495.929 121.596C496.978 121.355 498.104 120.907 499.242 120.354C501.532 119.242 504.295 117.492 507.318 115.296C513.385 110.888 520.822 104.439 528.142 96.9459L525.997 94.8494L523.851 92.7529C516.721 100.05 509.538 106.266 503.791 110.442C500.905 112.539 498.462 114.062 496.62 114.958C495.691 115.409 495.019 115.649 494.584 115.749C494.044 115.873 494.286 115.69 494.811 115.938L493.527 118.649ZM525.997 94.8494L528.118 96.9708C531.368 93.7203 536.506 88.7564 540.343 84.2874C542.243 82.0744 543.989 79.797 545.019 77.7846C545.524 76.7976 545.993 75.6184 546.069 74.3935C546.154 73.0296 545.733 71.4517 544.305 70.3631L542.487 72.7494L540.668 75.1357C540.132 74.7272 540.073 74.1427 540.081 74.0226C540.082 74.0067 540.078 74.0866 540.012 74.2834C539.948 74.475 539.842 74.7296 539.678 75.0508C538.987 76.4013 537.63 78.2357 535.79 80.379C532.147 84.6225 527.255 89.3486 523.875 92.7281L525.997 94.8494ZM597.571 70.3694L599.572 72.6045L604.807 67.9172L597.801 67.3783L597.571 70.3694ZM561.701 106.239L563.974 108.197L563.982 108.187L561.701 106.239ZM555.75 118.989L554.339 121.636L554.441 121.691L554.548 121.738L555.75 118.989ZM572.581 110.489L570.803 108.072L570.792 108.081L570.781 108.089L572.581 110.489ZM590.431 95.6994L588.556 93.3568L588.485 93.4137L588.418 93.4748L590.431 95.6994ZM592.811 95.3594L595.494 94.0178L595.41 93.8507L595.307 93.6953L592.811 95.3594ZM592.13 97.3994L590.256 95.0568L590.196 95.1055L590.137 95.1572L592.13 97.3994ZM574.111 112.359L575.875 114.786L575.902 114.766L575.929 114.746L574.111 112.359ZM555.75 95.1894L553.577 93.1218L553.575 93.1239L555.75 95.1894ZM582.271 72.0694L580.859 69.4224L580.842 69.4315L580.825 69.4408L582.271 72.0694ZM597.571 70.3694L595.569 68.1344C580.871 81.2945 565.473 97.1999 559.419 104.292L561.701 106.239L563.982 108.187C569.828 101.339 585.03 85.6244 599.572 72.6045L597.571 70.3694ZM561.701 106.239L559.427 104.282C556.756 107.384 554.437 110.453 553.12 113.038C552.48 114.295 551.914 115.743 551.865 117.182C551.839 117.943 551.953 118.815 552.383 119.661C552.829 120.538 553.52 121.2 554.339 121.636L555.75 118.989L557.162 116.342C557.344 116.439 557.578 116.639 557.732 116.943C557.871 117.217 557.861 117.407 557.862 117.386C557.866 117.264 557.959 116.757 558.466 115.761C559.444 113.841 561.375 111.215 563.974 108.197L561.701 106.239ZM555.75 118.989L554.548 121.738C555.574 122.187 556.622 122.182 557.402 122.093C558.222 121.998 559.055 121.772 559.841 121.5C561.414 120.955 563.161 120.094 564.863 119.144C568.288 117.231 571.931 114.727 574.38 112.889L572.581 110.489L570.781 108.089C568.47 109.822 565.058 112.163 561.938 113.905C560.368 114.782 558.97 115.452 557.876 115.831C557.328 116.021 556.947 116.105 556.716 116.132C556.447 116.163 556.607 116.09 556.953 116.241L555.75 118.989ZM572.581 110.489L574.358 112.906C580.256 108.569 588.842 101.182 592.443 97.924L590.431 95.6994L588.418 93.4748C584.879 96.6768 576.465 103.91 570.803 108.072L572.581 110.489ZM590.431 95.6994L592.305 98.042C592.536 97.8567 592.659 97.7608 592.758 97.6927C592.866 97.6188 592.793 97.6879 592.588 97.7527C592.341 97.8305 591.833 97.921 591.24 97.7037C590.663 97.4926 590.385 97.1289 590.314 97.0235L592.811 95.3594L595.307 93.6953C594.896 93.08 594.256 92.4187 593.303 92.0696C592.332 91.7141 591.431 91.8259 590.781 92.0312C589.725 92.3645 588.822 93.1443 588.556 93.3568L590.431 95.6994ZM592.811 95.3594L590.127 96.7011C590.078 96.602 590.011 96.4298 589.985 96.1956C589.958 95.9532 589.984 95.7076 590.053 95.4846C590.187 95.058 590.406 94.9368 590.256 95.0568L592.13 97.3994L594.005 99.742C594.704 99.1821 595.434 98.3809 595.78 97.2743C596.153 96.0801 595.954 94.9379 595.494 94.0178L592.811 95.3594ZM592.13 97.3994L590.137 95.1572C585.593 99.1967 575.792 107.307 572.292 109.973L574.111 112.359L575.929 114.746C579.569 111.972 589.488 103.762 594.124 99.6417L592.13 97.3994ZM574.111 112.359L572.346 109.933C569.588 111.939 566.265 114.191 563.071 115.929C559.736 117.745 557.051 118.709 555.411 118.709V121.709V124.709C558.7 124.709 562.56 123.039 565.94 121.199C569.461 119.283 573.023 116.86 575.875 114.786L574.111 112.359ZM555.411 121.709V118.709C553.135 118.709 551.752 118.066 550.942 117.289C550.138 116.518 549.559 115.289 549.528 113.434C549.462 109.59 551.823 103.684 557.926 97.255L555.75 95.1894L553.575 93.1239C546.929 100.125 543.424 107.479 543.528 113.537C543.582 116.634 544.597 119.517 546.789 121.619C548.976 123.717 551.991 124.709 555.411 124.709V121.709ZM555.75 95.1894L557.924 97.2571C561.186 93.8285 566.059 89.0388 570.95 84.6514C575.911 80.2017 580.653 76.3828 583.716 74.6981L582.271 72.0694L580.825 69.4408C577.088 71.496 571.885 75.7522 566.944 80.185C561.932 84.6801 556.945 89.5804 553.577 93.1218L555.75 95.1894ZM582.271 72.0694L583.682 74.7165C583.678 74.7185 583.728 74.6924 583.854 74.6471C583.976 74.6034 584.138 74.5524 584.346 74.4967C584.765 74.3845 585.298 74.2717 585.932 74.1632C587.2 73.9461 588.735 73.7689 590.304 73.6348C593.511 73.3604 596.494 73.2955 597.34 73.3606L597.571 70.3694L597.801 67.3783C596.438 67.2734 593.045 67.3784 589.792 67.6566C588.131 67.7987 586.414 67.9934 584.92 68.2491C583.55 68.4836 581.971 68.829 580.859 69.4224L582.271 72.0694ZM608.451 56.2594H605.451C605.451 58.3426 603.734 60.0594 601.651 60.0594V63.0594V66.0594C607.047 66.0594 611.451 61.6563 611.451 56.2594H608.451ZM601.651 63.0594V60.0594C599.567 60.0594 597.85 58.3426 597.85 56.2594H594.85H591.85C591.85 61.6563 596.254 66.0594 601.651 66.0594V63.0594ZM594.85 56.2594H597.85C597.85 54.1763 599.567 52.4594 601.651 52.4594V49.4594V46.4594C596.254 46.4594 591.85 50.8626 591.85 56.2594H594.85ZM601.651 49.4594V52.4594C603.734 52.4594 605.451 54.1763 605.451 56.2594H608.451H611.451C611.451 50.8626 607.047 46.4594 601.651 46.4594V49.4594ZM650.624 76.6594L653.594 77.0837L653.612 76.9553L653.619 76.8258L650.624 76.6594ZM646.884 81.0794L646.156 83.9899L646.225 84.0072L646.295 84.0212L646.884 81.0794ZM644.334 79.3794L645.998 76.8833L645.938 76.8437L645.877 76.807L644.334 79.3794ZM639.064 77.6794L639.251 74.6853L639.219 74.6833L639.186 74.6819L639.064 77.6794ZM604.894 97.7394L602.838 95.5548L602.831 95.5613L602.824 95.5678L604.894 97.7394ZM583.304 121.879V124.879H584.81L585.71 123.671L583.304 121.879ZM579.564 111.509L576.922 110.087L576.913 110.104L576.904 110.122L579.564 111.509ZM598.604 86.8594L600.764 88.9411L600.791 88.9128L600.818 88.8837L598.604 86.8594ZM612.374 74.9594L613.964 77.5034L613.992 77.4858L614.02 77.4676L612.374 74.9594ZM631.244 70.3694L632.908 72.8656L641.152 67.3694H631.244V70.3694ZM607.104 92.1294L604.829 90.1733L603.015 92.2831L604.982 94.2508L607.104 92.1294ZM607.614 92.6394L605.492 94.7608L607.474 96.7428L609.586 94.8997L607.614 92.6394ZM645.864 70.5394L646.425 67.5924L646.414 67.5903L645.864 70.5394ZM650.624 76.6594L647.654 76.2352C647.633 76.3851 647.561 76.6194 647.394 76.9189C647.23 77.214 647.009 77.5075 646.769 77.7609C646.521 78.0224 646.316 78.174 646.224 78.2294C646.177 78.258 646.223 78.2229 646.356 78.18C646.447 78.1509 646.874 78.0181 647.472 78.1377L646.884 81.0794L646.295 84.0212C647.106 84.1833 647.799 84.0186 648.193 83.8918C648.63 83.7513 649.017 83.5529 649.333 83.3611C649.97 82.9755 650.583 82.4577 651.121 81.8905C652.155 80.801 653.305 79.1067 653.594 77.0837L650.624 76.6594ZM646.884 81.0794L647.611 78.169C647.842 78.2265 647.946 78.3017 647.88 78.2621C647.825 78.2294 647.723 78.1606 647.536 78.0207C647.32 77.8582 647.183 77.7487 646.884 77.5211C646.63 77.3279 646.329 77.1041 645.998 76.8833L644.334 79.3794L642.67 81.8756C643.09 82.1561 643.373 82.3983 643.936 82.8207C644.175 82.9995 644.476 83.2176 644.804 83.4133C645.12 83.6022 645.586 83.8473 646.156 83.9899L646.884 81.0794ZM644.334 79.3794L645.877 76.807C645.073 76.3244 644.187 75.7813 643.1 75.389C641.975 74.9825 640.776 74.7806 639.251 74.6853L639.064 77.6794L638.877 80.6736C640.072 80.7483 640.658 80.8863 641.062 81.0323C641.506 81.1926 641.895 81.4145 642.79 81.9519L644.334 79.3794ZM639.064 77.6794L639.186 74.6819C634.061 74.4728 627.741 77.2083 621.627 80.9414C615.356 84.7696 608.733 90.0063 602.838 95.5548L604.894 97.7394L606.95 99.924C612.615 94.5925 618.911 89.6292 624.753 86.0624C630.751 82.4005 635.736 80.5461 638.941 80.6769L639.064 77.6794ZM604.894 97.7394L602.824 95.5678C591.814 106.062 586.942 111.971 580.898 120.088L583.304 121.879L585.71 123.671C591.565 115.808 596.214 110.157 606.964 99.911L604.894 97.7394ZM583.304 121.879V118.879C583.629 118.879 583.61 119.041 583.284 118.709C582.98 118.399 582.614 117.847 582.322 117.086C581.703 115.472 581.734 113.835 582.224 112.897L579.564 111.509L576.904 110.122C575.354 113.094 575.725 116.642 576.721 119.236C577.236 120.578 577.996 121.886 578.999 122.909C579.98 123.91 581.448 124.879 583.304 124.879V121.879ZM579.564 111.509L582.205 112.932C585.606 106.617 591.875 98.1661 600.764 88.9411L598.604 86.8594L596.444 84.7778C587.313 94.2528 580.662 103.142 576.922 110.087L579.564 111.509ZM598.604 86.8594L600.818 88.8837C606.101 83.1049 610.146 79.8895 613.964 77.5034L612.374 74.9594L610.784 72.4154C606.442 75.1293 601.986 78.7139 596.39 84.8351L598.604 86.8594ZM612.374 74.9594L614.02 77.4676C618.721 74.3823 625.823 73.3694 631.244 73.3694V70.3694V67.3694C625.444 67.3694 616.906 68.3966 610.728 72.4513L612.374 74.9594ZM631.244 70.3694L629.58 67.8733C622.194 72.7967 612.302 81.4835 604.829 90.1733L607.104 92.1294L609.378 94.0855C616.525 85.7754 626.013 77.4621 632.908 72.8656L631.244 70.3694ZM607.104 92.1294L604.982 94.2508L605.492 94.7608L607.614 92.6394L609.735 90.5181L609.225 90.0081L607.104 92.1294ZM607.614 92.6394L609.586 94.8997C614.25 90.8297 621.179 84.9495 628.143 80.3278C631.627 78.0152 635.031 76.0782 638.097 74.8368C641.233 73.5668 643.647 73.1778 645.314 73.4886L645.864 70.5394L646.414 67.5903C643.066 66.9661 639.36 67.852 635.845 69.2755C632.259 70.7275 628.48 72.9024 624.825 75.3286C617.509 80.1844 610.328 86.2892 605.641 90.3792L607.614 92.6394ZM645.864 70.5394L645.302 73.4865C646.503 73.7152 646.987 74.148 647.212 74.4598C647.463 74.8094 647.688 75.4276 647.628 76.493L650.624 76.6594L653.619 76.8258C653.73 74.8313 653.359 72.7294 652.081 70.954C650.775 69.1408 648.794 68.0437 646.425 67.5924L645.864 70.5394ZM748.728 22.2594L748.761 25.2593L748.779 25.2591L748.798 25.2586L748.728 22.2594ZM770.658 31.4394L767.781 32.2895L767.796 32.3391L767.812 32.3881L770.658 31.4394ZM769.128 34.1594V37.1594H769.342L769.553 37.1293L769.128 34.1594ZM766.918 32.4594L764.73 34.5113L764.877 34.6679L765.044 34.802L766.918 32.4594ZM713.708 38.9194L715.504 41.3226L715.508 41.3194L713.708 38.9194ZM662.538 86.0094L664.685 88.1047L664.688 88.1025L662.538 86.0094ZM637.548 118.819L639.313 116.393L639.291 116.377L639.269 116.362L637.548 118.819ZM654.208 110.999L652.505 108.53L652.497 108.536L652.488 108.542L654.208 110.999ZM672.568 96.0394L670.768 93.6394L670.678 93.7073L670.593 93.7817L672.568 96.0394ZM675.118 95.3594L672.997 97.4808L673.115 97.5982L673.244 97.702L675.118 95.3594ZM674.268 97.3994L672.394 95.0568L672.291 95.1397L672.195 95.2315L674.268 97.3994ZM654.888 113.379L653.164 110.925L653.158 110.929L654.888 113.379ZM634.998 121.539L634.271 124.45L634.998 121.539ZM631.428 105.729L634.053 107.182L634.059 107.171L634.065 107.161L631.428 105.729ZM653.358 79.8894L655.496 81.994L655.499 81.9912L653.358 79.8894ZM701.638 38.2394L703.225 40.7855L703.228 40.7834L701.638 38.2394ZM748.728 22.2594L748.798 25.2586C752.223 25.179 756.8 25.5857 760.687 26.8365C764.72 28.1341 767.113 30.0278 767.781 32.2895L770.658 31.4394L773.535 30.5894C771.994 25.371 767.077 22.5897 762.525 21.1249C757.827 19.6131 752.544 19.1699 748.659 19.2602L748.728 22.2594ZM770.658 31.4394L767.812 32.3881C767.734 32.1543 767.743 31.9864 767.751 31.9156C767.76 31.8398 767.78 31.784 767.806 31.7341C767.832 31.6837 768.069 31.2803 768.704 31.1896L769.128 34.1594L769.553 37.1293C771.378 36.8686 772.55 35.6151 773.129 34.5022C773.696 33.4111 773.983 31.9276 773.504 30.4907L770.658 31.4394ZM769.128 34.1594V31.1594C769.554 31.1594 769.869 31.2627 770.027 31.3254C770.191 31.3902 770.291 31.4535 770.314 31.4685C770.349 31.4911 770.307 31.4673 770.144 31.3222C769.98 31.1765 769.834 31.0369 769.585 30.8075C769.367 30.6059 769.091 30.3557 768.792 30.1168L766.918 32.4594L765.044 34.802C765.409 35.0942 765.565 35.2799 766.158 35.8067C766.377 36.0016 766.697 36.2753 767.061 36.5103C767.343 36.6924 768.104 37.1594 769.128 37.1594V34.1594ZM766.918 32.4594L769.107 30.4076C763.296 24.2086 755.78 21.9794 748.048 21.9794V24.9794V27.9794C754.597 27.9794 760.341 29.8302 764.73 34.5113L766.918 32.4594ZM748.048 24.9794V21.9794C735.526 21.9794 722.303 28.7232 711.908 36.5194L713.708 38.9194L715.508 41.3194C725.513 33.8157 737.451 27.9794 748.048 27.9794V24.9794ZM713.708 38.9194L711.913 36.5163C696.241 48.2268 679.443 64.3521 660.389 83.9163L662.538 86.0094L664.688 88.1025C683.714 68.5667 700.236 52.732 715.504 41.3226L713.708 38.9194ZM662.538 86.0094L660.391 83.9141C653.492 90.9839 646.313 98.6741 641.269 104.93C638.767 108.034 636.679 110.919 635.433 113.266C634.825 114.41 634.287 115.662 634.112 116.876C633.934 118.109 634.072 120.048 635.828 121.277L637.548 118.819L639.269 116.362C640.175 116.996 640.026 117.904 640.05 117.734C640.078 117.545 640.232 117.021 640.732 116.08C641.7 114.257 643.491 111.733 645.94 108.696C650.799 102.67 657.815 95.145 664.685 88.1047L662.538 86.0094ZM637.548 118.819L635.784 121.246C637.327 122.368 639.178 122.19 640.355 121.945C641.685 121.669 643.164 121.09 644.694 120.354C647.779 118.868 651.631 116.466 655.929 113.457L654.208 110.999L652.488 108.542C648.286 111.483 644.743 113.671 642.091 114.948C640.752 115.592 639.776 115.938 639.135 116.071C638.341 116.236 638.705 115.951 639.313 116.393L637.548 118.819ZM654.208 110.999L655.912 113.469C661.01 109.953 670.493 101.842 674.544 98.2972L672.568 96.0394L670.593 93.7817C666.484 97.3774 657.267 105.246 652.505 108.53L654.208 110.999ZM672.568 96.0394L674.368 98.4394C674.492 98.3465 674.617 98.2472 674.702 98.1796C674.8 98.1023 674.871 98.0462 674.939 97.9948C675.088 97.8826 675.117 97.8752 675.069 97.898C675.025 97.9191 674.72 98.0614 674.246 98.0279C673.998 98.0104 673.744 97.9468 673.507 97.8341C673.273 97.7232 673.105 97.589 672.997 97.4808L675.118 95.3594L677.24 93.2381C676.563 92.5611 675.678 92.1141 674.668 92.0428C673.743 91.9775 672.98 92.2472 672.49 92.4809C671.683 92.8651 670.776 93.6341 670.768 93.6394L672.568 96.0394ZM675.118 95.3594L673.244 97.702C673.09 97.579 672.626 97.1402 672.5 96.3326C672.376 95.5395 672.671 94.975 672.787 94.7894C672.894 94.6179 672.968 94.5724 672.855 94.6753C672.756 94.7663 672.624 94.873 672.394 95.0568L674.268 97.3994L676.142 99.742C676.408 99.5295 677.329 98.8428 677.875 97.9694C678.203 97.4439 678.605 96.5394 678.428 95.4063C678.248 94.2586 677.571 93.4799 676.992 93.0168L675.118 95.3594ZM674.268 97.3994L672.195 95.2315C668.373 98.8873 659.309 106.607 653.164 110.925L654.888 113.379L656.613 115.834C663.048 111.312 672.344 103.392 676.342 99.5674L674.268 97.3994ZM654.888 113.379L653.158 110.929C648.875 113.952 645.293 116.147 642.287 117.447C639.247 118.761 637.175 118.991 635.726 118.629L634.998 121.539L634.271 124.45C637.581 125.278 641.12 124.488 644.667 122.954C648.249 121.406 652.232 118.927 656.618 115.83L654.888 113.379ZM634.998 121.539L635.726 118.629C634.077 118.217 632.892 117.085 632.409 115.326C631.905 113.492 632.112 110.691 634.053 107.182L631.428 105.729L628.803 104.277C626.325 108.758 625.597 113.182 626.623 116.916C627.67 120.724 630.48 123.502 634.271 124.45L634.998 121.539ZM631.428 105.729L634.065 107.161C637.058 101.648 644.727 92.934 655.496 81.994L653.358 79.8894L651.22 77.7849C640.569 88.6049 632.259 97.9114 628.792 104.298L631.428 105.729ZM653.358 79.8894L655.499 81.9912C673.807 63.3438 691.8 47.9056 703.225 40.7855L701.638 38.2394L700.052 35.6934C688.017 43.1933 669.629 59.0351 651.218 77.7877L653.358 79.8894ZM701.638 38.2394L703.228 40.7834C715.258 33.2651 733.742 25.4208 748.761 25.2593L748.728 22.2594L748.696 19.2596C732.095 19.4381 712.499 27.9137 700.048 35.6954L701.638 38.2394ZM752.224 32.4594L750.56 34.9556L750.597 34.98L750.634 35.0034L752.224 32.4594ZM752.904 42.9994L750.783 40.8781L750.766 40.8944L750.75 40.911L752.904 42.9994ZM690.854 99.6094L692.847 101.852L692.888 101.815L692.927 101.778L690.854 99.6094ZM685.584 103.519L683.784 105.919L683.851 105.969L683.92 106.016L685.584 103.519ZM688.134 98.2494L685.806 96.3569L685.759 96.415L685.715 96.4753L688.134 98.2494ZM734.374 42.9994L736.606 45.004L736.609 45.0012L734.374 42.9994ZM752.224 32.4594L750.634 35.0034C751.164 35.3348 751.838 36.2173 752.021 37.4158C752.183 38.484 751.939 39.7219 750.783 40.8781L752.904 42.9994L755.025 45.1208C757.609 42.537 758.385 39.3549 757.952 36.5131C757.54 33.8016 756.004 31.2841 753.814 29.9154L752.224 32.4594ZM752.904 42.9994L750.75 40.911C742.686 49.2278 732.106 58.672 721.044 68.4156C710.021 78.1243 698.527 88.1222 688.781 97.4411L690.854 99.6094L692.927 101.778C702.561 92.5667 713.932 82.6745 725.009 72.9182C736.047 63.1969 746.802 53.6011 755.058 45.0879L752.904 42.9994ZM690.854 99.6094L688.861 97.3672C688.4 97.7768 687.872 98.3064 687.413 98.7626C686.92 99.2527 686.459 99.7076 686.029 100.092C685.568 100.504 685.297 100.693 685.195 100.748C685.145 100.775 685.297 100.68 685.601 100.635C685.949 100.583 686.599 100.591 687.248 101.023L685.584 103.519L683.92 106.016C685.725 107.219 687.565 106.288 688.05 106.025C688.792 105.624 689.489 105.047 690.027 104.566C690.595 104.059 691.165 103.494 691.644 103.017C692.157 102.506 692.543 102.122 692.847 101.852L690.854 99.6094ZM685.584 103.519L687.384 101.119C687.52 101.221 687.758 101.443 687.937 101.819C688.121 102.208 688.16 102.59 688.135 102.879C688.097 103.32 687.922 103.459 688.153 103.108C688.344 102.819 688.633 102.453 689.086 101.895C689.505 101.377 690.034 100.732 690.553 100.024L688.134 98.2494L685.715 96.4753C685.299 97.0419 684.872 97.5652 684.425 98.1156C684.012 98.6256 683.526 99.2261 683.142 99.8082C682.8 100.328 682.253 101.243 682.157 102.369C682.031 103.84 682.698 105.105 683.784 105.919L685.584 103.519ZM688.134 98.2494L690.462 100.142C707.482 79.2066 720.177 63.2958 736.606 45.004L734.374 42.9994L732.142 40.9948C715.591 59.423 702.786 75.4722 685.806 96.3569L688.134 98.2494ZM734.374 42.9994L736.609 45.0012C740.277 40.9056 743.367 37.7748 745.991 36.0126C748.643 34.2321 749.82 34.4623 750.56 34.9556L752.224 32.4594L753.888 29.9633C750.038 27.3965 745.945 28.8167 742.647 31.0313C739.321 33.2641 735.781 36.9332 732.14 40.9977L734.374 42.9994ZM683.034 115.249H680.034C680.034 117.163 678.487 118.709 676.574 118.709V121.709V124.709C681.801 124.709 686.034 120.476 686.034 115.249H683.034ZM676.574 121.709V118.709C674.661 118.709 673.114 117.163 673.114 115.249H670.114H667.114C667.114 120.476 671.347 124.709 676.574 124.709V121.709ZM670.114 115.249H673.114C673.114 113.336 674.661 111.789 676.574 111.789V108.789V105.789C671.347 105.789 667.114 110.023 667.114 115.249H670.114ZM676.574 108.789V111.789C678.487 111.789 680.034 113.336 680.034 115.249H683.034H686.034C686.034 110.023 681.801 105.789 676.574 105.789V108.789Z" fill="black" mask="url(#path-1-outside-1_380_55)"/>
</svg>
