<svg width="284" height="48" viewBox="0 0 284 48" fill="none" xmlns="http://www.w3.org/2000/svg">
<g clip-path="url(#clip0_0_1)">
<path d="M137.282 42.2487L137.246 40.9845C138.824 40.9249 140.957 41.1665 142.254 40.1936C143.113 39.5449 143.459 37.4765 143.459 36.4936V6.14568C143.459 5.30838 143.275 4.50418 143.046 3.76286C142.37 1.54551 139.444 2.14783 137.734 2.05186L137.715 0.807498C138.348 0.724761 138.969 0.691666 139.642 0.655262L141.368 0.559287L143.191 0.460003L144.63 0.383885L145.499 0.324314L148.418 0.241577C150.468 0.182007 152.501 0.112508 154.544 0.241577L156.19 0.344171C159.021 0.519573 162.102 1.67458 163.932 3.99783C165.377 5.83459 166.043 8.11482 165.917 10.4976C165.729 14.2175 163.45 17.3449 159.875 18.6257C164.362 20.383 167.291 23.6991 167.692 28.5641C167.769 29.4808 167.788 30.4207 167.692 31.344C167.394 34.167 166.279 36.7848 164.414 38.8433C163.34 40.0281 162.157 40.9647 160.664 41.4909C159.277 41.9774 157.848 42.1825 156.38 42.2156L152.886 42.2951C152.479 42.305 152.123 42.2752 151.703 42.2752L137.282 42.2587V42.2487ZM161.152 9.5048C161.029 7.2345 160.059 5.25543 158.404 3.73969C157.376 2.7998 156.106 2.30338 154.719 2.12467C153.406 1.95589 151.499 1.87646 150.222 1.99891L147.888 2.22395V18.0399L154.657 18.0068C155.585 18.0035 156.458 17.7454 157.315 17.4939C160.492 16.3686 161.317 12.5561 161.152 9.50811V9.5048ZM155.575 40.3359C158.061 40.1009 160.056 38.6778 161.297 36.53C162.474 34.4913 162.875 32.1813 162.868 29.7952C162.859 26.8398 161.747 24.0069 159.594 22.0576C158.152 20.671 156.442 19.9462 154.454 19.9363L147.885 19.8965L147.933 31.109L148.04 34.4516C148.079 35.643 148.156 36.8477 148.67 37.9332C149.87 40.4682 153.109 40.5708 155.579 40.3392L155.575 40.3359Z" fill="#F2E772"/>
<path d="M51.7478 42.2422L51.7188 40.9813C52.6724 40.9779 53.5064 40.9912 54.3857 40.7661C56.2316 40.2962 56.5484 38.5984 56.6938 36.9569L56.7941 35.8416L56.7811 6.23839C56.7811 5.31504 56.5548 4.45789 56.3059 3.62721C55.9924 2.58804 54.7704 2.09492 53.8232 2.07507L51.7446 2.02543L51.7188 0.777754L53.9299 0.642065L55.362 0.572566L56.529 0.512996L59.2541 0.433568L62.1151 0.327665L65.2831 0.23169C66.6117 0.191977 67.921 0.139025 69.2625 0.215143L70.6138 0.291261C74.27 0.496448 77.813 1.46612 80.7482 3.7265C85.4065 7.31397 87.5304 12.672 87.9022 18.5132C88.3354 25.3473 85.9108 32.9823 80.9293 37.685C79.1319 39.3828 77.0824 40.5245 74.7742 41.3155C72.9058 41.9542 71.0696 42.3448 69.0686 42.2322C68.7356 42.2124 68.3412 42.2984 68.0115 42.3183C66.7928 42.3845 65.6452 42.2951 64.4167 42.2885L51.7543 42.2388L51.7478 42.2422ZM83.0079 22.6435C83.2019 19.3571 82.7557 15.3328 81.6308 12.2583C80.2278 8.42264 77.952 5.50037 74.2441 3.81585C72.437 2.9951 70.5265 2.61451 68.5546 2.38947L67.5266 2.27033C67.1968 2.23392 66.7992 2.17435 66.4727 2.17435L62.1668 2.1545C61.8661 2.1545 61.5105 2.2604 61.2099 2.35968V36.3281L61.3101 37.4401C61.3521 37.9332 61.2584 39.3563 61.9664 39.9057C62.4254 40.2598 63.0558 40.4186 63.6506 40.4451C64.9792 40.5047 66.2852 40.5477 67.63 40.455L68.9716 40.3624C71.8454 40.1605 74.5415 39.1445 76.7236 37.2349C80.8549 33.621 82.6879 28.0743 83.0079 22.6435Z" fill="#F2E772"/>
<path d="M250.102 36.4671C249.301 35.5901 247.167 33.3132 246.223 32.8929C245.783 32.6976 245.169 32.8995 244.726 32.9094L243.191 32.9491L243.204 38.6083C243.204 38.8863 243.298 39.2735 243.333 39.5515C243.443 40.4418 244.083 41.1004 244.962 41.1301L246.643 41.1831L246.624 42.2454H236.215L236.195 41.1864L237.605 41.1368C238.481 41.107 239.163 40.4947 239.283 39.6177C239.325 39.3066 239.444 38.9095 239.444 38.5752V22.9545C239.444 22.4945 239.27 21.1541 238.697 20.8828C237.915 20.5121 237.165 20.479 236.224 20.4757C236.202 20.1481 236.205 19.741 236.224 19.3372L237.889 19.2578L240.469 19.1552C242.645 19.0692 244.801 19.0659 246.98 19.1618C249.31 19.2644 251.424 19.8767 253.018 21.6042C254.205 22.885 254.673 24.5894 254.473 26.3037C254.146 29.0969 252.485 30.606 250.225 31.6981L251.02 32.3931C251.725 33.0087 252.339 33.707 252.976 34.402L254.602 36.1725C256.797 38.5587 259.61 41.2493 263.007 41.3949L263.049 42.4208L262.377 42.4804C262.079 42.5069 261.805 42.4804 261.498 42.4771L258.662 42.4142C257.182 42.3811 254.586 41.0143 253.539 39.9983C252.352 38.8466 251.221 37.6949 250.106 36.4737L250.102 36.4671ZM250.306 25.9727C250.322 24.5596 250.002 23.1961 249.055 22.1304C247.513 20.393 245.431 20.5121 243.194 20.6279V31.4168C243.76 31.4963 244.216 31.4334 244.73 31.4036C245.732 31.3473 246.718 31.2315 247.633 30.8178C249.698 29.8845 250.277 28.1471 250.306 25.9727Z" fill="#F2E772"/>
<path d="M190.339 31.3076L184.323 31.2944L184.34 38.0192L184.424 39.1213C184.453 39.5184 184.508 40.0877 184.886 40.2995C185.264 40.5113 185.794 40.5874 186.234 40.5874L191.025 40.5675C191.338 40.5675 191.746 40.4815 192.053 40.455C194.199 40.2763 194.558 38.3039 195.117 36.5035L196.113 36.487L195.589 42.2488H176.2L176.174 41.0838L178.294 41.064C179.28 41.054 180.477 40.5113 180.473 39.3629V22.3952C180.473 21.7168 180.037 20.9655 179.52 20.7405C178.711 20.3963 177.991 20.4956 177.073 20.4923C177.024 20.1547 177.027 19.751 177.095 19.3108H194.523L194.6 20.393L194.697 21.9617L194.801 23.719L194.872 24.8972L193.756 24.8906C193.601 23.9672 193.433 23.1729 193.181 22.3059C192.906 21.5745 192.286 21.1045 191.451 21.1012L184.317 21.0747V29.5966L189.386 29.6033C190.239 29.3749 191.649 29.8316 191.901 28.2331L192.117 26.8597L193.142 26.8762V34.1935L192.121 34.2034C192.017 33.0716 191.891 31.3109 190.336 31.3076H190.339Z" fill="#F2E772"/>
<path d="M220.346 31.3076L214.333 31.2944L214.349 37.9233L214.433 39.022C214.468 39.4589 214.475 40.0579 214.902 40.2995C215.264 40.508 215.81 40.5874 216.246 40.5874L221.037 40.5675C221.351 40.5675 221.758 40.4815 222.065 40.455C224.215 40.2763 224.567 38.3038 225.13 36.5035C225.44 36.4803 225.786 36.477 226.126 36.4869L225.612 42.2487H206.212L206.183 41.0805L208.304 41.0606C209.29 41.0507 210.483 40.508 210.483 39.3596V22.3919C210.483 21.7135 210.046 20.9622 209.529 20.7372C208.721 20.393 208 20.4923 207.082 20.4889C207.033 20.1514 207.037 19.7476 207.108 19.3075H224.535L224.613 20.3897L224.713 22.0543L224.813 23.7124L224.884 24.8905L223.762 24.8839C223.471 23.5767 223.397 21.1508 221.726 21.1575C221.555 21.1244 221.306 21.0681 221.137 21.0681L214.333 21.0747V29.5933L219.398 29.5966L220.375 29.4775C221.141 29.5834 221.807 29.0142 221.923 28.253L222.136 26.8564L223.151 26.8696V34.1869L222.13 34.1968C222.078 33.4555 221.981 32.8664 221.755 32.1979C221.493 31.6882 221.018 31.301 220.342 31.301L220.346 31.3076Z" fill="#F2E772"/>
<path d="M110.392 31.301L104.547 31.2679V39.1941C104.554 39.5019 104.728 39.9818 104.929 40.1936C105.129 40.4054 105.617 40.5642 105.915 40.5642L111.229 40.5543C111.585 40.5543 112.002 40.4716 112.348 40.4285C114.404 40.1638 114.721 38.2939 115.273 36.5134C115.571 36.4704 115.878 36.4638 116.279 36.4936L115.752 42.2488H96.3332L96.3105 41.0805C97.5293 41.0077 99.999 41.4247 100.507 39.8891C100.62 39.5449 100.717 39.0915 100.717 38.7043V23.1564C100.717 22.8453 100.616 22.4746 100.594 22.1867C100.513 21.2137 99.7954 20.5585 98.8611 20.5254L97.2706 20.4691L97.2965 19.3108H114.701L114.785 20.4923L114.886 22.1536L114.983 23.7256C115.008 24.136 115.005 24.4438 115.008 24.9038L113.938 24.8608C113.78 23.901 113.615 23.1498 113.353 22.2728C113.056 21.5579 112.422 21.1045 111.598 21.1012L104.56 21.0747V29.6033L109.529 29.5999L110.418 29.4841C110.858 29.5404 111.478 29.4047 111.743 29.0175C112.177 28.3887 112.157 27.6771 112.274 26.8928L113.282 26.8762V34.1637C112.985 34.2167 112.616 34.2134 112.267 34.1703C112.18 32.916 112.089 31.3143 110.405 31.3043L110.392 31.301Z" fill="#F2E772"/>
<path d="M280.379 41.7987C277.758 43.1953 274.968 43.0066 272.243 42.2454C271.671 42.0866 271.128 42.123 270.669 42.5003C270.458 42.5632 270.025 42.5433 269.757 42.5168L268.923 36.295C269.282 36.2718 269.621 36.2718 269.99 36.3082C270.381 37.8372 271.034 39.1081 272.24 40.1175C273.811 41.428 276.074 41.7159 277.949 40.9481C279.206 40.4319 279.969 39.3497 280.063 37.9828C280.234 35.4114 277.991 33.7831 276.103 32.413C274.713 31.4003 273.348 30.4439 272.036 29.3219C271.551 28.9083 271.118 28.4185 270.704 27.9452C269.957 27.098 269.566 26.0654 269.414 24.9369C269.114 22.7295 270.209 20.628 272.162 19.6086C274.512 18.3841 277.111 18.7846 279.562 19.3704C280.121 19.506 280.603 19.3472 281.013 18.9467C281.23 18.8971 281.624 18.9236 281.896 18.9666L282.684 24.6854H281.572C280.615 21.8458 278.052 19.5524 275.033 20.1845C274.157 20.3665 273.384 20.9126 273.022 21.5645C272.511 22.4846 272.527 23.4278 272.88 24.3544C273.504 26.0025 275.686 27.3627 277.118 28.349C278.686 29.4279 280.215 30.4935 281.537 31.8438C282.067 32.3832 282.429 32.9988 282.768 33.6441C283.237 34.5311 283.37 35.4577 283.386 36.4671C283.409 37.9663 282.982 39.4258 281.954 40.508C281.488 40.9978 281.016 41.4545 280.376 41.7987H280.379Z" fill="#F2E772"/>
</g>
<path d="M37.5908 12.59C37.5908 12.74 37.2308 12.68 36.6008 12.83C35.5208 13.07 34.0508 13.91 33.4808 14.33C35.2208 15.5 36.7208 17.93 35.4308 20.09C34.2908 21.98 31.5608 22.91 27.9608 23.06C30.4208 24.53 32.0708 26.99 30.8708 29.24C29.2208 32.33 24.1808 33.38 18.6908 33.44C15.5708 33.5 13.2908 33.11 11.0408 32.6C10.4408 32.48 9.90078 32.3 9.39078 32.24C10.3808 35.63 13.0808 37.28 16.6508 37.13C17.9408 37.07 19.5008 36.47 20.1308 36.02C20.3408 35.87 20.5808 35.69 20.6408 35.75C20.7908 35.87 20.5808 36.14 20.3708 36.29C19.5908 36.89 18.0608 37.49 16.6208 37.55C12.6608 37.76 9.78078 35.69 8.91078 32.33C8.25078 32.48 6.99078 32.69 6.24078 32.69C5.58078 32.69 5.01078 32.57 5.04078 32.21C5.10078 31.61 6.12078 31.37 6.84078 31.31C7.41078 31.25 8.19078 31.34 8.70078 31.43C8.58078 30.65 8.52078 29.93 8.52078 28.97C8.52078 25.1 10.2608 20.57 13.5008 17.42C16.9208 14.09 21.6308 12.23 27.0908 12.38C29.4608 12.44 31.8608 13.13 32.8808 13.88C33.6308 13.4 35.1308 12.74 36.3908 12.53C36.9608 12.41 37.6208 12.38 37.5908 12.59ZM33.1208 14.57C30.2108 16.88 28.1408 20.09 26.3108 22.31C26.4608 22.28 26.7008 22.34 26.8508 22.4C27.0308 22.46 27.2708 22.58 27.5408 22.76C29.5208 22.58 31.4408 21.62 32.9108 19.52C34.6808 17 33.7808 15.26 33.1208 14.57ZM32.5208 14.12C31.7108 13.52 29.5508 12.86 27.0908 12.83C21.9008 12.77 17.7908 15.41 14.7308 18.32C11.1308 21.77 9.21078 25.73 9.09078 29.15C9.09078 30.11 9.09078 30.71 9.24078 31.52C9.84078 31.67 10.4708 31.64 11.0708 31.52C14.4008 30.86 17.7908 28.01 22.3508 23.06C25.5308 19.61 29.4608 15.86 32.5208 14.12ZM27.9908 28.76C29.4008 26.6 29.0408 23.9 27.1208 23.09C26.9108 23.12 26.6108 23.09 26.4008 23.03C26.1908 22.91 26.0408 22.79 26.0408 22.61C25.8908 22.82 25.3508 23.42 25.2308 23.57C19.2308 30.14 13.8908 31.64 10.3208 32C10.5908 32.06 10.8908 32.09 11.1608 32.18C13.6808 32.72 15.5408 32.99 18.8408 32.96C23.1608 32.93 26.4008 31.22 27.9908 28.76ZM38.2798 29.06C37.8898 29.42 36.8998 30.32 36.6598 30.5C35.5198 31.43 34.1998 32.39 32.9398 32.36C31.7098 32.3 31.3498 31.34 31.6498 30.5C31.9198 29.63 32.6098 28.61 33.7198 27.5C34.8898 26.27 36.9598 24.62 38.1598 23.9C38.6398 23.63 40.0498 23.42 41.0698 23.42C38.3998 25.61 35.7598 28.19 34.7098 29.48C33.7798 30.62 33.2998 31.37 33.7198 31.61C34.1998 31.85 35.4598 30.95 36.4498 30.17C37.5898 29.24 38.2198 28.58 39.2998 27.5C40.9198 25.88 42.5698 24.35 43.7998 23.57C44.2798 23.27 45.7498 23.21 46.2898 23.21C46.4098 23.21 46.5298 23.21 46.5298 23.27C46.5298 23.36 46.4398 23.36 46.3198 23.45C46.0198 23.63 45.6898 23.87 45.1498 24.41C43.6198 25.88 42.8998 26.66 41.0098 28.67C38.0398 31.88 33.7498 36.74 30.6598 39.29C23.3098 45.38 15.5998 47.78 9.65984 47.66C3.11984 47.51 -0.000157595 43.01 2.00984 38.51C2.18984 38.09 2.72984 37.31 2.96984 37.52C3.02984 37.61 2.96984 37.7 2.66984 38.3C0.539843 42.68 3.56984 47.03 9.50984 47.18C16.0498 47.36 22.3498 43.91 28.2598 38.96C31.2598 36.44 36.0598 31.52 38.2798 29.06Z" fill="#F2E772"/>
<defs>
<clipPath id="clip0_0_1">
<rect width="232" height="43" fill="white" transform="translate(51.5508)"/>
</clipPath>
</defs>
</svg>
