<svg width="270" height="56" viewBox="0 0 270 56" fill="none" xmlns="http://www.w3.org/2000/svg">
<g clip-path="url(#clip0_0_1)">
<path d="M130.847 39.3012L130.813 38.1251C132.309 38.0697 134.333 38.2945 135.562 37.3894C136.377 36.786 136.705 34.8619 136.705 33.9475V5.71692C136.705 4.93804 136.531 4.18995 136.313 3.50035C135.672 1.4377 132.898 1.998 131.276 1.90872L131.258 0.751173C131.859 0.674208 132.447 0.643422 133.085 0.609558L134.722 0.520279L136.451 0.427922L137.815 0.357114L138.64 0.3017L141.408 0.224735C143.351 0.169321 145.279 0.104671 147.217 0.224735L148.777 0.320171C151.463 0.483336 154.384 1.55776 156.119 3.71892C157.489 5.42754 158.121 7.54868 158.001 9.76526C157.823 13.2256 155.662 16.1348 152.272 17.3263C156.527 18.961 159.304 22.0457 159.684 26.5712C159.758 27.424 159.776 28.2983 159.684 29.1572C159.402 31.7833 158.345 34.2184 156.576 36.1333C155.558 37.2354 154.436 38.1067 153.02 38.5962C151.705 39.0487 150.35 39.2396 148.958 39.2704L145.644 39.3443C145.258 39.3535 144.921 39.3258 144.522 39.3258L130.847 39.3104V39.3012ZM153.483 8.84168C153.366 6.72978 152.447 4.88879 150.877 3.4788C149.902 2.60448 148.697 2.14269 147.382 1.97645C146.138 1.81944 144.329 1.74555 143.118 1.85946L140.905 2.06881V16.7813L147.324 16.7506C148.204 16.7475 149.032 16.5074 149.844 16.2734C152.857 15.2267 153.639 11.6801 153.483 8.84476V8.84168ZM148.195 37.5217C150.552 37.3032 152.443 35.9794 153.621 33.9814C154.736 32.085 155.117 29.9361 155.11 27.7165C155.101 24.9673 154.047 22.332 152.005 20.5187C150.638 19.2288 149.016 18.5546 147.131 18.5454L140.902 18.5084L140.948 28.9387L141.049 32.048C141.086 33.1563 141.159 34.2769 141.647 35.2867C142.784 37.6449 145.856 37.7403 148.198 37.5248L148.195 37.5217Z" fill="#282323"/>
<path d="M49.7376 39.295L49.71 38.1221C50.6143 38.119 51.4052 38.1313 52.239 37.922C53.9894 37.4848 54.2898 35.9055 54.4277 34.3785L54.5228 33.341L54.5105 5.80313C54.5105 4.94421 54.2959 4.14686 54.0599 3.37413C53.7625 2.40746 52.6038 1.94875 51.7056 1.93028L49.7345 1.8841L49.71 0.723473L51.8067 0.597252L53.1648 0.532601L54.2714 0.477187L56.8556 0.403301L59.5685 0.304786L62.5727 0.215508C63.8326 0.178565 65.0741 0.129307 66.3463 0.200115L67.6277 0.270922C71.0947 0.461794 74.4545 1.36382 77.2379 3.46649C81.6553 6.80367 83.6693 11.7879 84.0218 17.2216C84.4326 23.5789 82.1335 30.6811 77.4096 35.0558C75.7052 36.6351 73.7617 37.6972 71.5729 38.433C69.8011 39.0272 68.0599 39.3905 66.1624 39.2858C65.8466 39.2673 65.4726 39.3474 65.16 39.3658C64.0043 39.4274 62.916 39.3443 61.7511 39.3381L49.7437 39.2919L49.7376 39.295ZM79.3807 21.0637C79.5646 18.0066 79.1416 14.2631 78.0748 11.4031C76.7444 7.835 74.5863 5.11661 71.0702 3.54961C69.3566 2.78612 67.5449 2.43209 65.675 2.22274L64.7001 2.11191C64.3875 2.07805 64.0104 2.02263 63.7008 2.02263L59.6176 2.00416C59.3325 2.00416 58.9953 2.10268 58.7102 2.19504V33.7936L58.8052 34.828C58.8451 35.2867 58.7562 36.6105 59.4275 37.1215C59.8628 37.4509 60.4606 37.5987 61.0246 37.6233C62.2845 37.6788 63.523 37.7188 64.7982 37.6326L66.0704 37.5464C68.7956 37.3586 71.3522 36.4135 73.4214 34.6371C77.3391 31.2753 79.0772 26.1156 79.3807 21.0637Z" fill="#282323"/>
<path d="M237.832 33.9229C237.072 33.107 235.049 30.989 234.154 30.598C233.737 30.4164 233.154 30.6042 232.734 30.6134L231.278 30.6503L231.29 35.9147C231.29 36.1733 231.379 36.5335 231.413 36.7921C231.517 37.6202 232.124 38.2329 232.958 38.2606L234.552 38.3099L234.534 39.2981H224.663L224.645 38.3129L225.981 38.2668C226.812 38.239 227.459 37.6695 227.572 36.8537C227.612 36.5643 227.725 36.1949 227.725 35.8839V21.353C227.725 20.9251 227.56 19.6783 227.017 19.4258C226.275 19.081 225.564 19.0502 224.672 19.0472C224.651 18.7424 224.654 18.3637 224.672 17.9881L226.251 17.9142L228.697 17.8188C230.76 17.7388 232.805 17.7357 234.871 17.825C237.081 17.9204 239.086 18.4899 240.597 20.097C241.722 21.2884 242.167 22.8738 241.977 24.4685C241.667 27.0669 240.091 28.4707 237.949 29.4866L238.703 30.1331C239.371 30.7058 239.954 31.3553 240.557 32.0018L242.099 33.6489C244.181 35.8685 246.848 38.3714 250.07 38.5069L250.109 39.4612L249.472 39.5167C249.19 39.5413 248.929 39.5167 248.638 39.5136L245.95 39.4551C244.546 39.4243 242.084 38.1528 241.091 37.2077C239.966 36.1364 238.893 35.065 237.835 33.929L237.832 33.9229ZM238.025 24.1607C238.041 22.8461 237.737 21.5778 236.839 20.5865C235.377 18.9702 233.403 19.081 231.281 19.1888V29.225C231.818 29.2988 232.25 29.2403 232.737 29.2126C233.688 29.1603 234.623 29.0526 235.49 28.6677C237.449 27.7996 237.998 26.1833 238.025 24.1607Z" fill="#282323"/>
<path d="M181.161 29.1234L175.456 29.1111L175.471 35.3667L175.551 36.3919C175.579 36.7613 175.631 37.2909 175.989 37.4879C176.348 37.6849 176.851 37.7557 177.268 37.7557L181.811 37.7373C182.108 37.7373 182.494 37.6572 182.786 37.6326C184.821 37.4663 185.161 35.6315 185.692 33.9568L186.636 33.9414L186.139 39.3012H167.753L167.728 38.2175L169.739 38.199C170.674 38.1898 171.808 37.6849 171.805 36.6167V20.8328C171.805 20.2017 171.391 19.5028 170.901 19.2935C170.134 18.9733 169.451 19.0657 168.58 19.0626C168.534 18.7486 168.537 18.373 168.602 17.9635H185.128L185.201 18.9702L185.293 20.4295L185.391 22.0642L185.459 23.1602L184.401 23.154C184.254 22.2951 184.095 21.5562 183.855 20.7496C183.595 20.0693 183.006 19.6321 182.215 19.629L175.45 19.6044V27.5318L180.257 27.5379C181.066 27.3255 182.402 27.7503 182.642 26.2634L182.847 24.9858L183.819 25.0012V31.8079L182.85 31.8171C182.752 30.7643 182.632 29.1265 181.158 29.1234H181.161Z" fill="#282323"/>
<path d="M209.614 29.1234L203.913 29.1111L203.928 35.2775L204.008 36.2996C204.041 36.7059 204.048 37.2631 204.452 37.4879C204.795 37.6818 205.314 37.7557 205.727 37.7557L210.27 37.7373C210.568 37.7373 210.954 37.6572 211.245 37.6326C213.284 37.4663 213.618 35.6315 214.151 33.9568C214.446 33.9352 214.774 33.9321 215.096 33.9414L214.608 39.3012H196.212L196.185 38.2144L198.196 38.196C199.13 38.1867 200.262 37.6818 200.262 36.6136V20.8297C200.262 20.1986 199.848 19.4997 199.357 19.2904C198.591 18.9702 197.907 19.0626 197.037 19.0595C196.991 18.7455 196.994 18.3699 197.061 17.9604H213.587L213.661 18.9671L213.756 20.5157L213.851 22.058L213.918 23.154L212.855 23.1479C212.579 21.9318 212.508 19.6752 210.923 19.6814C210.761 19.6506 210.525 19.5983 210.365 19.5983L203.913 19.6044V27.5287L208.716 27.5318L209.642 27.4209C210.369 27.5194 211 26.9899 211.11 26.2819L211.313 24.9827L212.275 24.995V31.8017L211.307 31.811C211.258 31.1214 211.166 30.5734 210.951 29.9515C210.703 29.4774 210.252 29.1172 209.611 29.1172L209.614 29.1234Z" fill="#282323"/>
<path d="M105.348 29.1172L99.8059 29.0864V36.4596C99.8121 36.746 99.9776 37.1923 100.168 37.3894C100.358 37.5864 100.821 37.7342 101.103 37.7342L106.142 37.7249C106.479 37.7249 106.875 37.648 107.203 37.608C109.153 37.3617 109.453 35.6223 109.977 33.966C110.259 33.926 110.55 33.9198 110.931 33.9475L110.431 39.3012H92.0166L91.9951 38.2144C93.1508 38.1467 95.4928 38.5346 95.9741 37.1061C96.0814 36.786 96.1734 36.3642 96.1734 36.004V21.5408C96.1734 21.2515 96.0783 20.9067 96.0569 20.6388C95.9802 19.7337 95.2997 19.1242 94.4138 19.0934L92.9056 19.041L92.9301 17.9635H109.435L109.514 19.0626L109.609 20.608L109.701 22.0704C109.726 22.4521 109.723 22.7384 109.726 23.1663L108.711 23.1263C108.561 22.2335 108.405 21.5347 108.156 20.7189C107.874 20.0539 107.273 19.6321 106.492 19.629L99.8182 19.6044V27.5379L104.53 27.5348L105.373 27.4271C105.79 27.4794 106.378 27.3532 106.63 26.993C107.04 26.4081 107.022 25.7462 107.132 25.0166L108.089 25.0012V31.7802C107.807 31.8295 107.457 31.8264 107.126 31.7864C107.044 30.6196 106.958 29.1295 105.361 29.1203L105.348 29.1172Z" fill="#282323"/>
<path d="M266.544 38.8825C264.058 40.1816 261.412 40.0062 258.828 39.2981C258.285 39.1503 257.77 39.1842 257.335 39.5351C257.136 39.5936 256.725 39.5752 256.471 39.5505L255.68 33.7628C256.02 33.7412 256.342 33.7412 256.691 33.7751C257.062 35.1974 257.681 36.3796 258.825 37.3186C260.315 38.5377 262.461 38.8055 264.239 38.0913C265.431 37.611 266.154 36.6043 266.243 35.3329C266.406 32.9408 264.278 31.4261 262.488 30.1516C261.17 29.2096 259.876 28.3199 258.632 27.2762C258.172 26.8914 257.761 26.4358 257.369 25.9955C256.661 25.2074 256.29 24.2469 256.146 23.1971C255.861 21.1437 256.9 19.1888 258.751 18.2406C260.98 17.1015 263.445 17.474 265.768 18.0189C266.299 18.1451 266.755 17.9974 267.145 17.6249C267.35 17.5787 267.724 17.6033 267.981 17.6433L268.729 22.9631H267.675C266.768 20.3217 264.337 18.1882 261.473 18.7763C260.643 18.9456 259.91 19.4535 259.567 20.06C259.082 20.9159 259.098 21.7933 259.432 22.6553C260.023 24.1884 262.093 25.4537 263.451 26.3711C264.937 27.3747 266.387 28.366 267.641 29.6221C268.144 30.1239 268.487 30.6965 268.809 31.2968C269.254 32.1219 269.379 32.9839 269.395 33.9229C269.416 35.3175 269.011 36.6751 268.037 37.6818C267.595 38.1375 267.148 38.5623 266.541 38.8825H266.544Z" fill="#282323"/>
</g>
<path d="M37.5908 20.59C37.5908 20.74 37.2308 20.68 36.6008 20.83C35.5208 21.07 34.0508 21.91 33.4808 22.33C35.2208 23.5 36.7208 25.93 35.4308 28.09C34.2908 29.98 31.5608 30.91 27.9608 31.06C30.4208 32.53 32.0708 34.99 30.8708 37.24C29.2208 40.33 24.1808 41.38 18.6908 41.44C15.5708 41.5 13.2908 41.11 11.0408 40.6C10.4408 40.48 9.90078 40.3 9.39078 40.24C10.3808 43.63 13.0808 45.28 16.6508 45.13C17.9408 45.07 19.5008 44.47 20.1308 44.02C20.3408 43.87 20.5808 43.69 20.6408 43.75C20.7908 43.87 20.5808 44.14 20.3708 44.29C19.5908 44.89 18.0608 45.49 16.6208 45.55C12.6608 45.76 9.78078 43.69 8.91078 40.33C8.25078 40.48 6.99078 40.69 6.24078 40.69C5.58078 40.69 5.01078 40.57 5.04078 40.21C5.10078 39.61 6.12078 39.37 6.84078 39.31C7.41078 39.25 8.19078 39.34 8.70078 39.43C8.58078 38.65 8.52078 37.93 8.52078 36.97C8.52078 33.1 10.2608 28.57 13.5008 25.42C16.9208 22.09 21.6308 20.23 27.0908 20.38C29.4608 20.44 31.8608 21.13 32.8808 21.88C33.6308 21.4 35.1308 20.74 36.3908 20.53C36.9608 20.41 37.6208 20.38 37.5908 20.59ZM33.1208 22.57C30.2108 24.88 28.1408 28.09 26.3108 30.31C26.4608 30.28 26.7008 30.34 26.8508 30.4C27.0308 30.46 27.2708 30.58 27.5408 30.76C29.5208 30.58 31.4408 29.62 32.9108 27.52C34.6808 25 33.7808 23.26 33.1208 22.57ZM32.5208 22.12C31.7108 21.52 29.5508 20.86 27.0908 20.83C21.9008 20.77 17.7908 23.41 14.7308 26.32C11.1308 29.77 9.21078 33.73 9.09078 37.15C9.09078 38.11 9.09078 38.71 9.24078 39.52C9.84078 39.67 10.4708 39.64 11.0708 39.52C14.4008 38.86 17.7908 36.01 22.3508 31.06C25.5308 27.61 29.4608 23.86 32.5208 22.12ZM27.9908 36.76C29.4008 34.6 29.0408 31.9 27.1208 31.09C26.9108 31.12 26.6108 31.09 26.4008 31.03C26.1908 30.91 26.0408 30.79 26.0408 30.61C25.8908 30.82 25.3508 31.42 25.2308 31.57C19.2308 38.14 13.8908 39.64 10.3208 40C10.5908 40.06 10.8908 40.09 11.1608 40.18C13.6808 40.72 15.5408 40.99 18.8408 40.96C23.1608 40.93 26.4008 39.22 27.9908 36.76ZM38.2798 37.06C37.8898 37.42 36.8998 38.32 36.6598 38.5C35.5198 39.43 34.1998 40.39 32.9398 40.36C31.7098 40.3 31.3498 39.34 31.6498 38.5C31.9198 37.63 32.6098 36.61 33.7198 35.5C34.8898 34.27 36.9598 32.62 38.1598 31.9C38.6398 31.63 40.0498 31.42 41.0698 31.42C38.3998 33.61 35.7598 36.19 34.7098 37.48C33.7798 38.62 33.2998 39.37 33.7198 39.61C34.1998 39.85 35.4598 38.95 36.4498 38.17C37.5898 37.24 38.2198 36.58 39.2998 35.5C40.9198 33.88 42.5698 32.35 43.7998 31.57C44.2798 31.27 45.7498 31.21 46.2898 31.21C46.4098 31.21 46.5298 31.21 46.5298 31.27C46.5298 31.36 46.4398 31.36 46.3198 31.45C46.0198 31.63 45.6898 31.87 45.1498 32.41C43.6198 33.88 42.8998 34.66 41.0098 36.67C38.0398 39.88 33.7498 44.74 30.6598 47.29C23.3098 53.38 15.5998 55.78 9.65984 55.66C3.11984 55.51 -0.000157595 51.01 2.00984 46.51C2.18984 46.09 2.72984 45.31 2.96984 45.52C3.02984 45.61 2.96984 45.7 2.66984 46.3C0.539843 50.68 3.56984 55.03 9.50984 55.18C16.0498 55.36 22.3498 51.91 28.2598 46.96C31.2598 44.44 36.0598 39.52 38.2798 37.06Z" fill="#282323"/>
<defs>
<clipPath id="clip0_0_1">
<rect width="220" height="40" fill="white" transform="translate(49.5508)"/>
</clipPath>
</defs>
</svg>
