<svg width="270" height="47" viewBox="0 0 270 47" fill="none" xmlns="http://www.w3.org/2000/svg">
<g clip-path="url(#clip0_0_1)">
<path d="M130.847 39.3011L130.813 38.1251C132.309 38.0696 134.333 38.2944 135.562 37.3893C136.377 36.7859 136.705 34.8618 136.705 33.9474V5.71683C136.705 4.93795 136.531 4.18986 136.313 3.50025C135.672 1.4376 132.898 1.99791 131.276 1.90863L131.258 0.751081C131.859 0.674117 132.447 0.643331 133.085 0.609466L134.722 0.520187L136.451 0.42783L137.815 0.357023L138.64 0.301608L141.408 0.224644C143.351 0.169229 145.279 0.104579 147.217 0.224644L148.777 0.32008C151.463 0.483245 154.384 1.55767 156.119 3.71883C157.489 5.42745 158.121 7.54859 158.001 9.76517C157.823 13.2255 155.662 16.1348 152.272 17.3262C156.527 18.9609 159.304 22.0456 159.684 26.5711C159.758 27.4239 159.776 28.2982 159.684 29.1571C159.402 31.7832 158.345 34.2183 156.576 36.1332C155.558 37.2353 154.436 38.1066 153.02 38.5961C151.705 39.0486 150.35 39.2395 148.958 39.2703L145.644 39.3442C145.258 39.3534 144.921 39.3257 144.522 39.3257L130.847 39.3103V39.3011ZM153.483 8.84159C153.366 6.72969 152.447 4.88869 150.877 3.4787C149.902 2.60439 148.697 2.1426 147.382 1.97636C146.138 1.81935 144.329 1.74546 143.118 1.85937L140.905 2.06871V16.7813L147.324 16.7505C148.204 16.7474 149.032 16.5073 149.844 16.2733C152.857 15.2266 153.639 11.68 153.483 8.84467V8.84159ZM148.195 37.5217C150.552 37.3031 152.443 35.9793 153.621 33.9813C154.736 32.0849 155.117 29.936 155.11 27.7164C155.101 24.9672 154.047 22.3319 152.005 20.5187C150.638 19.2287 149.016 18.5545 147.131 18.5453L140.902 18.5083L140.948 28.9386L141.049 32.0479C141.086 33.1562 141.159 34.2768 141.647 35.2866C142.784 37.6448 145.856 37.7402 148.198 37.5247L148.195 37.5217Z" fill="#282323"/>
<path d="M49.7376 39.295L49.71 38.122C50.6143 38.1189 51.4052 38.1313 52.239 37.9219C53.9894 37.4847 54.2898 35.9054 54.4277 34.3785L54.5228 33.341L54.5105 5.80307C54.5105 4.94415 54.2959 4.14679 54.0599 3.37407C53.7625 2.4074 52.6038 1.94869 51.7056 1.93022L49.7345 1.88404L49.71 0.723412L51.8067 0.597191L53.1648 0.53254L54.2714 0.477126L56.8556 0.40324L59.5685 0.304725L62.5727 0.215446C63.8326 0.178504 65.0741 0.129246 66.3463 0.200054L67.6277 0.270861C71.0947 0.461733 74.4545 1.36376 77.2379 3.46643C81.6553 6.80361 83.6693 11.7878 84.0218 17.2215C84.4326 23.5788 82.1335 30.6811 77.4096 35.0558C75.7052 36.6351 73.7617 37.6972 71.5729 38.433C69.8011 39.0271 68.0599 39.3904 66.1624 39.2857C65.8466 39.2673 65.4726 39.3473 65.16 39.3658C64.0043 39.4273 62.916 39.3442 61.7511 39.3381L49.7437 39.2919L49.7376 39.295ZM79.3807 21.0636C79.5646 18.0066 79.1416 14.263 78.0748 11.403C76.7444 7.83493 74.5863 5.11655 71.0702 3.54955C69.3566 2.78606 67.5449 2.43202 65.675 2.22268L64.7001 2.11185C64.3875 2.07799 64.0104 2.02257 63.7008 2.02257L59.6176 2.0041C59.3325 2.0041 58.9953 2.10262 58.7102 2.19497V33.7935L58.8052 34.8279C58.8451 35.2866 58.7562 36.6104 59.4275 37.1215C59.8628 37.4509 60.4606 37.5987 61.0246 37.6233C62.2845 37.6787 63.523 37.7187 64.7982 37.6325L66.0704 37.5463C68.7956 37.3585 71.3522 36.4134 73.4214 34.6371C77.3391 31.2753 79.0772 26.1155 79.3807 21.0636Z" fill="#282323"/>
<path d="M237.832 33.9228C237.072 33.107 235.049 30.9889 234.154 30.5979C233.737 30.4163 233.154 30.6041 232.734 30.6133L231.278 30.6502L231.29 35.9146C231.29 36.1732 231.379 36.5334 231.413 36.792C231.517 37.6202 232.124 38.2328 232.958 38.2605L234.552 38.3098L234.534 39.298H224.663L224.645 38.3128L225.981 38.2667C226.812 38.239 227.459 37.6694 227.572 36.8536C227.612 36.5642 227.725 36.1948 227.725 35.8838V21.3529C227.725 20.925 227.56 19.6782 227.017 19.4257C226.275 19.0809 225.564 19.0502 224.672 19.0471C224.651 18.7423 224.654 18.3636 224.672 17.988L226.251 17.9142L228.697 17.8187C230.76 17.7387 232.805 17.7356 234.871 17.8249C237.081 17.9203 239.086 18.4899 240.597 20.0969C241.722 21.2883 242.167 22.8738 241.977 24.4685C241.667 27.0668 240.091 28.4706 237.949 29.4865L238.703 30.133C239.371 30.7057 239.954 31.3552 240.557 32.0017L242.099 33.6488C244.181 35.8684 246.848 38.3713 250.07 38.5068L250.109 39.4611L249.472 39.5166C249.19 39.5412 248.929 39.5166 248.638 39.5135L245.95 39.455C244.546 39.4242 242.084 38.1527 241.091 37.2076C239.966 36.1363 238.893 35.0649 237.835 33.9289L237.832 33.9228ZM238.025 24.1606C238.041 22.846 237.737 21.5777 236.839 20.5864C235.377 18.9701 233.403 19.0809 231.281 19.1887V29.2249C231.818 29.2988 232.25 29.2403 232.737 29.2126C233.688 29.1602 234.623 29.0525 235.49 28.6676C237.449 27.7995 237.998 26.1832 238.025 24.1606Z" fill="#282323"/>
<path d="M181.161 29.1235L175.456 29.1112L175.471 35.3668L175.551 36.392C175.579 36.7614 175.631 37.291 175.989 37.488C176.348 37.685 176.851 37.7558 177.268 37.7558L181.811 37.7373C182.108 37.7373 182.494 37.6573 182.786 37.6327C184.821 37.4664 185.161 35.6316 185.692 33.9569L186.636 33.9415L186.139 39.3013H167.753L167.728 38.2176L169.739 38.1991C170.674 38.1899 171.808 37.685 171.805 36.6167V20.8329C171.805 20.2018 171.391 19.5029 170.901 19.2936C170.134 18.9734 169.451 19.0658 168.58 19.0627C168.534 18.7487 168.537 18.3731 168.602 17.9636H185.128L185.201 18.9703L185.293 20.4296L185.391 22.0643L185.459 23.1603L184.401 23.1541C184.254 22.2952 184.095 21.5563 183.855 20.7497C183.595 20.0694 183.006 19.6322 182.215 19.6291L175.45 19.6045V27.5319L180.257 27.538C181.066 27.3256 182.402 27.7504 182.642 26.2635L182.847 24.9859L183.819 25.0013V31.808L182.85 31.8172C182.752 30.7644 182.632 29.1266 181.158 29.1235H181.161Z" fill="#282323"/>
<path d="M209.614 29.1234L203.913 29.1111L203.928 35.2775L204.008 36.2996C204.041 36.7059 204.048 37.2631 204.452 37.4879C204.795 37.6818 205.314 37.7557 205.727 37.7557L210.27 37.7373C210.568 37.7373 210.954 37.6572 211.245 37.6326C213.284 37.4663 213.618 35.6315 214.151 33.9568C214.446 33.9352 214.774 33.9321 215.096 33.9414L214.608 39.3012H196.212L196.185 38.2144L198.196 38.196C199.13 38.1867 200.262 37.6818 200.262 36.6136V20.8297C200.262 20.1986 199.848 19.4997 199.357 19.2904C198.591 18.9702 197.907 19.0626 197.037 19.0595C196.991 18.7455 196.994 18.3699 197.061 17.9604H213.587L213.661 18.9671L213.756 20.5157L213.851 22.058L213.918 23.154L212.855 23.1479C212.579 21.9318 212.508 19.6752 210.923 19.6814C210.761 19.6506 210.525 19.5983 210.365 19.5983L203.913 19.6044V27.5287L208.716 27.5318L209.642 27.4209C210.369 27.5194 211 26.9899 211.11 26.2819L211.313 24.9827L212.275 24.995V31.8017L211.307 31.811C211.258 31.1214 211.166 30.5734 210.951 29.9515C210.703 29.4774 210.252 29.1172 209.611 29.1172L209.614 29.1234Z" fill="#282323"/>
<path d="M105.348 29.1173L99.8059 29.0865V36.4597C99.8121 36.746 99.9776 37.1924 100.168 37.3895C100.358 37.5865 100.821 37.7343 101.103 37.7343L106.142 37.725C106.479 37.725 106.875 37.6481 107.203 37.608C109.153 37.3618 109.453 35.6224 109.977 33.9661C110.259 33.9261 110.55 33.9199 110.931 33.9476L110.431 39.3013H92.0166L91.9951 38.2145C93.1508 38.1468 95.4928 38.5347 95.9741 37.1062C96.0814 36.7861 96.1734 36.3643 96.1734 36.0041V21.5409C96.1734 21.2515 96.0783 20.9067 96.0569 20.6389C95.9802 19.7338 95.2997 19.1242 94.4138 19.0935L92.9056 19.0411L92.9301 17.9636H109.435L109.514 19.0627L109.609 20.6081L109.701 22.0705C109.726 22.4522 109.723 22.7385 109.726 23.1664L108.711 23.1264C108.561 22.2336 108.405 21.5348 108.156 20.719C107.874 20.054 107.273 19.6322 106.492 19.6291L99.8182 19.6045V27.538L104.53 27.5349L105.373 27.4272C105.79 27.4795 106.378 27.3533 106.63 26.9931C107.04 26.4082 107.022 25.7463 107.132 25.0167L108.089 25.0013V31.7803C107.807 31.8296 107.457 31.8265 107.126 31.7865C107.044 30.6197 106.958 29.1296 105.361 29.1204L105.348 29.1173Z" fill="#282323"/>
<path d="M266.544 38.8825C264.058 40.1817 261.412 40.0062 258.828 39.2981C258.285 39.1504 257.77 39.1842 257.335 39.5352C257.136 39.5937 256.725 39.5752 256.471 39.5506L255.68 33.7628C256.02 33.7413 256.342 33.7413 256.691 33.7752C257.062 35.1975 257.681 36.3796 258.825 37.3186C260.315 38.5377 262.461 38.8056 264.239 38.0913C265.431 37.6111 266.154 36.6044 266.243 35.3329C266.406 32.9409 264.278 31.4262 262.488 30.1517C261.17 29.2096 259.876 28.3199 258.632 27.2763C258.172 26.8915 257.761 26.4358 257.369 25.9956C256.661 25.2075 256.29 24.247 256.146 23.1972C255.861 21.1437 256.9 19.1888 258.751 18.2406C260.98 17.1016 263.445 17.4741 265.768 18.019C266.299 18.1452 266.755 17.9974 267.145 17.6249C267.35 17.5788 267.724 17.6034 267.981 17.6434L268.729 22.9632H267.675C266.768 20.3218 264.337 18.1883 261.473 18.7763C260.643 18.9456 259.91 19.4536 259.567 20.0601C259.082 20.9159 259.098 21.7933 259.432 22.6553C260.023 24.1885 262.093 25.4538 263.451 26.3712C264.937 27.3748 266.387 28.3661 267.641 29.6222C268.144 30.124 268.487 30.6966 268.809 31.2969C269.254 32.122 269.379 32.984 269.395 33.9229C269.416 35.3175 269.011 36.6752 268.037 37.6819C267.595 38.1375 267.148 38.5624 266.541 38.8825H266.544Z" fill="#282323"/>
</g>
<path d="M37.5908 11.59C37.5908 11.74 37.2308 11.68 36.6008 11.83C35.5208 12.07 34.0508 12.91 33.4808 13.33C35.2208 14.5 36.7208 16.93 35.4308 19.09C34.2908 20.98 31.5608 21.91 27.9608 22.06C30.4208 23.53 32.0708 25.99 30.8708 28.24C29.2208 31.33 24.1808 32.38 18.6908 32.44C15.5708 32.5 13.2908 32.11 11.0408 31.6C10.4408 31.48 9.90078 31.3 9.39078 31.24C10.3808 34.63 13.0808 36.28 16.6508 36.13C17.9408 36.07 19.5008 35.47 20.1308 35.02C20.3408 34.87 20.5808 34.69 20.6408 34.75C20.7908 34.87 20.5808 35.14 20.3708 35.29C19.5908 35.89 18.0608 36.49 16.6208 36.55C12.6608 36.76 9.78078 34.69 8.91078 31.33C8.25078 31.48 6.99078 31.69 6.24078 31.69C5.58078 31.69 5.01078 31.57 5.04078 31.21C5.10078 30.61 6.12078 30.37 6.84078 30.31C7.41078 30.25 8.19078 30.34 8.70078 30.43C8.58078 29.65 8.52078 28.93 8.52078 27.97C8.52078 24.1 10.2608 19.57 13.5008 16.42C16.9208 13.09 21.6308 11.23 27.0908 11.38C29.4608 11.44 31.8608 12.13 32.8808 12.88C33.6308 12.4 35.1308 11.74 36.3908 11.53C36.9608 11.41 37.6208 11.38 37.5908 11.59ZM33.1208 13.57C30.2108 15.88 28.1408 19.09 26.3108 21.31C26.4608 21.28 26.7008 21.34 26.8508 21.4C27.0308 21.46 27.2708 21.58 27.5408 21.76C29.5208 21.58 31.4408 20.62 32.9108 18.52C34.6808 16 33.7808 14.26 33.1208 13.57ZM32.5208 13.12C31.7108 12.52 29.5508 11.86 27.0908 11.83C21.9008 11.77 17.7908 14.41 14.7308 17.32C11.1308 20.77 9.21078 24.73 9.09078 28.15C9.09078 29.11 9.09078 29.71 9.24078 30.52C9.84078 30.67 10.4708 30.64 11.0708 30.52C14.4008 29.86 17.7908 27.01 22.3508 22.06C25.5308 18.61 29.4608 14.86 32.5208 13.12ZM27.9908 27.76C29.4008 25.6 29.0408 22.9 27.1208 22.09C26.9108 22.12 26.6108 22.09 26.4008 22.03C26.1908 21.91 26.0408 21.79 26.0408 21.61C25.8908 21.82 25.3508 22.42 25.2308 22.57C19.2308 29.14 13.8908 30.64 10.3208 31C10.5908 31.06 10.8908 31.09 11.1608 31.18C13.6808 31.72 15.5408 31.99 18.8408 31.96C23.1608 31.93 26.4008 30.22 27.9908 27.76ZM38.2798 28.06C37.8898 28.42 36.8998 29.32 36.6598 29.5C35.5198 30.43 34.1998 31.39 32.9398 31.36C31.7098 31.3 31.3498 30.34 31.6498 29.5C31.9198 28.63 32.6098 27.61 33.7198 26.5C34.8898 25.27 36.9598 23.62 38.1598 22.9C38.6398 22.63 40.0498 22.42 41.0698 22.42C38.3998 24.61 35.7598 27.19 34.7098 28.48C33.7798 29.62 33.2998 30.37 33.7198 30.61C34.1998 30.85 35.4598 29.95 36.4498 29.17C37.5898 28.24 38.2198 27.58 39.2998 26.5C40.9198 24.88 42.5698 23.35 43.7998 22.57C44.2798 22.27 45.7498 22.21 46.2898 22.21C46.4098 22.21 46.5298 22.21 46.5298 22.27C46.5298 22.36 46.4398 22.36 46.3198 22.45C46.0198 22.63 45.6898 22.87 45.1498 23.41C43.6198 24.88 42.8998 25.66 41.0098 27.67C38.0398 30.88 33.7498 35.74 30.6598 38.29C23.3098 44.38 15.5998 46.78 9.65984 46.66C3.11984 46.51 -0.000157595 42.01 2.00984 37.51C2.18984 37.09 2.72984 36.31 2.96984 36.52C3.02984 36.61 2.96984 36.7 2.66984 37.3C0.539843 41.68 3.56984 46.03 9.50984 46.18C16.0498 46.36 22.3498 42.91 28.2598 37.96C31.2598 35.44 36.0598 30.52 38.2798 28.06Z" fill="#282323"/>
<defs>
<clipPath id="clip0_0_1">
<rect width="220" height="40" fill="white" transform="translate(49.5508)"/>
</clipPath>
</defs>
</svg>
