<svg width="135" height="33" viewBox="0 0 135 33" fill="none" xmlns="http://www.w3.org/2000/svg">
    <path d="M133.5 18.6494L132.438 18.9736C124.034 21.5366 115.981 25.6109 108.275 31.2129L107.881 31.5H97.8506L99.6729 29.0947C101.563 26.5992 103.399 24.4023 105.183 22.5098L105.201 22.4912L105.219 22.4727C105.953 21.7452 106.682 21.062 107.403 20.4229H1.5V12.5771H107.514C106.757 11.8984 105.991 11.1774 105.219 10.4121L105.201 10.3936L105.183 10.375C103.406 8.48964 101.574 6.33804 99.6865 3.92383L97.792 1.5H107.875L108.268 1.78125C115.977 7.31035 124.037 11.389 132.449 14.0303L133.5 14.3604V18.6494Z" fill="#F2E772" stroke="black" stroke-width="3"/>
</svg>
