<svg width="46" height="39" viewBox="0 0 46 39" fill="none" xmlns="http://www.w3.org/2000/svg">
<g clip-path="url(#clip0_327_1043)">
<path d="M34.7158 1.00391L32.1738 7.48047L31.9248 8.11523H31.2432L1.37598 8.12012L7.09961 25.7764L27.8721 25.7725L33.4395 8.85156L33.4473 8.82617L33.457 8.80078L35.5635 3.39844L35.8115 2.7627L36.4951 2.76172L45 2.75977L44.998 1L34.7158 1.00391Z" fill="#282323" stroke="#282323" stroke-width="2"/>
<path d="M9.05078 30.9799C7.65204 30.7497 6.31184 31.5234 5.71582 32.7758C5.06852 34.1353 5.39205 35.6969 6.40039 36.6566L6.40137 36.6576C7.48816 37.6946 9.06719 37.8686 10.3223 37.0072L10.375 36.9711C11.4367 36.2139 11.9392 34.9648 11.7363 33.6947L11.6855 33.4369C11.3962 32.2085 10.3732 31.2006 9.0498 30.9808L9.05078 30.9799Z" fill="#282323" stroke="#282323" stroke-width="2"/>
<path d="M24.8164 30.9925C23.0039 30.8939 21.5464 32.3339 21.4531 34.1429C21.3624 35.9066 22.7525 37.4804 24.5117 37.5765C26.2476 37.6711 27.7218 36.3106 27.8447 34.513C27.9635 32.7763 26.7253 31.1935 24.9863 31.0062L24.8164 30.9925Z" fill="#282323" stroke="#282323" stroke-width="2"/>
</g>
<defs>
<clipPath id="clip0_327_1043">
<rect width="46" height="38.5806" fill="white" transform="matrix(-1 0 0 1 46 0)"/>
</clipPath>
</defs>
</svg>
