<svg width="138" height="121" viewBox="0 0 138 121" fill="none" xmlns="http://www.w3.org/2000/svg">
    <g clip-path="url(#clip0_186_37)">
    <path d="M84.6143 27.4434L85.4805 29.7783L87.8184 28.9209L112.373 19.918L104.248 41.291L103.198 44.0518L106.095 44.6309L131.336 49.6758L110.526 62.6855L107.855 64.3555L110.088 66.5771L126.934 83.3477L100.745 83.2627L97.9697 83.2529L98.249 86.0146L100.548 108.697L78.8633 94.9893L76.8418 93.7109L75.4756 95.6738L61.5801 115.645L53.3857 93.5566L52.5186 91.2197L50.1797 92.0791L25.625 101.104L33.752 79.709L34.8008 76.9482L31.9053 76.3691L6.66992 71.3242L27.4727 58.3418L30.1445 56.6738L27.9131 54.4502L11.0596 37.6514L37.2549 37.7373L40.0303 37.7471L39.751 34.9854L37.4512 12.3018L59.1367 26.0107L61.1582 27.2891L62.5244 25.3262L76.4189 5.35449L84.6143 27.4434Z" stroke="#F2E772" stroke-width="5"/>
    <path d="M50.1764 46.687L52.1166 47.7241L54.7801 42.7413L54.7706 32.4177L53.6241 31.8049L54.2606 30.6143L60.0591 33.7138L59.4227 34.9044L57.6369 33.9498L57.5483 42.1233L57.6586 42.1822L64.4055 37.5679L62.6197 36.6133L63.2561 35.4227L67.7759 37.8387L67.1395 39.0293L65.993 38.4164L57.5452 43.8792L54.7403 49.1265L56.6805 50.1636L56.0441 51.3542L49.54 47.8776L50.1764 46.687ZM65.1559 54.8924C66.0819 55.3874 66.9112 55.4622 67.6439 55.1168C68.3913 54.7793 69.0203 54.1328 69.531 53.1774L71.1809 50.0907C71.6916 49.1353 71.8797 48.2531 71.7452 47.4442C71.6253 46.6431 71.1024 45.995 70.1764 45.5C69.2504 45.0051 68.4137 44.9263 67.6663 45.2639C66.9337 45.6093 66.312 46.2597 65.8013 47.2151L64.1513 50.3018C63.6406 51.2572 63.4452 52.1354 63.5651 52.9365C63.6996 53.7455 64.2299 54.3974 65.1559 54.8924ZM64.4605 56.1932C63.6521 55.7611 62.9918 55.2286 62.4797 54.5958C61.9675 53.963 61.6138 53.2636 61.4184 52.4978C61.223 51.7319 61.1895 50.9108 61.3178 50.0344C61.4686 49.1512 61.7915 48.2466 62.2865 47.3206C62.7815 46.3946 63.3503 45.6309 63.993 45.0296C64.6583 44.4214 65.3636 43.9857 66.1089 43.7227C66.8543 43.4597 67.6323 43.3653 68.443 43.4396C69.2538 43.5139 70.0633 43.7671 70.8717 44.1992C71.6802 44.6313 72.3405 45.1638 72.8526 45.7967C73.3648 46.4295 73.7185 47.1288 73.9139 47.8947C74.1092 48.6606 74.1315 49.4851 73.9807 50.3683C73.8524 51.2447 73.5408 52.1458 73.0458 53.0718C72.5508 53.9979 71.9707 54.765 71.3054 55.3732C70.6627 55.9745 69.9687 56.4067 69.2233 56.6697C68.478 56.9328 67.7 57.0271 66.8892 56.9529C66.0785 56.8786 65.269 56.6254 64.4605 56.1932ZM76.725 62.749C75.3286 62.0026 74.525 61.1195 74.3142 60.0997C74.1113 59.0652 74.3909 57.835 75.153 56.4093L78.1936 50.7209L76.8475 49.6329L77.3661 48.6628L81.7472 50.0125L77.693 57.597C77.1823 58.5524 76.9929 59.3488 77.1246 59.9861C77.2564 60.6235 77.7191 61.1543 78.5129 61.5786C78.8068 61.7357 79.1131 61.8522 79.4316 61.928C79.7728 61.9969 80.0968 62.0095 80.4037 61.9657C80.7331 61.915 81.0308 61.8001 81.2966 61.6209C81.5772 61.4496 81.8118 61.1876 82.0003 60.8348L85.3591 54.5512L84.0131 53.4631L84.5316 52.493L88.9127 53.8427L83.5858 63.8083L84.9318 64.8964L84.4133 65.8665L80.0983 64.5521L81.1943 62.5017L81.0841 62.4428C80.8624 62.6455 80.5891 62.8207 80.2645 62.9685C79.9546 63.1241 79.6089 63.2228 79.2275 63.2646C78.8607 63.3142 78.4622 63.2996 78.0319 63.2208C77.6163 63.1498 77.1807 62.9926 76.725 62.749ZM86.4291 66.0652L87.9284 66.8666L92.4775 58.3562L91.1314 57.2681L91.65 56.298L95.9649 57.6124L94.8689 59.6628L94.9791 59.7217C95.2235 59.5122 95.482 59.3291 95.7547 59.1725C96.0499 59.009 96.3588 58.8907 96.6815 58.8174C97.0188 58.7521 97.3658 58.7392 97.7227 58.7787C98.0942 58.8261 98.471 58.9519 98.8532 59.1562C99.5293 59.5176 99.9755 59.9734 100.192 60.5237C100.422 61.0817 100.369 61.6768 100.031 62.3088C99.764 62.8085 99.4196 63.1347 98.9979 63.2872C98.5987 63.433 98.1787 63.388 97.7377 63.1522C97.282 62.9087 96.9848 62.5986 96.8459 62.222C96.7296 61.8386 96.7697 61.4631 96.9661 61.0956C97.0997 60.8458 97.2611 60.6675 97.4504 60.5608C97.6476 60.4394 97.8275 60.4033 97.9902 60.4525L98.0256 60.3863C97.9893 60.3481 97.9418 60.3132 97.883 60.2818C97.8321 60.2357 97.7478 60.1812 97.6302 60.1183C97.351 59.969 97.0324 59.8933 96.6746 59.891C96.3314 59.8965 95.9868 59.958 95.6406 60.0753C95.3169 60.1858 95.0104 60.3526 94.721 60.5759C94.4394 60.7845 94.224 61.0284 94.0747 61.3076L90.3977 68.1866L92.3379 69.2237L91.7015 70.4143L85.7927 67.2558L86.4291 66.0652ZM45.0357 70.7558C44.1685 70.2922 43.4753 69.7327 42.9564 69.0774C42.4521 68.4298 42.1135 67.7197 41.9407 66.947C41.7679 66.1743 41.7603 65.3576 41.918 64.497C42.0756 63.6363 42.3902 62.7651 42.8616 61.8832C43.3644 60.9424 43.9519 60.1793 44.624 59.5936C45.304 58.9933 46.0314 58.5694 46.8061 58.3221C47.5808 58.0748 48.377 57.9996 49.1945 58.0964C50.0347 58.1864 50.8589 58.4475 51.6673 58.8796C52.9314 59.5553 53.7748 60.3463 54.1975 61.2526C54.6349 62.1667 54.6336 63.0353 54.1936 63.8584C53.9186 64.3729 53.5629 64.7025 53.1265 64.8471C52.6979 64.9771 52.2485 64.9164 51.7781 64.665C51.2931 64.4057 50.9963 64.077 50.8879 63.6789C50.7873 63.266 50.847 62.8538 51.067 62.4423C51.2477 62.1042 51.493 61.8574 51.8029 61.7018C52.1129 61.5462 52.4389 61.4842 52.7811 61.5159L52.84 61.4057C52.7029 61.2379 52.5178 61.0539 52.2846 60.8537C52.0593 60.6388 51.7483 60.4253 51.3514 60.2131C50.8663 59.9539 50.3782 59.8063 49.8871 59.7706C49.396 59.7348 48.9243 59.804 48.4722 59.9781C48.0279 60.1375 47.6071 60.3944 47.2097 60.749C46.827 61.1114 46.4903 61.5645 46.1996 62.1083L45.1743 64.0265C44.585 65.1289 44.3895 66.1488 44.5876 67.0862C44.7936 68.009 45.367 68.7218 46.3077 69.2246C47.1896 69.696 47.9752 69.8703 48.6646 69.7474C49.3686 69.6324 50.0022 69.3663 50.5653 68.9492L51.2069 70.0292C50.8704 70.3406 50.4789 70.6133 50.0326 70.8472C49.5863 71.0811 49.097 71.2542 48.5645 71.3664C48.0399 71.464 47.4767 71.4747 46.8748 71.3987C46.2807 71.3079 45.6677 71.0936 45.0357 70.7558ZM54.571 75.8527C53.4245 75.2399 52.7066 74.4971 52.4172 73.6242C52.1504 72.7446 52.2802 71.8124 52.8066 70.8275C53.4037 69.7105 54.2523 69.0774 55.3525 68.9285C56.4526 68.7795 57.8993 69.1843 59.6925 70.1428L61.28 70.9913L62.0814 69.4921C62.5606 68.5955 62.7275 67.8059 62.5821 67.1234C62.4367 66.4409 61.9377 65.8719 61.0852 65.4162C60.3649 65.0312 59.7661 64.8434 59.2886 64.8527L59.2415 64.9409C59.3639 65.1008 59.4402 65.3117 59.4703 65.5735C59.523 65.8284 59.4629 66.1176 59.2901 66.4409C59.0701 66.8525 58.7684 67.1164 58.3849 67.2328C58.0162 67.3569 57.604 67.2972 57.1483 67.0537C56.7662 66.8494 56.5096 66.5516 56.3786 66.1603C56.2701 65.7621 56.3338 65.3426 56.5695 64.9016C56.7502 64.5636 57.0186 64.2913 57.3746 64.0847C57.7533 63.8714 58.2005 63.7419 58.7162 63.6963C59.2319 63.6507 59.801 63.6998 60.4234 63.8435C61.0605 63.9951 61.7392 64.2633 62.4594 64.6483C63.8411 65.3869 64.7118 66.2681 65.0717 67.2919C65.4315 68.3158 65.3011 69.4083 64.6804 70.5695L61.0033 77.4484L62.5026 78.2498L61.9723 79.242C61.7036 79.2496 61.3841 79.211 61.0135 79.1264C60.643 79.0417 60.2741 78.9012 59.9066 78.7048C59.2305 78.3433 58.8211 77.9072 58.6784 77.3963C58.5583 76.8785 58.6436 76.3477 58.9343 75.8039L58.9932 75.6936L58.883 75.6347C58.6465 75.8296 58.3846 76.0014 58.0972 76.1501C57.8177 76.2842 57.4945 76.376 57.1278 76.4257C56.7758 76.4832 56.3886 76.4652 55.9661 76.3717C55.5358 76.2928 55.0708 76.1199 54.571 75.8527ZM56.3661 74.8279C57.0128 75.1736 57.6245 75.3021 58.201 75.2135C58.7923 75.1326 59.2765 74.7395 59.6536 74.0339L60.7025 72.0717L59.3796 71.3646C58.336 70.8067 57.5181 70.5868 56.9258 70.7049C56.3336 70.823 55.8685 71.1981 55.5306 71.8301L55.3067 72.249C55.0239 72.7781 54.9808 73.2654 55.1774 73.7106C55.3819 74.1412 55.7781 74.5137 56.3661 74.8279ZM64.1621 79.1086L65.6614 79.91L70.2105 71.3995L68.8644 70.3115L69.383 69.3414L73.698 70.6557L72.6019 72.7061L72.7122 72.7651C72.9565 72.5555 73.215 72.3724 73.4877 72.2158C73.7829 72.0523 74.0919 71.934 74.4145 71.8608C74.7518 71.7954 75.0989 71.7825 75.4557 71.822C75.8272 71.8694 76.2041 71.9953 76.5862 72.1996C77.2624 72.561 77.7085 73.0168 77.9246 73.567C78.1555 74.125 78.102 74.7201 77.7642 75.3521C77.497 75.8519 77.1526 76.178 76.7309 76.3306C76.3317 76.4763 75.9117 76.4313 75.4707 76.1956C75.0151 75.952 74.7178 75.6419 74.5789 75.2653C74.4626 74.8819 74.5027 74.5064 74.6991 74.139C74.8327 73.8891 74.9941 73.7108 75.1834 73.6041C75.3806 73.4827 75.5605 73.4466 75.7232 73.4958L75.7586 73.4297C75.7224 73.3914 75.6748 73.3566 75.6161 73.3251C75.5651 73.279 75.4809 73.2245 75.3633 73.1617C75.084 73.0124 74.7654 72.9366 74.4076 72.9343C74.0644 72.9399 73.7198 73.0013 73.3736 73.1186C73.05 73.2291 72.7434 73.396 72.454 73.6192C72.1724 73.8278 71.957 74.0717 71.8077 74.351L68.1307 81.2299L70.0709 82.267L69.4345 83.4576L63.5257 80.2991L64.1621 79.1086ZM77.4447 87.9661C76.6069 87.5182 76.1132 87.0276 75.9637 86.4941C75.8142 85.9606 75.9438 85.3117 76.3523 84.5474L80.7129 76.3897L79.2136 75.5883L79.8972 74.3095L80.272 74.5099C80.8158 74.8006 81.2417 74.9054 81.5496 74.8243C81.8576 74.7432 82.1759 74.5543 82.5046 74.2576L84.2252 72.6827L85.5039 73.3662L83.8658 76.4309L86.6218 77.9041L85.9382 79.1828L83.1822 77.7097L78.4092 86.639L81.1652 88.1122L80.6466 89.0823C80.3339 89.0663 79.8747 88.9532 79.269 88.7428C78.6702 88.555 78.0621 88.2961 77.4447 87.9661Z" fill="#F2E772"/>
    </g>
    <defs>
    <clipPath id="clip0_186_37">
    <rect width="138" height="121" fill="white"/>
    </clipPath>
    </defs>
</svg>
