<svg width="45" height="39" viewBox="0 0 45 39" fill="none" xmlns="http://www.w3.org/2000/svg">
<path d="M31.7793 7.4679C30.8493 8.49544 29.5142 9.1151 28.0742 9.11536L3.00195 9.11926C2.32294 9.11938 1.8414 9.78194 2.05078 10.4279L6.47754 24.0851C6.61135 24.4973 6.99626 24.7766 7.42969 24.7765L25.2998 24.7716C25.7316 24.7715 26.115 24.4942 26.25 24.0841L31.3652 8.53821L31.3818 8.48645L31.4014 8.43665L31.7793 7.4679ZM34.9541 2.00305C34.5431 2.00333 34.1736 2.25528 34.0234 2.63782L33.7275 3.39368C34.3135 2.75106 35.0582 2.26972 35.8887 2.00208L34.9541 2.00305Z" stroke="#F2E772" stroke-width="4"/>
<path d="M7.7627 31.9653C6.89692 31.8236 6.03015 32.2608 5.5791 33.0435L5.49512 33.2046C5.03389 34.1732 5.27038 35.2691 5.96582 35.9312L5.96777 35.9331C6.73224 36.6626 7.78985 36.7607 8.63281 36.1821L8.66797 36.1577C9.46267 35.5922 9.81676 34.6396 9.58789 33.6655C9.38867 32.8196 8.67767 32.1175 7.7627 31.9653Z" stroke="#F2E772" stroke-width="4"/>
<path d="M23.6377 31.9907C22.4362 31.9254 21.3962 32.8765 21.3281 34.1928C21.2649 35.4193 22.246 36.5124 23.4424 36.5776C24.5915 36.6402 25.6342 35.7374 25.7227 34.4438C25.8104 33.1601 24.8624 32.0572 23.6387 31.9907H23.6377Z" stroke="#F2E772" stroke-width="4"/>
</svg>
