<svg width="39" height="39" viewBox="0 0 39 39" fill="none" xmlns="http://www.w3.org/2000/svg">
<path d="M5.54946 26.0244C1.84558 21.0202 0 16.1832 0 11.4878C0 8.22026 0.967337 5.48017 2.88928 3.29325C4.81123 1.09346 7.3314 0 10.4498 0C13.0209 0 15.1337 1.05487 16.8139 3.15174C18.494 5.24861 19.4231 7.87292 19.614 11.0247C19.614 11.3334 19.4613 11.4878 19.1558 11.4878C18.8503 11.4878 18.6976 11.3334 18.6976 11.0247C18.7613 8.06589 19.6777 5.48017 21.4469 3.29325C23.2161 1.10633 25.3926 0 27.951 0C29.8474 0 31.6039 0.553163 33.2204 1.67235C34.8369 2.77868 36.1224 4.21947 37.0643 5.98188C38.0062 7.74428 38.4898 9.58387 38.4898 11.4878C38.4898 16.3633 36.6697 21.2132 33.0422 26.0244C29.402 30.8356 24.8708 34.9779 19.4358 38.4384C19.2577 38.5027 19.0667 38.5027 18.8885 38.4384C13.6955 35.1709 9.25335 31.0286 5.54946 26.0244ZM27.3146 29.9608C29.822 26.7834 31.7694 23.5287 33.1822 20.184C34.5823 16.8522 35.2951 13.9448 35.2951 11.4749C35.2951 8.20739 34.6205 5.62168 33.284 3.7435C31.9349 1.86532 30.1656 0.913362 27.9637 0.913362C25.6344 0.913362 23.687 1.85245 22.096 3.7435C20.505 5.62168 19.6777 8.05302 19.6268 11.0118C19.6268 11.3205 19.474 11.4749 19.1686 11.4749C18.8631 11.4749 18.7103 11.3205 18.7103 11.0118C18.5321 8.1688 17.6285 5.77605 16.012 3.83355C14.3955 1.89105 12.5499 0.913362 10.4625 0.913362C8.56603 0.913362 6.88591 1.92964 5.42218 3.97505C3.95845 6.00761 3.22021 8.51614 3.22021 11.4749C3.22021 14.2536 3.85662 17.2767 5.14216 20.5571C6.4277 23.8246 8.28601 26.9763 10.7298 29.9994C13.1736 33.0225 16.0756 35.5825 19.4358 37.6923H18.8885C22.0069 35.7112 24.8198 33.1383 27.3146 29.9608Z" fill="#FF0000"/>
<path d="M30.6487 0.712589H26.0157L23.5209 2.13814L21.3826 4.27646L19.6007 7.48395L19.2443 9.62227L16.0368 2.49453L10.3346 0.356201L7.48351 1.42536L3.20686 5.34563L2.1377 16.3936L9.62183 29.2236L13.8985 33.8566L18.8879 37.7769L24.5901 33.8566L29.5795 29.2236L35.9945 18.532L34.9253 6.41479L33.4998 2.85091L30.6487 0.712589Z" fill="#FF0000"/>
</svg>
