<svg width="62" height="62" viewBox="0 0 62 62" fill="none" xmlns="http://www.w3.org/2000/svg">
<g filter="url(#filter0_d_268_257)">
<path d="M9.78571 36.5114C4.58929 29.4906 2 22.7045 2 16.117C2 11.5328 3.35714 7.6885 6.05357 4.62032C8.75 1.53409 12.2857 0 16.6607 0C20.2679 0 23.2321 1.47995 25.5893 4.42179C27.9464 7.36364 29.25 11.0455 29.5179 15.4672C29.5179 15.9004 29.3036 16.117 28.875 16.117C28.4464 16.117 28.2321 15.9004 28.2321 15.4672C28.3214 11.3162 29.6071 7.6885 32.0893 4.62032C34.5714 1.55214 37.625 0 41.2143 0C43.875 0 46.3393 0.776069 48.6071 2.34626C50.875 3.8984 52.6786 5.91979 54 8.39238C55.3214 10.865 56 13.4459 56 16.117C56 22.9572 53.4464 29.7614 48.3571 36.5114C43.25 43.2614 36.8929 49.0729 29.2679 53.9278C29.0179 54.018 28.75 54.018 28.5 53.9278C21.2143 49.3436 14.9821 43.5321 9.78571 36.5114ZM40.3214 42.0341C43.8393 37.5762 46.5714 33.01 48.5536 28.3175C50.5179 23.643 51.5179 19.5642 51.5179 16.0989C51.5179 11.5147 50.5714 7.88703 48.6964 5.25201C46.8036 2.61698 44.3214 1.28142 41.2321 1.28142C37.9643 1.28142 35.2321 2.59893 33 5.25201C30.7679 7.88703 29.6071 11.2981 29.5357 15.4492C29.5357 15.8824 29.3214 16.0989 28.8929 16.0989C28.4643 16.0989 28.25 15.8824 28.25 15.4492C28 11.4606 26.7321 8.10361 24.4643 5.37834C22.1964 2.65307 19.6071 1.28142 16.6786 1.28142C14.0179 1.28142 11.6607 2.70722 9.60714 5.57687C7.55357 8.42848 6.51786 11.9479 6.51786 16.0989C6.51786 19.9973 7.41071 24.2386 9.21429 28.8409C11.0179 33.4251 13.625 37.8469 17.0536 42.0882C20.4821 46.3295 24.5536 49.9211 29.2679 52.881H28.5C32.875 50.1016 36.8214 46.492 40.3214 42.0341Z" fill="#FF0000"/>
<path d="M45 1H38.5L35 3L32 6L29.5 10.5L29 13.5L24.5 3.5L16.5 0.5L12.5 2L6.5 7.5L5 23L15.5 41L21.5 47.5L28.5 53L36.5 47.5L43.5 41L52.5 26L51 9L49 4L45 1Z" fill="#FF0000"/>
</g>
<defs>
<filter id="filter0_d_268_257" x="0" y="0" width="62" height="61.9956" filterUnits="userSpaceOnUse" color-interpolation-filters="sRGB">
<feFlood flood-opacity="0" result="BackgroundImageFix"/>
<feColorMatrix in="SourceAlpha" type="matrix" values="0 0 0 0 0 0 0 0 0 0 0 0 0 0 0 0 0 0 127 0" result="hardAlpha"/>
<feOffset dx="2" dy="4"/>
<feGaussianBlur stdDeviation="2"/>
<feComposite in2="hardAlpha" operator="out"/>
<feColorMatrix type="matrix" values="0 0 0 0 0 0 0 0 0 0 0 0 0 0 0 0 0 0 0.25 0"/>
<feBlend mode="normal" in2="BackgroundImageFix" result="effect1_dropShadow_268_257"/>
<feBlend mode="normal" in="SourceGraphic" in2="effect1_dropShadow_268_257" result="shape"/>
</filter>
</defs>
</svg>
