<svg width="196" height="29" viewBox="0 0 196 29" fill="none" xmlns="http://www.w3.org/2000/svg">
<path d="M0.500001 13.0908L0.854494 12.9834C9.37219 10.3855 17.5246 6.25774 25.3125 0.595688L25.4443 0.499985L33.1377 0.499986L32.5303 1.30174C30.6575 3.77464 28.8434 5.94303 27.0889 7.80467L27.0772 7.81639C25.6279 9.2516 24.2113 10.505 22.8291 11.5771L195 11.5771L195 17.4229L22.7715 17.4228C24.1708 18.5509 25.6067 19.8425 27.0771 21.2988L27.0889 21.3105C28.8411 23.1698 30.6535 25.2979 32.5254 27.6924L33.1572 28.5L25.4463 28.5L25.3154 28.4062C17.5261 22.8197 9.37138 18.6909 0.850587 16.0156L0.500001 15.9053L0.500001 13.0908Z" fill="#F2E772" stroke="black"/>
</svg>
