<svg width="9" height="11" viewBox="0 0 9 11" fill="none" xmlns="http://www.w3.org/2000/svg">
<g clip-path="url(#clip0_275_348)">
<path d="M8.01013 10.997L1.02346 10.9993C0.44814 10.9993 0.00179976 10.5797 0.00179976 10.0311L0 4.81172C0 4.2573 0.414545 3.84407 1.01926 3.8148C0.776296 1.76528 2.36668 0.0159367 4.4724 -0.000133394C6.57632 -0.0162035 8.2207 1.7188 7.97774 3.7993C8.56506 3.86014 9.0006 4.23664 9 4.81057L8.9982 10.0328C8.9982 10.539 8.58965 10.997 8.01013 10.9976V10.997ZM6.46474 3.82628C6.70291 2.64914 5.91641 1.58737 4.74417 1.44905C3.7411 1.33024 2.77403 1.96387 2.55146 2.94931C2.48727 3.23398 2.49747 3.52611 2.51426 3.82456L6.46534 3.82628H6.46474Z" fill="#8E8B8B"/>
</g>
<defs>
<clipPath id="clip0_275_348">
<rect width="9" height="11" fill="white"/>
</clipPath>
</defs>
</svg>
