<svg width="104" height="860" viewBox="0 0 104 860" fill="none" xmlns="http://www.w3.org/2000/svg">
<g filter="url(#filter0_d_275_358)">
<path d="M61.3582 771.598C52.0373 758.17 45.026 747.626 40.2831 740.008L46.7994 740.008C41.0667 749.089 34.509 758.816 27.209 769.145C17.3107 783.391 11.1655 792.472 8.77345 796.388L7 795.14C11.7429 787.694 17.3107 777.796 23.6209 765.401C31.5395 750.94 37.0661 741.127 40.2418 735.963C41.0254 734.543 42.139 733.854 43.5 733.94C44.9023 734.026 45.9746 734.715 46.7582 735.963C49.9339 740.912 55.4605 750.725 63.3791 765.401C71.2977 780.292 76.8243 790.191 80 795.14L78.2266 796.388C75.2571 791.654 69.6068 783.391 61.317 771.598L61.3582 771.598Z" fill="#F2E772"/>
<path d="M61.3582 727.488C52.0373 714.48 45.026 704.265 40.2831 696.886L46.7994 696.886C41.0667 705.683 34.509 715.106 27.209 725.112C17.3107 738.912 11.1655 747.709 8.77345 751.504L7 750.294C11.7429 743.082 17.3107 733.492 23.6209 721.485C31.5395 707.476 37.0661 697.97 40.2418 692.967C41.0254 691.591 42.139 690.924 43.5 691.007C44.9023 691.09 45.9746 691.757 46.7582 692.967C49.9339 697.761 55.4605 707.267 63.3791 721.485C71.2977 735.91 76.8243 745.5 80 750.294L78.2266 751.504C75.2571 746.917 69.6068 738.912 61.317 727.488L61.3582 727.488Z" fill="#F2E772"/>
<path d="M61.3582 819.21C52.0373 805.782 45.026 795.238 40.2831 787.62L46.7994 787.62C41.0667 796.701 34.509 806.428 27.209 816.757C17.3107 831.003 11.1655 840.084 8.77345 844L7 842.752C11.7429 835.306 17.3107 825.408 23.6209 813.013C31.5395 798.552 37.0661 788.739 40.2418 783.575C41.0254 782.154 42.139 781.466 43.5 781.552C44.9023 781.638 45.9746 782.327 46.7582 783.575C49.9339 788.524 55.4605 798.337 63.3791 813.013C71.2977 827.904 76.8243 837.803 80 842.752L78.2266 844C75.2571 839.266 69.6068 831.003 61.317 819.21L61.3582 819.21Z" fill="#F2E772"/>
<path d="M8.73535 54.8301C30.3349 36.6746 41.6924 18.5495 42.6816 0.5L44.0527 0.5C45.0063 19.3555 57.8036 37.4186 82.1602 54.8115L81.3799 55.4111C72.2051 50.7629 65.1077 46.1266 60.0225 41.6123C54.8668 37.0355 49.9763 31.8569 45.2979 26.1289L43.7334 24.1582L43.3545 23.6807L42.96 24.1455L40.6406 26.8828L40.6289 26.8965C36.4885 32.1336 32.0247 37.0447 27.292 41.6279C22.5922 46.1277 16.5822 50.7403 9.25879 55.3623L8.73535 54.8301Z" fill="#F2E772" stroke="#F2E772" stroke-linecap="round"/>
<path d="M48 20C45 20 42 20 39 20C39.0469 34.7667 39.0938 49.5333 39.1406 64.3C39.9844 330.1 40.8282 595.9 41.6719 861.7C41.7188 876.467 41.7657 891.233 41.8125 856C42.9375 856 44.0625 856 45.1875 856C45.2344 891.233 45.2813 876.467 45.3282 861.7C46.1719 595.9 47.0156 330.1 47.8594 64.3C47.9063 49.5333 47.9531 34.7667 48 20Z" fill="#F2E772"/>
</g>
<defs>
<filter id="filter0_d_275_358" x="0" y="0" width="104" height="860" filterUnits="userSpaceOnUse" color-interpolation-filters="sRGB">
<feFlood flood-opacity="0" result="BackgroundImageFix"/>
<feColorMatrix in="SourceAlpha" type="matrix" values="0 0 0 0 0 0 0 0 0 0 0 0 0 0 0 0 0 0 127 0" result="hardAlpha"/>
<feOffset dx="7"/>
<feGaussianBlur stdDeviation="7"/>
<feComposite in2="hardAlpha" operator="out"/>
<feColorMatrix type="matrix" values="0 0 0 0 0 0 0 0 0 0 0 0 0 0 0 0 0 0 0.35 0"/>
<feBlend mode="normal" in2="BackgroundImageFix" result="effect1_dropShadow_275_358"/>
<feBlend mode="normal" in="SourceGraphic" in2="effect1_dropShadow_275_358" result="shape"/>
</filter>
</defs>
</svg>
