<svg width="59" height="954" viewBox="0 0 59 954" fill="none" xmlns="http://www.w3.org/2000/svg">
<path d="M43.9333 893.425C36.4 882.358 30.7333 873.668 26.9 867.39L32.1667 867.39C27.5333 874.874 22.2333 882.891 16.3333 891.403C8.33332 903.144 3.36667 910.628 1.43333 913.856L5.04219e-07 912.827C3.83333 906.691 8.33332 898.533 13.4333 888.317C19.8333 876.4 24.3 868.312 26.8667 864.056C27.5 862.886 28.4 862.318 29.5 862.389C30.6333 862.46 31.5 863.027 32.1334 864.056C34.7 868.135 39.1667 876.222 45.5667 888.317C51.9667 900.59 56.4333 908.748 59 912.827L57.5667 913.856C55.1667 909.954 50.6 903.144 43.9 893.425L43.9333 893.425Z" fill="#F2E772"/>
<path d="M43.9333 857.072C36.4 846.351 30.7333 837.933 26.9 831.851L32.1667 831.851C27.5333 839.101 22.2333 846.867 16.3333 855.113C8.33332 866.487 3.36667 873.737 1.43333 876.864L9.37634e-07 875.868C3.83333 869.923 8.33332 862.02 13.4333 852.124C19.8333 840.579 24.3 832.744 26.8667 828.621C27.5 827.487 28.4 826.937 29.5 827.006C30.6333 827.075 31.5 827.624 32.1334 828.621C34.7 832.572 39.1667 840.407 45.5667 852.124C51.9667 864.013 56.4333 871.916 59 875.868L57.5667 876.864C55.1667 873.084 50.6 866.487 43.9 857.072L43.9333 857.072Z" fill="#F2E772"/>
<path d="M43.9333 932.664C36.4 921.598 30.7333 912.908 26.9 906.629L32.1667 906.629C27.5333 914.114 22.2333 922.13 16.3333 930.642C8.33332 942.383 3.36666 949.867 1.43333 953.095L1.20624e-08 952.066C3.83333 945.93 8.33332 937.772 13.4333 927.557C19.8333 915.639 24.3 907.552 26.8667 903.295C27.5 902.125 28.4 901.557 29.5 901.628C30.6333 901.699 31.5 902.267 32.1334 903.295C34.7 907.374 39.1667 915.461 45.5667 927.557C51.9667 939.829 56.4333 947.987 59 952.066L57.5667 953.095C55.1667 949.193 50.6 942.383 43.9 932.664L43.9333 932.664Z" fill="#F2E772"/>
<path d="M30.8125 953L28.1875 953L26 16L33 16L30.8125 953Z" fill="#F2E772"/>
<path d="M40.1496 28.9719C36.6273 25.7989 33.2885 22.2105 30.0964 18.2443L29.0324 16.8845L27.4547 18.7732C24.6295 22.3994 21.5842 25.7989 18.3554 28.9719C15.0899 32.1448 10.9072 35.3934 5.80719 38.6418L5 37.8109C19.9698 25.1191 27.7115 12.5029 28.2619 -4.54943e-05L29.8396 -4.54752e-05C30.3532 13.0695 39.0856 25.6479 56 37.8109L54.936 38.6418C48.5885 35.3934 43.6719 32.1448 40.1496 28.9719Z" fill="#F2E772"/>
<path d="M5 37.8108C19.9696 25.1191 27.7113 12.5031 28.2617 0.000244423L29.8398 0.000244442C30.3536 13.0696 39.0858 25.6479 56 37.8108L54.9355 38.6418C48.5882 35.3934 43.6717 32.1448 40.1494 28.9719C36.8473 25.9973 33.7062 22.6575 30.6963 18.9836L30.0967 18.2444L29.0322 16.885L27.4551 18.7727C24.983 21.9457 22.3422 24.9458 19.5576 27.7717L18.3555 28.9719C15.2942 31.9465 11.4266 34.9873 6.75293 38.0325L5.80762 38.6418L5 37.8108ZM10.4355 34.2795C13.2137 32.2488 15.6195 30.2358 17.6543 28.259C20.4528 25.5089 23.1115 22.587 25.6064 19.4944L26.666 18.1584L26.6768 18.1448L26.6875 18.1321L29.0576 15.2942L30.8838 17.6282C34.0446 21.5546 37.3451 25.0991 40.8193 28.2288C43.4846 30.6296 46.9912 33.0939 51.3691 35.5833C37.975 25.0574 30.4275 14.095 29.0469 2.62817C27.7684 13.221 21.5028 23.775 10.4355 34.2795Z" fill="#F2E772"/>
<line x1="8" y1="93" x2="50" y2="93" stroke="#F2E772" stroke-width="4"/>
<line x1="8" y1="241" x2="50" y2="241" stroke="#F2E772" stroke-width="4"/>
<line x1="8" y1="390" x2="50" y2="390" stroke="#F2E772" stroke-width="4"/>
<line x1="8" y1="538" x2="50" y2="538" stroke="#F2E772" stroke-width="4"/>
<line x1="9" y1="686" x2="51" y2="686" stroke="#F2E772" stroke-width="4"/>
</svg>
