<svg width="136" height="58" viewBox="0 0 136 58" fill="none" xmlns="http://www.w3.org/2000/svg">
<path d="M43.6 26.94C43.568 27.1 43.216 26.972 42.544 27.196C41.744 27.452 40.496 28.06 39.856 28.572C42.64 30.428 43.568 33.532 42.32 35.868C40.784 38.748 36.688 39.324 33.904 39.1C33.296 39.036 32.88 38.972 32.464 38.844C32.112 38.78 31.824 38.588 32.016 38.268C32.176 38.044 32.4 38.076 32.656 38.204C32.88 38.332 33.264 38.588 33.616 38.652C35.792 38.876 38.16 37.788 39.824 35.132C41.264 32.796 40.88 30.076 39.504 28.892C36.336 31.324 33.584 35.932 31.504 38.268C25.072 45.532 19.376 46.812 14.512 47.292C17.776 47.932 21.264 48.316 23.344 48.188C25.456 48.06 27.12 47.516 28.336 45.98C28.368 45.916 28.496 45.756 28.56 45.82C28.688 45.884 28.656 46.172 28.528 46.46C27.44 49.564 24.4 52.54 20.528 52.668C16.912 52.796 14.064 50.684 13.072 47.548C12.496 47.612 11.728 47.932 10.864 48.124C8.016 48.796 6.992 48.508 6.928 48.06C6.832 47.196 8.272 46.78 9.68 46.78C10.672 46.78 11.856 46.972 12.944 47.036C12.784 46.428 12.688 45.66 12.656 44.636C12.528 40.476 14.384 35.772 17.776 32.38C21.776 28.412 27.248 26.46 33.52 26.716C36.464 26.844 38.256 27.58 39.312 28.22C40.08 27.708 41.328 27.164 42.32 26.908C42.896 26.748 43.632 26.716 43.6 26.94ZM38.896 28.508C37.904 27.932 36.272 27.324 33.52 27.196C28.144 26.94 22.896 29.404 19.056 33.372C15.312 37.212 13.328 40.988 13.2 44.636C13.168 45.532 13.264 46.332 13.424 47.036C18.896 46.684 23.216 43.356 28.016 38.172C31.184 34.748 35.28 30.78 38.896 28.508ZM28.016 46.876C27.056 47.9 25.616 49.404 23.184 49.5C20.304 49.596 18.288 48.828 13.968 47.484C13.84 47.452 13.68 47.452 13.552 47.484C14.544 50.524 17.456 52.188 20.528 52.06C23.92 51.932 26.576 49.596 28.016 46.876ZM49.1853 39.612C49.1213 40.06 48.6413 40.476 48.4813 40.444C48.3533 40.412 48.1933 40.252 48.0013 40.124C47.6813 39.932 47.5213 39.836 47.0093 39.804C45.4413 39.74 42.7533 41.532 40.5773 43.58C38.5293 45.532 37.6333 46.62 36.5132 48.124C35.9372 48.124 35.4252 46.908 35.8092 46.172C36.4812 44.924 37.6973 43.292 39.3932 41.532C40.4173 40.412 41.2173 39.772 41.9852 39.292C43.0093 38.62 44.4813 38.428 45.5373 38.428C44.1933 39.324 42.3693 40.924 40.9933 42.524L41.0893 42.62C42.8493 41.084 46.4013 38.108 48.2893 38.46C48.9613 38.588 49.2173 39.036 49.1853 39.612ZM56.068 38.364C57.124 38.972 56.708 40.284 55.46 41.18C53.86 42.3 51.46 42.62 50.788 42.3C48.58 44.22 46.756 46.876 47.876 47.452C48.612 47.804 50.34 47.228 51.556 46.428C52.836 45.596 54.756 43.996 55.652 43.196C55.908 42.972 55.972 42.94 56.1 43.068C56.228 43.196 56.1 43.388 55.94 43.516C54.852 44.476 53.636 45.532 52.228 46.492C50.372 47.772 48.932 48.124 47.684 48.028C46.5 47.932 46.02 47.164 45.924 46.236C45.828 45.436 46.244 43.708 47.748 42.076C50.244 39.356 54.948 37.724 56.068 38.364ZM55.876 38.652C55.492 38.332 52.548 40.572 50.98 42.108C51.46 42.268 53.06 41.756 54.468 40.636C55.524 39.804 56.228 38.908 55.876 38.652ZM63.2873 38.428C62.1353 39.228 60.2473 40.924 58.8073 42.588C60.6633 41.084 64.6633 38.14 66.5513 38.332C68.0233 38.46 67.8633 39.74 66.9353 41.148C68.2473 40.22 71.1912 38.108 72.7913 38.332C74.9673 38.62 74.2633 40.54 71.5113 43.036C70.4873 43.964 69.6233 44.828 68.9513 45.532C67.7993 46.716 67.6073 47.196 67.9273 47.452C68.2473 47.676 69.5593 47.1 70.8073 46.204C71.9593 45.404 73.3993 44.156 74.2953 43.356C74.3913 43.26 74.5513 43.132 74.6793 43.292C74.8073 43.452 74.6473 43.612 74.4873 43.772C73.5273 44.636 72.0873 45.788 70.9033 46.652C69.6233 47.58 67.7673 48.444 66.5513 47.964C65.6233 47.612 65.4313 46.46 66.4233 45.084C67.2553 43.964 67.8633 43.388 69.1753 42.172C70.2313 41.148 73.0473 39.196 72.3433 38.812C71.9272 38.588 69.4313 39.964 67.1913 41.5C65.3673 42.716 64.0873 44.028 63.1273 44.924C61.9433 46.076 61.1433 47.004 60.2793 48.124C59.7033 48.124 59.1593 46.876 59.5753 46.172C60.2473 44.924 61.4633 43.484 62.9353 42.172C64.0553 41.148 66.8393 39.228 66.1033 38.812C65.5273 38.492 60.5033 41.532 58.3273 43.58C56.2793 45.532 55.4153 46.588 54.2632 48.124C53.6872 48.124 53.1752 46.908 53.5592 46.172C54.2312 44.924 55.3193 43.42 57.1432 41.532C58.1673 40.412 58.9673 39.772 59.7352 39.292C60.7593 38.62 62.2313 38.428 63.2873 38.428ZM84.403 35.772C84.403 36.476 83.827 37.052 83.123 37.052C82.419 37.052 81.843 36.476 81.843 35.772C81.843 35.068 82.419 34.492 83.123 34.492C83.827 34.492 84.403 35.068 84.403 35.772ZM82.355 38.428C79.603 40.892 76.723 43.868 75.603 45.18C74.611 46.332 74.003 47.324 74.483 47.58C74.995 47.804 76.755 46.652 77.651 45.98C78.739 45.18 80.339 43.836 81.011 43.228C81.139 43.132 81.299 42.972 81.459 43.132C81.587 43.26 81.491 43.452 81.363 43.516C80.467 44.284 78.611 45.82 77.939 46.332C76.883 47.1 75.347 48.092 74.419 48.092C72.275 48.092 72.083 45.628 74.483 43.1C75.731 41.788 78.195 39.452 79.475 38.748C79.955 38.492 81.939 38.396 82.355 38.428ZM94.6448 38.364C91.8928 40.892 89.3008 43.644 88.1808 45.02C87.1568 46.236 86.4528 47.164 86.9328 47.388C87.4128 47.612 89.1088 46.428 89.8767 45.82C90.9008 45.02 92.2128 43.868 93.0128 43.164C93.1728 43.036 93.2688 42.94 93.3968 43.1C93.5248 43.228 93.4288 43.356 93.3008 43.484C92.3728 44.348 90.9008 45.596 90.2288 46.14C88.7568 47.292 87.5408 48.06 86.3888 48.06C84.7568 48.06 84.4368 46.78 85.3968 45.116C84.9808 45.532 84.5328 45.916 84.2768 46.108C83.0608 47.1 81.6528 48.124 80.3087 48.092C78.9967 48.028 78.6127 47.004 78.9327 46.108C79.2207 45.18 79.9567 44.092 81.1408 42.908C82.3888 41.596 84.5968 39.836 85.8768 39.068C86.3888 38.78 87.8928 38.556 88.9808 38.556C86.1328 40.892 83.3168 43.644 82.1968 45.02C81.2048 46.236 80.6928 47.036 81.1408 47.292C81.6528 47.548 82.9968 46.588 84.0528 45.756C85.2688 44.764 86.5808 43.452 87.0928 42.908C88.3728 41.596 90.6128 39.452 91.8928 38.716C92.3728 38.46 93.8768 38.3 94.6448 38.364ZM100.631 38.428C99.479 39.228 97.591 40.924 96.151 42.588C98.007 41.084 102.007 38.14 103.895 38.332C105.367 38.46 105.207 39.74 104.279 41.148C105.591 40.22 108.535 38.108 110.135 38.332C112.311 38.62 111.607 40.54 108.855 43.036C107.831 43.964 106.967 44.828 106.295 45.532C105.143 46.716 104.951 47.196 105.271 47.452C105.591 47.676 106.903 47.1 108.151 46.204C109.303 45.404 110.743 44.156 111.639 43.356C111.735 43.26 111.895 43.132 112.023 43.292C112.151 43.452 111.991 43.612 111.831 43.772C110.871 44.636 109.431 45.788 108.247 46.652C106.967 47.58 105.111 48.444 103.895 47.964C102.967 47.612 102.775 46.46 103.767 45.084C104.599 43.964 105.207 43.388 106.519 42.172C107.575 41.148 110.391 39.196 109.687 38.812C109.271 38.588 106.775 39.964 104.535 41.5C102.711 42.716 101.431 44.028 100.471 44.924C99.287 46.076 98.487 47.004 97.623 48.124C97.047 48.124 96.503 46.876 96.919 46.172C97.591 44.924 98.807 43.484 100.279 42.172C101.399 41.148 104.183 39.228 103.447 38.812C102.871 38.492 97.847 41.532 95.671 43.58C93.623 45.532 92.759 46.588 91.607 48.124C91.031 48.124 90.519 46.908 90.903 46.172C91.575 44.924 92.663 43.42 94.487 41.532C95.511 40.412 96.311 39.772 97.079 39.292C98.103 38.62 99.575 38.428 100.631 38.428Z" fill="#FF0000"/>
<rect x="1" y="23.708" width="120" height="33" rx="16.5" stroke="#FF0000" stroke-width="2"/>
<path d="M118.38 6.60023L117.611 19.7514L129.881 24.5468L117.136 27.8793L116.367 41.0305L109.259 29.9389L96.5137 33.2714L104.866 23.0839L97.7581 11.9924L110.028 16.7877L118.38 6.60023Z" fill="#FF0000"/>
</svg>
