<svg width="196" height="29" viewBox="0 0 196 29" fill="none" xmlns="http://www.w3.org/2000/svg">
<path d="M195 15.9092L194.646 16.0166C186.128 18.6145 177.975 22.7422 170.188 28.4043L170.056 28.5H162.362L162.97 27.6982C164.842 25.2253 166.657 23.057 168.411 21.1953L168.423 21.1836C169.872 19.7484 171.289 18.495 172.671 17.4229H0.5V11.5771H172.729C171.329 10.449 169.893 9.15744 168.423 7.70117L168.411 7.68945C166.659 5.83022 164.847 3.70212 162.975 1.30762L162.343 0.5H170.054L170.185 0.59375C177.974 6.1803 186.129 10.3091 194.649 12.9844L195 13.0947V15.9092Z" fill="#F2E772" stroke="black"/>
</svg>
